<svg width="22" height="24" fill="none" xmlns="http://www.w3.org/2000/svg"><path d="M9.75 22.12a6.41 6.41 0 013.09-2.59 14.698 14.698 0 012.75-1 12 12 0 013.41-.6c.44-.07.4-.65-.12-.69a9.892 9.892 0 00-3.46.16 10.81 10.81 0 00-1.92.56c-.63.248-1.233.56-1.8.93A6.64 6.64 0 008.92 22c-.14.52.62.48.83.12z" fill="#113975"/><path d="M17.45 14.26a20.597 20.597 0 00-6.4-1.44v-.05a46.319 46.319 0 002.37-6 6.94 6.94 0 00-.06-4.9c-.46-.94-.2-.94-.65-1.35A2.36 2.36 0 0011 0a8.53 8.53 0 00-2.1.44 18 18 0 00-3.74 1.89 25.081 25.081 0 00-3.34 2.43.35.35 0 000 .48.34.34 0 00.48 0 25.09 25.09 0 013.3-2.17 16.7 16.7 0 013.58-1.62 7.59 7.59 0 011.88-.33 1.28 1.28 0 01.88.25c.06 0 0 .13 0 .2-.04.127-.097.248-.17.36a4.872 4.872 0 01-.52.64 15.308 15.308 0 01-3.34 1.92c-2.49 1.2-5.35 2.4-5.48 2.43a5.786 5.786 0 01-.61.1h-.35c-.08 0 0-.23.08-.48a.3.3 0 00-.15-.4.3.3 0 00-.4.15 1.79 1.79 0 000 1.66 7.7 7.7 0 003.09 3.36 18.922 18.922 0 005.71 2.28A24.18 24.18 0 007.31 20c-.31 1.55-.17 2.89.51 3.54A2.38 2.38 0 009.6 24a18.402 18.402 0 005.62-1.75 22.91 22.91 0 005-3c.72-.65 1-1.28.93-1.68-.22-1.22-1.62-2.44-3.7-3.31zM4.51 10.67a7.15 7.15 0 01-2.91-3 4 4 0 00.92 0A62.14 62.14 0 009.3 5a10.94 10.94 0 002.78-1.66c.294-.298.546-.634.75-1A5.32 5.32 0 0113 5.45a32.748 32.748 0 01-2.68 6.86c-.07.16-.13.3-.17.42a18.212 18.212 0 01-5.64-2.06zm14.76 7.86a25.619 25.619 0 01-5.82 3.22 16.2 16.2 0 01-3.67 1.09 1.74 1.74 0 01-1.19-.11c-.32-.18-.35-.67-.37-1.17a9.21 9.21 0 01.33-2.36 24.89 24.89 0 012-5.21l.15-.27a20 20 0 016.3 1.5 5.64 5.64 0 012.89 2.16c.11.09.19.49-.62 1.15z" fill="#113975"/></svg>