<svg width="18" height="17" fill="none" xmlns="http://www.w3.org/2000/svg"><path fill-rule="evenodd" clip-rule="evenodd" d="M16.766 5.04A7.726 7.726 0 0012.229.836a12.523 12.523 0 00-6.193-.72A7.15 7.15 0 00.441 5.322a10.16 10.16 0 00.72 7.676c1.116 2.096 3.528 3.45 6.157 3.853a9.36 9.36 0 007.071-1.57.245.245 0 000-.31.237.237 0 00-.338-.043 8.823 8.823 0 01-6.676 1.361c-2.405-.403-4.623-1.656-5.616-3.6a9.462 9.462 0 01-.548-7.094c.72-2.311 2.42-4.205 4.955-4.63a11.724 11.724 0 015.797.583 7.079 7.079 0 014.241 3.76 8.935 8.935 0 01.475 4.126 10.261 10.261 0 01-1.195 4.04.216.216 0 00.374.216 10.622 10.622 0 001.325-4.199 9.484 9.484 0 00-.417-4.45z" fill="#113975"/></svg>