<svg width="24" height="24" fill="none" xmlns="http://www.w3.org/2000/svg"><path d="M22.14 6.31a15.53 15.53 0 00-3-3.61A10.47 10.47 0 0013.28.06 12.35 12.35 0 007 1.19c-1.67.76-3.14 1.9-4.29 3.33A12.26 12.26 0 00.37 9.35a.33.33 0 00.25.4A.33.33 0 001 9.5 11.34 11.34 0 013.33 5a10.7 10.7 0 014-3 11.69 11.69 0 015.83-.92 9.53 9.53 0 015.26 2.45c1.073.975 2 2.1 2.75 3.34a8.84 8.84 0 011.36 4 12 12 0 01-.55 4.7 8.37 8.37 0 01-2.65 3.83 7.2 7.2 0 01-2.74 1.44 18.94 18.94 0 01-4.74.73.3.3 0 00-.28.31.29.29 0 00.3.29 20.429 20.429 0 004.93-.63 8.11 8.11 0 003-1.49 9.25 9.25 0 003.06-4.15c.575-1.629.823-3.355.73-5.08a9.81 9.81 0 00-1.45-4.51z" fill="#113975"/><path d="M15.92 15.92A3.48 3.48 0 0018 12.37a1 1 0 00-.61-.76 3.27 3.27 0 00-1.39-.07c-1.22.07-3.05.38-4.54.54-.4.05-.78.08-1.11.1a.3.3 0 000 .59l5.66-.18h.83A2.46 2.46 0 0115.38 15a3.791 3.791 0 01-3.11.53 4 4 0 01-1.12-.71 3.38 3.38 0 01-.82-1 .34.34 0 00-.65.143.33.33 0 00.03.127 4 4 0 00.91 1.32 5.22 5.22 0 001.29.95 4.7 4.7 0 004.01-.44zM8.32 11c.223.061.457.061.68 0a1.131 1.131 0 00.46-1.83c-1-1.24-3 .82-1.74 1.72.187.089.394.127.6.11zm10.83-.64c.225.04.456.02.67-.06a1.13 1.13 0 00.46-1.84c-1-1.23-3 .83-1.74 1.73.184.112.395.17.61.17zm-9.53 9.75a1.27 1.27 0 00-.45-.5 1.59 1.59 0 00.21-1.08 2.53 2.53 0 00-.34-1 1.63 1.63 0 00-.52-.49 1 1 0 00.08-.3 2.06 2.06 0 00-.6-1.81 2.92 2.92 0 00-1.73-.46 5 5 0 00-2.18.43 3.94 3.94 0 00-.71-2.53c-.9-1-2.54-.13-2.71 1.36a5.92 5.92 0 00.23 1.81c.28 1 .23.95.48 1.33a3.46 3.46 0 00-.55.8c-.1.34-.28.74-.12 1 .16.26.3.23.47.06.17-.17.09-.44.14-.6a1.69 1.69 0 01.43-.76c.16-.21.28-.22.47-.4C4.07 15.2 6.84 15 7.34 15.69c.85 1.16-1.16 1.29-2.9 2.37a.28.28 0 00-.18.38.29.29 0 00.38.18c.41-.06.77-.06 1.12-.11 1-.17 1.25-.66 2.16-.51a.87.87 0 01.22 1.08 4.37 4.37 0 01-1.52.66 9.4 9.4 0 00-1.07.6.291.291 0 00-.2.37.29.29 0 00.37.2 9.628 9.628 0 001.08-.07c.157-.021.31-.058.46-.11a1.69 1.69 0 011.21-.2.241.241 0 01.16.11.33.33 0 010 .24 1.43 1.43 0 01-.35.68c-.202.23-.43.434-.68.61a4.85 4.85 0 01-2.25.83A4.1 4.1 0 013 22.65a2.68 2.68 0 01-1.2-1.29 5.21 5.21 0 01-.47-1.86.33.33 0 00-.479-.287.34.34 0 00-.191.327 5.6 5.6 0 00.65 2.54c.304.545.75.998 1.29 1.31a5.05 5.05 0 002.85.61 5.84 5.84 0 002.77-1 4.66 4.66 0 001.08-1 2.45 2.45 0 00.46-1 1.45 1.45 0 00-.14-.89zm-7.81-3.72l-.09-1c0-.75-.13-1.73.37-2.19.1 0 .45-.59.88.22.237.443.384.93.43 1.43a.32.32 0 00.13.26 6.999 6.999 0 00-1.72 1.28z" fill="#113975"/></svg>