<svg width="24" height="14" fill="none" xmlns="http://www.w3.org/2000/svg"><path fill-rule="evenodd" clip-rule="evenodd" d="M23.67 5.55a14.78 14.78 0 00-4.92-3.69A18 18 0 0013 .12a11.33 11.33 0 00-3 .06A17.63 17.63 0 002.65 3 16.29 16.29 0 00.29 4.89a2.19 2.19 0 00-.23.28.32.32 0 000 .34.3.3 0 00.41.13 12.85 12.85 0 014-2.84 16.41 16.41 0 013-1.17c.89-.255 1.8-.435 2.72-.54a10.59 10.59 0 012.7 0 17.37 17.37 0 015.41 1.77 14.37 14.37 0 014.46 3.32 1 1 0 010 1 3.86 3.86 0 01-.81 1.12 19.813 19.813 0 01-3 2.54 15.395 15.395 0 01-3.52 1.74A8.774 8.774 0 0113 13a28.753 28.753 0 01-3.74-.17A9.23 9.23 0 015 11a12.64 12.64 0 01-3.27-3.46.34.34 0 00-.48-.12.37.37 0 00-.11.49 13.429 13.429 0 003.38 3.73 10 10 0 004.66 2.07A29.25 29.25 0 0013 14c.9.006 1.796-.119 2.66-.37a15.896 15.896 0 003.81-1.79 19.995 19.995 0 003.24-2.66 4.52 4.52 0 001.2-1.86 2 2 0 00-.24-1.77z" fill="#113975"/><path fill-rule="evenodd" clip-rule="evenodd" d="M10.71 4.14A5 5 0 0113.13 4 2.92 2.92 0 0115 5.43a.31.31 0 00.42.13.31.31 0 00.12-.42 3.55 3.55 0 00-2.18-1.87 5.9 5.9 0 00-2.87-.09 3.41 3.41 0 00-2.36 2.1 4.13 4.13 0 000 3.16 4.19 4.19 0 002.32 2.13 4.89 4.89 0 003.07.16 3.68 3.68 0 002.14-1.66 4.3 4.3 0 00.63-2.59.34.34 0 00-.39-.29.34.34 0 00-.3.39 3.47 3.47 0 01-.64 2 2.71 2.71 0 01-1.68 1.17 3.88 3.88 0 01-2.4-.25A3.1 3.1 0 019.15 8a3 3 0 010-2.26 2.41 2.41 0 011.56-1.6z" fill="#113975"/></svg>