<svg width="34" height="33" fill="none" xmlns="http://www.w3.org/2000/svg"><path fill-rule="evenodd" clip-rule="evenodd" d="M32.545 9.785a15 15 0 00-8.806-8.163A24.31 24.31 0 0011.717.224 13.88 13.88 0 00.856 10.33a19.724 19.724 0 001.397 14.9c2.167 4.068 6.85 6.696 11.952 7.48a18.172 18.172 0 0013.727-3.048.475.475 0 000-.601.463.463 0 00-.657-.084 17.125 17.125 0 01-12.958 2.642c-4.669-.783-8.974-3.215-10.903-6.99A18.368 18.368 0 012.35 10.863c1.4-4.489 4.698-8.165 9.62-8.99a22.757 22.757 0 0111.25 1.133 13.74 13.74 0 018.234 7.296 17.361 17.361 0 01.922 8.01 19.92 19.92 0 01-2.32 7.842.42.42 0 00.727.42 20.619 20.619 0 002.572-8.15 18.41 18.41 0 00-.81-8.639z" fill="#113975"/></svg>