<svg width="11" height="11" fill="none" xmlns="http://www.w3.org/2000/svg"><path fill-rule="evenodd" clip-rule="evenodd" d="M4.134 4.474a26.938 26.938 0 00-2.14-2.28C.624.864.704.964.624.954c-.08-.01-.48.25-.23.57l.32.38c.5.62 1.42 1.8 2.09 2.72.3.41.86.87.64 1a2.75 2.75 0 01-.56.88 25.621 25.621 0 01-2.39 2.55c-.4.37-.56.44-.47.61.09.17.18.54.5.31l.17-.12c.32-.23 1-.71 1.65-1.28a12.91 12.91 0 001.78-1.76 2.35 2.35 0 00.5-1.32 2.09 2.09 0 00-.49-1.02zm4.813-.699c-1.09-1.34-2.79-3-2.79-3a.31.31 0 00-.44 0 .32.32 0 000 .45s.87 1.14 1.71 2.32c.35.49.68 1 1 1.4.17.22.318.459.44.71.07 0-.05.15-.1.25a7.563 7.563 0 01-.42.69 31.54 31.54 0 01-2.1 2.69c-.15.18-.27.3-.32.36-.05.06-.91 2 2.11-1a13.41 13.41 0 001.78-2.12 1.8 1.8 0 00.27-1 5.18 5.18 0 00-1.14-1.75z" fill="#113975"/></svg>