<svg width="58" height="4" fill="none" xmlns="http://www.w3.org/2000/svg"><path d="M43.973 2.876l.085.074 12.563-.406a.656.656 0 00.602-.694.673.673 0 00-.692-.6l-17.462-.2c-2.22-.04-4.413-.109-6.634-.176-3.31-.095-6.623-.217-9.946-.298-2.407-.08-4.826-.146-7.133-.114C11.958.439 8.528.538 5.114.477 3.667.46 2.191.42.777.309a.58.58 0 00-.12 1.136c1.471.16 2.891.35 4.406.375 3.41.208 6.827.296 10.224.491.972.05 11.385.58 14.272.68 2.074.063 7.541.071 7.541.071.664.006 1.328.011 1.99-.01l3.574-.122 1.31-.054z" fill="#113975"/></svg>