<svg width="58" height="4" fill="none" xmlns="http://www.w3.org/2000/svg"><path d="M43.951 2.986l.085.073 12.563-.406a.656.656 0 00.602-.693.673.673 0 00-.693-.6l-17.462-.2c-2.219-.04-4.413-.11-6.633-.177-3.31-.095-6.623-.217-9.946-.298C20.06.605 17.64.54 15.334.571 11.935.548 8.506.647 5.092.586A65.315 65.315 0 01.754.418a.58.58 0 00-.119 1.136c1.47.16 2.89.351 4.405.376 3.411.207 6.827.295 10.225.49.972.05 11.385.58 14.271.68 2.075.064 7.542.071 7.542.071.663.006 1.327.012 1.99-.009l3.573-.123 1.31-.053z" fill="#113975"/></svg>