<svg width="20" height="21" fill="none" xmlns="http://www.w3.org/2000/svg"><path fill-rule="evenodd" clip-rule="evenodd" d="M19.018.58a.85.85 0 00-.76-.58 1.39 1.39 0 00-.9.42 33.058 33.058 0 00-3.37 4c-2.5 3.32-5.52 7.74-6.87 9.78l-.49.75a18.81 18.81 0 00-4.22-1 5 5 0 00-2 .07.7.7 0 00-.39.39 1.34 1.34 0 00.32 1.11 13.7 13.7 0 002.33 2.25c1.9 1.53 4.3 3 5.16 3.11a.34.34 0 00.303-.553.35.35 0 00-.233-.127 13.18 13.18 0 01-4-2.44 16.667 16.667 0 01-2.79-2.62 2.929 2.929 0 01-.21-.32.93.93 0 01.24-.05 13.28 13.28 0 013 .46c.832.19 1.642.46 2.42.81a.48.48 0 00.55-.04.45.45 0 00.19-.22v-.05c.11-.17.33-.51.66-1 1.37-2 4.42-6.36 6.92-9.65 1.12-1.48 2.12-2.75 2.82-3.48.09-.094.191-.178.3-.25-.05.28-.17.65-.26 1a50.54 50.54 0 01-3.22 7.81 73.702 73.702 0 01-5.23 9.25.3.3 0 00.287.478.31.31 0 00.203-.118 85.485 85.485 0 008.33-15.05c.436-.963.77-1.968 1-3a2.22 2.22 0 00-.09-1.14z" fill="#113975"/></svg>