<svg width="32" height="32" fill="none" xmlns="http://www.w3.org/2000/svg"><path d="M29.856.861c-.706-.513-1.54-.834-2.438-.834-.898 0-1.732.321-2.373.963-.321.256-.578.641-.77 1.026l-.193-.577a.138.138 0 00-.128-.129c-1.09.065-2.245.065-3.336.129 1.09.064 2.181.128 3.208.128.064.32.128.641.192 1.026-.064.257-.064.45-.064.706 0 .32.128.706.257 1.026.192 2.502-.065 5.004-.898 7.378a20.28 20.28 0 01-2.31 4.555c-.898 1.347-2.117 2.437-3.272 3.656h-3.464c-1.219-1.219-2.31-2.31-3.271-3.657a17.708 17.708 0 01-2.246-4.554 17.599 17.599 0 01-.32-9.815c1.988-.064 3.913-.064 5.901-.193 2.117-.064 4.17-.128 6.287-.256-2.117-.129-4.17-.193-6.287-.257L8.045.99a.482.482 0 00-.45.32c0 .129-.064.193-.064.321-.128-.256-.32-.449-.513-.641C6.377.412 5.478.027 4.645.027c-.899 0-1.797.321-2.502.834-.642.45-1.22 1.22-1.54 1.989C.283 3.62.09 4.454.09 5.288c0 3.336 2.373 6.415 5.517 7.249.77.256 1.54.256 2.117.513a.883.883 0 01.256.192c.129.385.321.77.514 1.155v.128c-.065.642-.385 1.284-.963 1.797-.513.513-1.219.834-1.86 1.219.706-.257 1.411-.514 2.053-.963.449-.32.898-.77 1.155-1.347.32.578.641 1.155 1.026 1.732.257.385.513.77.834 1.09.256.386.577.706.898 1.027.32.32.577.642.898.898a2.277 2.277 0 00-.577.257c-.513.32-.834.962-.77 1.54 0 .577.385 1.154.834 1.41.256.13.513.193.77.193.256 0 .449 0 .641-.064.193 0 .385-.064.578-.064-.321 1.54-.45 3.015-.514 4.49-1.54.45-2.502 1.797-2.502 3.144-1.026.064-2.116.192-3.143.449 2.566.513 5.581.642 8.147.642s5.581-.129 8.147-.642c-1.026-.192-2.117-.32-3.143-.45 0-1.41-1.026-2.758-2.63-3.207-.064-1.475-.193-2.95-.513-4.49.192 0 .449.064.641.064.193 0 .385.064.642.064.256 0 .513-.064.77-.192.513-.257.833-.834.833-1.412.065-.577-.256-1.219-.77-1.54-.192-.128-.384-.192-.64-.256 1.603-1.604 2.63-2.887 3.656-4.875.256.641.705 1.09 1.219 1.475.641.45 1.347.706 2.052.962-.641-.384-1.347-.705-1.86-1.218-1.475-1.348-.962-2.951-.192-3.272.577-.257 1.283-.257 2.117-.513 3.143-.834 5.517-3.914 5.517-7.25 0-.833-.193-1.667-.514-2.437-.256-.706-.834-1.476-1.475-1.925zM5.928 11.574c-2.63-.962-4.62-3.592-4.555-6.286 0-1.347.513-2.695 1.54-3.464.513-.385 1.09-.642 1.732-.642.577 0 1.218.193 1.732.577.449.385.77.899.834 1.54l-.193.962a1.99 1.99 0 01-.577.706c-.45.385-1.283.513-1.796.128-.578-.32-.642-1.347.128-1.732-.834.193-1.09 1.412-.385 2.053.641.577 1.668.577 2.374.128l.064-.064c0 .385-.064.834-.064 1.219 0 1.796.256 3.657.77 5.389-.514-.321-1.155-.321-1.604-.513zm14.883 19.31c-.257 0-.45-.064-.706-.064-1.347-.128-2.694-.128-4.106-.128-2.438 0-3.464.064-4.811.192.706-1.411 1.989-2.117 3.143-2.053 1.476.064 1.989.064 3.272 0 1.155-.064 2.502.642 3.208 2.053zm-1.027-9.11c0 .257-.064.514-.32.706l-.386.193c-.128 0-.384.064-.577.064-.834.064-1.668.192-2.502.32.578.129 1.155.193 1.796.257-.192.77-.256 1.604-.384 2.374-.065.641-.129 1.347-.129 1.988h-2.566c-.064-.641-.064-1.347-.128-1.988a15.254 15.254 0 00-.385-2.374 18.495 18.495 0 001.86-.256c-.833-.129-1.667-.257-2.501-.321-.193 0-.45 0-.578-.064-.128 0-.256-.064-.385-.193-.192-.192-.32-.449-.32-.706 0-.256.192-.448.384-.577.129-.064.193-.064.321-.064h6.159c.128 0 .192 0 .32.064.129.064.257.32.321.578zm6.287-10.2c-.513.193-1.155.257-1.86.514 0-.064 0-.064.064-.129.641-2.18.834-4.49.641-6.735.129.064.193.192.321.256.706.45 1.732.513 2.374-.128.705-.577.449-1.796-.385-1.989.705.32.641 1.412.128 1.732-.513.385-1.347.257-1.796-.128-.513-.385-.77-1.09-.77-1.668 0-.641.32-1.219.834-1.604a2.953 2.953 0 011.732-.577c.642 0 1.219.257 1.732.641 1.027.77 1.54 2.117 1.54 3.465.064 2.758-1.925 5.388-4.555 6.35z" fill="#113975"/><path d="M10.996 9.2c0 1.284.513 2.567 1.476 3.465.898.898 2.245 1.411 3.464 1.347 1.283-.064 2.502-.641 3.271-1.54.77-.898 1.22-2.116 1.027-3.271-.129 1.155-.706 2.181-1.476 2.822-.77.706-1.86 1.027-2.822.963-1.027-.064-1.989-.45-2.63-1.22-.706-.705-1.091-1.667-1.027-2.63 0-.962.385-1.924 1.027-2.63.641-.705 1.603-1.154 2.63-1.218 1.026-.065 2.052.32 2.822.962.834.706 1.348 1.732 1.476 2.823.128-1.155-.257-2.374-1.027-3.272-.77-.898-1.988-1.476-3.271-1.54a4.638 4.638 0 00-3.464 1.347c-.899 1.027-1.476 2.31-1.476 3.593z" fill="#113975"/></svg>