<svg width="34" height="34" fill="none" xmlns="http://www.w3.org/2000/svg"><path d="M3.028 32.783c1.783-.924 4.028-3.698 6.472-3.698 2.377 0 4.688 2.774 6.471 3.698 1.189.529 2.047.133 2.444-.792.132-.396.264-.726.33-1.057 1.056-.726 2.047-1.518 3.236-1.915 1.254-.462 2.51-.396 4.226.727.66.396 1.255.924 1.85 1.453.594.528 1.188 1.056 1.914 1.518.198.133.396.199.66.265.265.066.595.066.925-.066.33-.133.528-.397.66-.595.133-.198.265-.462.33-.66.265-.859.33-1.651.397-2.444.198-3.235 0-6.405-.528-9.575a28.688 28.688 0 00-1.19-4.689 21.786 21.786 0 00-2.046-4.358c0-.463.066-.859 0-1.321-.066-1.849-.462-3.698-1.387-5.349-.925-1.651-2.443-3.104-4.293-2.972 1.784.198 3.038 1.585 3.765 3.302.726 1.585.924 3.368.924 5.085 0 .396-.066.793-.132 1.189-.066.066-.066.132-.132.264-.198 1.981-.924 4.094-2.443 5.349-1.255 1.057-2.774 1.057-4.029 0-1.783-1.585-2.51-4.425-2.641-6.868 0-1.717.198-3.5.924-5.085a7.625 7.625 0 011.387-2.18c.595-.593 1.387-1.056 2.311-1.122-.924-.066-1.849.264-2.575.859a7.793 7.793 0 00-1.783 2.113c-.924 1.65-1.32 3.5-1.387 5.349 0 .66 0 1.387.132 2.047-.594 1.057-.99 2.245-1.32 3.368-.463-1.123-.925-2.18-1.585-3.17.132-.726.132-1.519.132-2.245-.066-1.85-.463-3.698-1.387-5.35C12.867 2.275 11.349.822 9.5.954c1.783.198 3.037 1.585 3.764 3.302.726 1.585.924 3.368.924 5.085-.066 1.717-.396 3.434-1.189 4.953-.726 1.387-1.849 2.707-3.433 2.774-1.585 0-2.708-1.321-3.434-2.774-.925-1.585-1.19-3.302-1.321-5.019 0-1.717.198-3.5.924-5.085C6.462 2.54 7.65 1.085 9.433.887c-.924-.066-1.849.264-2.575.859a7.792 7.792 0 00-1.783 2.113C4.283 5.576 3.886 7.425 3.82 9.274c0 .726 0 1.519.132 2.245-1.254 1.981-2.047 4.227-2.641 6.472-.66 2.576-.99 5.217-1.123 7.858a40.973 40.973 0 000 4.029c.198 2.18.727 3.896 2.84 2.905zm14.99-20.934c.33 1.916 1.123 3.897 2.642 5.218 1.783 1.584 4.028 1.518 5.745 0 1.32-1.19 2.047-2.774 2.444-4.491 1.056 2.245 1.783 4.689 2.245 7.198.264 1.519.462 3.038.594 4.623.132 1.519.132 3.103.066 4.622-.066.793-.132 1.52-.33 2.18a1.277 1.277 0 01-.33.594c.066-.859 0-1.651-.198-2.51a21.853 21.853 0 00-.793-2.773c-.396-.859-.792-1.717-1.387-2.51-.528-.792-1.188-1.518-1.915-2.179l1.255 2.51c.396.858.793 1.65 1.123 2.51l.99 2.575.793 2.377c-.132 0-.33 0-.595-.198-.594-.33-1.254-.859-1.849-1.321-.66-.462-1.254-.99-1.98-1.387-1.586-.924-3.038-1.255-4.756-.462-1.188.528-2.113 1.32-3.037 2.18.066-.331.066-.595.132-.925.264-2.84-.066-7.727-1.123-11.821-.33-1.123-.66-2.245-1.056-3.302.33-.792.726-1.783 1.32-2.707zM1.905 18.19c.396-2.245 1.057-4.424 2.047-6.472.198 1.057.463 2.048.925 3.038.924 1.915 2.51 3.5 4.556 3.5 1.651 0 3.434-1.056 4.557-3.5.462-.99.726-2.047.925-3.038.99 2.048 1.65 4.293 2.047 6.472.792 3.83.924 8.585.594 11.557-.066.594-.198 1.254-.396 1.717-.066.132-.132.198-.132.264 0-.793-.066-1.585-.198-2.378-.33-1.782-1.123-3.764-2.18-5.282-.462-.793-1.122-1.52-1.849-2.18l1.255 2.51c.99 2.047 1.387 3.17 2.113 5.15l.727 2.246c-.066 0-.264-.066-.463-.132-1.65-.859-3.962-3.83-7-3.896-3.037.066-5.349 3.037-7 3.896-.198.132-.33.132-.462.132l.727-2.245c.33-.859.594-1.717.99-2.576.33-.858.727-1.717 1.123-2.51l1.255-2.509c-.727.595-1.387 1.387-1.916 2.18a18.54 18.54 0 00-1.386 2.509c-.33.925-.66 1.849-.793 2.774a14.438 14.438 0 00-.198 2.377c-.066-.066-.132-.132-.132-.264-.198-.462-.33-1.123-.396-1.717-.132-1.255-.132-2.576-.132-3.83.066-2.642.264-5.283.792-7.793z" fill="#113975"/></svg>