<svg width="31" height="30" fill="none" xmlns="http://www.w3.org/2000/svg"><path fill-rule="evenodd" clip-rule="evenodd" d="M21.55 15.613c1.267-.178 2.015-.697 2.193-1.356.185-.9.312-1.81.38-2.725.14-1.559.228-3.308.228-4.005a18.563 18.563 0 00-.216-3.625 4.537 4.537 0 00-1.166-2.42 2.281 2.281 0 00-1.051-.495 13.181 13.181 0 00-2.104-.202A60.834 60.834 0 009.358.505c-2.053.216-3.713.749-4.372 1.674a.418.418 0 00.232.642.393.393 0 00.427-.16c.583-.786 2.053-1.103 3.802-1.268A59.02 59.02 0 0119.7 1.9c.443 0 1.102 0 1.698.152.267.02.522.117.735.279.43.504.695 1.128.76 1.787.156 1.12.202 2.254.14 3.384 0 .684-.127 2.37-.279 3.89-.062.852-.18 1.7-.355 2.535 0 .127-.215.14-.405.203a6.337 6.337 0 01-1.547.228c-2.078.114-4.828-.177-6.095-.101a1.76 1.76 0 00-1.09.342 16.26 16.26 0 00-1.864 2.99c-.088.128-.202.267-.316.406-.368-.937-.875-2.534-1.154-3.282a.685.685 0 00-.62-.38H8.04a6.135 6.135 0 01-1.343-.254 2.535 2.535 0 01-1.065-.608 1.673 1.673 0 01-.367-.85 8.148 8.148 0 01-.039-1.71c0-1.267.077-2.459.178-3.688.101-1.23.228-2.433.367-3.7a.368.368 0 00-.316-.406.355.355 0 00-.393.316 135.18 135.18 0 00-.47 3.714 55.035 55.035 0 00-.265 3.713 9.1 9.1 0 000 1.927c.062.494.264.96.583 1.343.34.348.75.62 1.204.798a6.9 6.9 0 001.875.47h1.04c.33 1.013.836 2.712 1.127 3.46a1.8 1.8 0 00.343.57.608.608 0 00.836 0 5.385 5.385 0 001.166-1.192c.458-.91.992-1.779 1.597-2.598.377-.057.76-.078 1.14-.063 2.1.177 4.21.19 6.312.038z" fill="#113975"/><path fill-rule="evenodd" clip-rule="evenodd" d="M12.957 19.739a.408.408 0 00-.089.57 4.715 4.715 0 01.317 3.346 4.245 4.245 0 01-1.787 2.737 7.518 7.518 0 01-5.97.9 5.45 5.45 0 01-4.004-4.106 5.222 5.222 0 01.722-3.726 5.209 5.209 0 012.928-2.535.368.368 0 00.291-.418.355.355 0 00-.418-.317 5.982 5.982 0 00-3.612 2.763 6.26 6.26 0 00-1.103 4.486 6.578 6.578 0 004.83 5.184 8.618 8.618 0 006.97-1.268 5.272 5.272 0 002.065-3.56 5.665 5.665 0 00-.62-4.018.405.405 0 00-.52-.038zm16.438-.299a6.235 6.235 0 00-6.235-2.535.418.418 0 00-.284.632.406.406 0 00.423.179 5.298 5.298 0 015.221 2.281 4.842 4.842 0 010 5.513 9.941 9.941 0 01-.633.811 4.019 4.019 0 01-.723.672c-.32.23-.66.433-1.014.608a5.71 5.71 0 01-1.115.355 6.425 6.425 0 01-3.802-.494 5.728 5.728 0 01-2.864-2.535 5.07 5.07 0 01.14-4.195 5.07 5.07 0 013.155-2.89.368.368 0 00.279-.43.368.368 0 00-.431-.279 5.88 5.88 0 00-3.802 3.194 6.07 6.07 0 00-.355 5.07 6.831 6.831 0 003.358 3.282 7.605 7.605 0 004.677.633 6.8 6.8 0 001.381-.443c.45-.206.875-.46 1.268-.76.338-.259.648-.552.925-.875a7.8 7.8 0 00.71-.989 5.968 5.968 0 00-.28-6.805z" fill="#113975"/><path fill-rule="evenodd" clip-rule="evenodd" d="M6.633 20.991a2.687 2.687 0 00-.317-.456 1.736 1.736 0 00-1.825-.532 1.649 1.649 0 00-.52.253c-.476.428-.83.975-1.026 1.584a.368.368 0 00.14.508.355.355 0 00.481-.153c.256-.3.565-.549.912-.735.131-.097.283-.163.444-.19a.698.698 0 01.583.152c.106.059.2.136.279.228.165.216.304.457.481.66a.411.411 0 00.685-.457c-.127-.279-.19-.583-.317-.862zm16.337-.005a2.606 2.606 0 00-.303-.456 1.75 1.75 0 00-1.788-.532 1.803 1.803 0 00-.52.253c-.475.428-.83.975-1.026 1.584a.366.366 0 00.14.507.38.38 0 00.494-.152 2.94 2.94 0 01.9-.735c.134-.1.29-.165.456-.19a.685.685 0 01.57.152 1 1 0 01.28.228c.153.228.318.448.494.66a.391.391 0 00.557.113.405.405 0 00.114-.57c-.127-.279-.19-.583-.367-.862zM8.28 22.291c.257-.261.552-.483.874-.659a2.82 2.82 0 01.507-.203c.14 0 .266-.114.38 0 .09.05.168.12.229.203.139.24.228.507.342.748a.406.406 0 00.52.266.393.393 0 00.265-.507 6.159 6.159 0 00-.177-1.077 1.852 1.852 0 00-.317-.545 1.546 1.546 0 00-1.876-.304c-.21.11-.398.255-.557.43-.357.36-.634.793-.811 1.268a.368.368 0 00.152.494.342.342 0 00.469-.114zm16.388.006a3.8 3.8 0 01.887-.659 2.38 2.38 0 01.494-.203c.14 0 .266-.114.38 0a.645.645 0 01.24.203c.14.241.216.507.33.748a.406.406 0 00.52.266.393.393 0 00.266-.507 6.159 6.159 0 00-.177-1.077 1.61 1.61 0 00-.317-.545 1.534 1.534 0 00-1.876-.291c-.216.105-.41.252-.57.43a3.803 3.803 0 00-.811 1.268.368.368 0 00.152.494.343.343 0 00.482-.127zm-17.896 2.83a2.357 2.357 0 01-1.077-.456.367.367 0 10-.57.443 2.7 2.7 0 001.19 1.267c.243.13.512.2.786.203.192.004.384-.017.57-.063a2.75 2.75 0 001.534-1.267.418.418 0 000-.583.405.405 0 00-.57 0 1.862 1.862 0 01-1.432.469l-.431-.013zm16.388 0a2.534 2.534 0 01-1.078-.456.368.368 0 10-.57.443 2.7 2.7 0 001.191 1.267c.246.131.52.2.798.203.188.004.376-.017.558-.063a2.75 2.75 0 001.534-1.267.43.43 0 000-.583.418.418 0 00-.584 0 1.85 1.85 0 01-1.419.469l-.43-.013z" fill="#113975"/><path d="M12.972 10.849c.17.152.456.492.734.707.18.16.405.262.644.295.32.011.634-.083.894-.269a6.94 6.94 0 001.128-1.082 10.24 10.24 0 001.476-1.79 3.651 3.651 0 00.527-1.592 1.889 1.889 0 00-.67-1.637 1.735 1.735 0 00-1.79-.26c-.263.101-.506.25-.715.44-.21.192-.408.398-.59.616a2.911 2.911 0 00-.323-.492 2.075 2.075 0 00-.555-.492 1.503 1.503 0 00-1.404 0c-.616.3-1.089.83-1.315 1.476a2.684 2.684 0 00.17 2.013 7.964 7.964 0 001.789 2.067zm-1.145-3.936a1.79 1.79 0 01.653-.949.895.895 0 01.984-.16c.154.083.294.192.412.321.19.222.356.465.492.725a.269.269 0 00.366.116.295.295 0 00.152-.09 7.33 7.33 0 01.752-.733 1.61 1.61 0 01.528-.295 1.01 1.01 0 011.01.197 1.083 1.083 0 01.34.966 2.983 2.983 0 01-.473 1.208 9.945 9.945 0 01-1.414 1.592c-.17.179-.42.465-.698.716-.277.25-.313.322-.474.322l-.778-.734a7.158 7.158 0 01-1.61-1.789 1.87 1.87 0 01-.242-1.387v-.026z" fill="#113975"/></svg>