<svg width="507" height="533" fill="none" xmlns="http://www.w3.org/2000/svg"><path d="M277.5 50S114.448 158.734 103.362 168.446c-14.689 12.869-29.977 26.523-41.996 41.997-7.07 9.102-14.475 21.653-9.582 33.462 6.165 14.881 28.404 16.826 41.921 18.191 37.446 3.78 76.247-.31 113.113-6.962 37.143-6.702 73.301-17.738 109.669-27.623 20.775-5.647 42.059-12.564 63.481-15.347 14.747-1.915 12.138 18.578 10.481 28.821-2.903 17.944-14.136 31.095-27.698 42.446-21.618 18.091-45.458 33.016-65.877 52.626-19.925 19.135-49.034 45.192-40.374 88.443 11.984 59.852 99.584 43.566 136.494 48.475 44.233 5.884 88.524 8.938 133.1 9.657" stroke="#fff" stroke-width="100" stroke-linecap="round"/></svg>