<svg width="19" height="33" fill="none" xmlns="http://www.w3.org/2000/svg"><path d="M.265 9.886c1.466 1.212 2.917 2.442 4.396 3.639l3.17 2.583c-1.698.342-3.294 1.185-4.498 2.424C1.735 20.166.816 22.446.886 24.708a8.403 8.403 0 002.658 5.962c1.627 1.49 3.829 2.305 5.958 2.145-2.12-.145-4.132-1.078-5.494-2.608a7.854 7.854 0 01-2.077-5.498c.057-1.986.883-3.92 2.3-5.28 1.396-1.373 3.327-2.167 5.278-2.146a7.495 7.495 0 015.276 2.154c1.417 1.36 2.238 3.295 2.294 5.28.051 1.985-.69 4-2.082 5.494-1.364 1.528-3.376 2.458-5.495 2.605 2.128.16 4.331-.651 5.961-2.139a8.397 8.397 0 002.666-5.96c.072-2.263-.846-4.543-2.442-6.18-1.207-1.24-2.806-2.087-4.507-2.429l3.169-2.587 4.407-3.66a.548.548 0 00.196-.432l-.088-4.2-.054-2.099-.032-1.05c-.01-.184.002-.321-.031-.576A1.55 1.55 0 0017.36.2c-.425-.007-.721.023-1.088.033-2.716.114-4.404.175-6.299.292 1.208.074 2.415.125 3.623.175-.25 1.004-.389 2.007-.482 3.01a34.054 34.054 0 00-.002 6.373c.077.828.185 1.657.361 2.486L9.507 15.75 5.54 12.563c.36-1.708.51-3.935.508-5.666a33.596 33.596 0 00-.147-3.186c-.092-.99-.23-1.978-.474-2.967C6.931.68 8.391.624 9.973.524 8.399.428 7.213.38 3.323.218L2.217.175c-.196 0-.338-.024-.604 0-.24.027-.476.11-.68.245A1.6 1.6 0 00.22 1.656L.183 2.78.132 4.997.047 9.429a.568.568 0 00.204.446l.014.01zM14.172.728l2.1.088c.333.017.738.023 1.012.05.248.04.471.192.594.403.134.22.117.415.102.811l-.032 1.05-.054 2.1-.082 3.917-3.95 3.115c.312-1.627.453-3.71.447-5.365a34.135 34.135 0 00-.15-3.186c-.093-1.003-.231-2.005-.48-3.007l.493.024zM1.368 1.05c.207-.166.433-.171.848-.177L3.324.832l2-.084c-.244.988-.381 1.975-.473 2.963a34.054 34.054 0 00.002 6.372 22.9 22.9 0 00.298 2.17c-1.304-1.047-2.624-2.075-3.936-3.113l-.08-4.143-.05-2.217-.032-1.092a.79.79 0 01.315-.637z" fill="#113975"/><path d="M9.506 20.493c-1.108.04-2.16.57-2.845 1.373-.684.806-1.003 1.875-.85 2.846.148-.967.624-1.82 1.315-2.381.68-.573 1.55-.84 2.38-.792 1.685.073 3.072 1.565 3.022 3.173.048 1.608-1.338 3.1-3.022 3.172a3.414 3.414 0 01-2.38-.791c-.69-.56-1.166-1.414-1.314-2.38-.155.97.164 2.04.848 2.846a3.981 3.981 0 002.846 1.375c1.108.067 2.242-.38 3.063-1.158a4.325 4.325 0 001.304-3.064c-.008-1.141-.484-2.279-1.305-3.062-.82-.779-1.954-1.224-3.062-1.157z" fill="#113975"/></svg>