<svg width="28" height="28" fill="none" xmlns="http://www.w3.org/2000/svg"><path d="M11.248 3.008a6.847 6.847 0 012.474-.562c.36 0 .73 0 1.124-.056.394-.057.731 0 1.124 0a5.487 5.487 0 012.463.438.327.327 0 00.514-.325.337.337 0 00-.132-.215 5.622 5.622 0 00-2.732-1.124 7.601 7.601 0 00-1.304-.056c-.415.02-.829.069-1.237.146a6.994 6.994 0 00-2.687 1.124.382.382 0 00-.124.529.382.382 0 00.517.1zm16.394 9.49a.382.382 0 00-.427-.338.394.394 0 00-.326.428c.067.562.1 1.124.112 1.675.012.56-.01 1.119-.067 1.675a11.537 11.537 0 01-.731 3.058 13.76 13.76 0 01-1.462 2.8 10.67 10.67 0 01-5.026 3.845 14.145 14.145 0 01-6.34.933A13.496 13.496 0 019.9 25.8a10.278 10.278 0 01-3.126-1.732 12.008 12.008 0 01-3.53-5.104 14.223 14.223 0 01-.81-6.274.329.329 0 00-.652-.079 14.706 14.706 0 00.63 6.645 13.065 13.065 0 003.631 5.678 11.27 11.27 0 003.373 2.035c1.236.488 2.534.798 3.857.922 2.36.17 4.73-.215 6.915-1.125a11.682 11.682 0 005.453-4.396 15.001 15.001 0 001.484-3.047c.382-1.068.616-2.184.697-3.316V14.24c0-.64-.101-1.169-.18-1.742z" fill="#113975"/><path d="M22.401 16.646a6.085 6.085 0 00-1.124 0c-1.552 0-4.891.203-7.87.371-2.98.169-6.016.506-6.016.506a.832.832 0 00-.337.63 4.835 4.835 0 00.281 1.776 7.702 7.702 0 001.585 2.856 7.97 7.97 0 005.858 2.474 8.995 8.995 0 005.892-2.519 7.927 7.927 0 002.125-3.699 3.587 3.587 0 00.056-1.889.765.765 0 00-.45-.506zm-1.383 3.497a6.083 6.083 0 01-1.214 1.642 7.871 7.871 0 01-5.048 2.305 6.94 6.94 0 01-5.172-2.002 6.194 6.194 0 01-1.282-2.001 6.083 6.083 0 01-.461-1.597v-.416a40.797 40.797 0 014.194-.157 495.02 495.02 0 019.174-.079h.563a5.767 5.767 0 01-.754 2.305zm-15.942-9.59a23.303 23.303 0 011.63 3.17 1 1 0 00.911.574 1.124 1.124 0 00.742-.686 29.414 29.414 0 011.54-3.508c.608-.798 2.53-1.417 3.216-1.9a.966.966 0 00.506-.832 1.124 1.124 0 00-.55-.72 34.52 34.52 0 01-3.633-1.63c-.944-.742-1.63-2.867-2.203-3.598a.922.922 0 00-.709-.416c-.28 0-.584.337-.775.922a28.413 28.413 0 01-.934 3.373c-.45.91-2.54 1.81-3.316 2.35a1 1 0 00-.518.888 1.012 1.012 0 00.675.641c.776.349 2.732.72 3.418 1.372zm-.573-3.677a3.54 3.54 0 001.124-1.237c.12-.291.219-.592.292-.9.236-.944.36-2.057.585-2.709l.022-.191c0 .056.135.101.18.18.349.562.72 1.574 1.192 2.428a4.4 4.4 0 00.967 1.293c.382.313.801.578 1.248.788.686.314 1.462.607 2.001.877l.135.078h-.123c-.551.27-1.316.574-1.968.933-.469.228-.89.545-1.237.934a16.642 16.642 0 00-1.439 3.125 13.57 13.57 0 00-1.54-2.81 3.957 3.957 0 00-1.36-.754c-.698-.247-1.507-.438-2.103-.607.495-.394 1.349-.9 2.024-1.428zm10.907.214a.9.9 0 00.494.82c.663.472 2.53 1.068 3.114 1.844a26.864 26.864 0 011.473 3.373 1.124 1.124 0 00.742.663.99.99 0 00.911-.562 21.84 21.84 0 011.574-3.07c.664-.674 2.564-1 3.306-1.315.438-.19.63-.45.663-.63a.978.978 0 00-.506-.888c-.742-.528-2.777-1.405-3.204-2.248a28.333 28.333 0 01-.91-3.227c-.192-.574-.484-.888-.8-.945a.877.877 0 00-.707.405c-.563.709-1.226 2.766-2.148 3.486a34.856 34.856 0 01-3.508 1.585 1.011 1.011 0 00-.495.708zm1.472 0c.529-.26 1.27-.54 1.934-.855a6.081 6.081 0 001.203-.72c.391-.354.718-.772.967-1.237.439-.82.81-1.798 1.124-2.35 0-.078.124-.123.17-.18a.669.669 0 000 .18c.201.63.336 1.72.561 2.643.07.296.164.585.281.866.25.48.613.892 1.057 1.203.641.517 1.45 1 1.99 1.36-.562.169-1.371.337-2.069.585-.486.157-.937.41-1.326.742a13.299 13.299 0 00-1.484 2.698 16.027 16.027 0 00-1.27-3.024 3.924 3.924 0 00-1.204-.911c-.64-.349-1.383-.64-1.911-.9h-.09l.067-.1z" fill="#113975"/></svg>