<svg width="30" height="29" fill="none" xmlns="http://www.w3.org/2000/svg"><path d="M28.826 13.163a5.45 5.45 0 00-1.25-.287c-1-.125-2.075 0-2.5-.088v-.087a24.412 24.412 0 00-1.325-2.875 13.749 13.749 0 00-1.25-1.7c.84.217 1.722.217 2.562 0a3.812 3.812 0 001.663-1.013 3.487 3.487 0 00.775-3.312A5.212 5.212 0 0025.838.95a3.662 3.662 0 00-1.387-.625 5.463 5.463 0 00-2.113 0A4.225 4.225 0 0019.751 2c-.61.83-.88 1.864-.75 2.887.01.07.03.138.062.2-.44-.226-.895-.422-1.362-.587a8.862 8.862 0 00-2.938-.55 8.388 8.388 0 00-2.95.55 15.963 15.963 0 00-3.5 2.012 4.412 4.412 0 00-1.775 2.25 1.825 1.825 0 00.713 1.738 2.5 2.5 0 002.5.1c.65-.275 2.562-1.65 3.412-2.138h.075c.338.1.838.225 1.25.325l-.875.825-.85.85c-.554.46-1.06.976-1.512 1.538a3.962 3.962 0 00-.738 1.512 5.15 5.15 0 00.113 3.025 5.35 5.35 0 001.875 2.425c.539.428 1.052.888 1.537 1.375a5 5 0 011.138 1.25c.093.541.135 1.09.125 1.638.005.877-.041 1.753-.138 2.625a2.313 2.313 0 001.088 2.637 2.637 2.637 0 002.912-.35 12.348 12.348 0 001.25-4.15c.323-1.414.386-2.875.188-4.312a25.713 25.713 0 00-2.8-3.838 53.74 53.74 0 011.962-2.162c.163.287.35.612.55.925a8.612 8.612 0 001.25 1.562 5 5 0 002.875 1.15 8.674 8.674 0 004.363-.637 1.875 1.875 0 001.2-1.763 1.925 1.925 0 00-1.175-1.75zM20.838 2.851a2.9 2.9 0 011.663-1.075 4.612 4.612 0 011.25-.063c.39.028.767.162 1.087.388a3.838 3.838 0 011.25 2.012 2.35 2.35 0 01-.225 2.2 2.95 2.95 0 01-1.25.85 3.5 3.5 0 01-4.625-2.362 2.85 2.85 0 01.85-1.95zm7.575 12.9a7.5 7.5 0 01-3.137.537 4.35 4.35 0 01-2.775-.975 8.2 8.2 0 01-1.038-1.362 10.603 10.603 0 01-.812-1.525.612.612 0 00-.975-.275 2.7 2.7 0 00-.363.325c-.712.687-2.362 2.5-2.675 2.875a.725.725 0 00-.137.487c.049.268.16.52.325.738a24.598 24.598 0 012.587 3.525 10.94 10.94 0 01-.275 3.637 11.161 11.161 0 01-1.012 3.475c-.075.088-.263.1-.438.113a.936.936 0 01-1.087-1.25c.087-.94.116-1.883.087-2.825a9.508 9.508 0 00-.162-1.975 3.939 3.939 0 00-.913-1.363 21.266 21.266 0 00-2.3-2.137 3.862 3.862 0 01-1.387-1.75 3.75 3.75 0 01-.088-2.213c.09-.364.257-.705.488-1a9.064 9.064 0 011.425-1.362l.837-.875 1.25-1.25c.164-.204.303-.426.413-.663a.675.675 0 00-.15-.725 8.4 8.4 0 00-2.625-.725C12.5 7.001 10.563 9.001 9.3 9.501c-.381.212-.83.266-1.25.15a.713.713 0 01-.488-.725 3.475 3.475 0 011.375-1.663 15.149 15.149 0 013.2-1.925c.836-.33 1.727-.5 2.625-.5.903-.008 1.8.145 2.65.45 3.563 1.25 5.35 4.238 6.7 7.7.077.243.22.46.413.625.262.138 1.637.088 2.9.263.35.042.693.122 1.025.237a.888.888 0 01.5.813.824.824 0 01-.538.825z" fill="#113975"/><path d="M10 18.939a4.904 4.904 0 01-1.25.8 4.163 4.163 0 01-1.325.375c-.76-.03-1.5-.24-2.163-.613a15.45 15.45 0 01-3.112-2.125 2.5 2.5 0 01-.625-.95.975.975 0 010-.85 1.025 1.025 0 011.05-.45c.574.085 1.129.27 1.637.55.554.347 1.13.656 1.725.925a1.4 1.4 0 00.8.1c.209-.087.41-.192.6-.312.538-.35 1.25-.925 1.85-1.25a.388.388 0 10-.35-.638 14.91 14.91 0 00-1.687 1c-.813.638-.888.1-2.288-.8a5.187 5.187 0 00-2.575-.9 2.225 2.225 0 00-1.925 1.05A2.262 2.262 0 000 16.501a3.75 3.75 0 001.25 1.95 16.166 16.166 0 003.55 2.113 5.838 5.838 0 002.85.612 5.189 5.189 0 001.637-.587 6.03 6.03 0 001.35-1.025.44.44 0 00.06-.658.44.44 0 00-.66.033H10z" fill="#113975"/></svg>