<svg width="28" height="26" fill="none" xmlns="http://www.w3.org/2000/svg"><path d="M14.105 14.693a.76.76 0 00.694-.671c.092-2.61.051-5.223-.123-7.828-.135-.29 0-.29-.403-.537-.805-.503-6.24-2.192-6.877-1.51-.56 1.443-.314 7.571-.235 7.828.29.928 5.736 2.919 6.944 2.718zm-6.217-9.93h.391c1.828.36 3.615.903 5.334 1.621 0 .268.28.134 0 7.045a22.208 22.208 0 01-5.524-1.901c-.011-.067-.268-3.701-.201-6.765zm11.508-.503c0 .09.503 6.308.447 6.71 0 0-1.834 1.197-2.158 1.365-.928.503-2.046.984-2.449 1.118-.224.268-.257.783.324.626a22.053 22.053 0 004.764-2.158c.552.107 1.097.246 1.633.414 1.98.514 2.896.324 3.131.503.335.369 1.633-.391-1.364-1.364a8.946 8.946 0 00-2.774-.347 35.233 35.233 0 00-.48-7.37.805.805 0 00-.929-.66A15.456 15.456 0 0015.068 5.1c-.268.313-.223.715.157.749a18.305 18.305 0 014.171-1.588zM4.901 13.533a8.025 8.025 0 001.823-.973.335.335 0 00-.134-.649c-2.237 0-3.724 1.432-3.455 1.913.268.48.961-.011 1.766-.291z" fill="#113975"/><path d="M9.287 3.616c.772-.369 4.16-1.476 4.25-1.498 1.587.092 3.165.31 4.719.648a.324.324 0 10.47-.447 13.263 13.263 0 00-5.48-1.42 22.6 22.6 0 00-3.914 1.744c-.436.235-1.185.615-1.006 1.118.179.504.816-.078.961-.145zm12.368 19.986a62.392 62.392 0 00-.167-7.414c0-.302 0-.302-.403-.525-.816-.425-6.307-1.42-6.933-.739-.067.157-.201-.257-.268 2.237-.09 3.433 0 4.618.413 5.233.817.694 5.357 2.617 6.62 2.315.325-.056.772-.01.738-1.107zm-1.252-.123a23.269 23.269 0 01-4.63-1.442 7.495 7.495 0 01-.816-.313 44.278 44.278 0 01-.313-6.207c.1-.402 5.233.705 5.792 1.029.157 1.085-.01 6.52-.033 6.933zm-8.097-.963a24.11 24.11 0 00-1.521.76c-.738.392-.828.448-1.118.57-.593.381-.895.985 0 .985a11.183 11.183 0 003.712-1.666c.705-.794.548-1.443 0-1.119l-1.073.47zm-3.467 1.218c.033-1.689-.068-6.162-.068-6.766a1.04 1.04 0 00-.838-.816c-.872-.145-5.871-2.002-6.576-1.275l-.156.459c-.47.48-.179 7.011-.067 7.358.246.794 4.014 2.08 4.808 2.326a6.644 6.644 0 002.237.268.648.648 0 00.592-.526c0-.234.068-1.028.068-1.028zm-1.275.413a23.365 23.365 0 01-4.63-1.476c-.414-.179-.995-.302-.872-.436a2.057 2.057 0 000-.413s-.604-6.486.19-6.363a27.96 27.96 0 015.334 1.643c0 .269.269.157-.022 7.046zm5.221-8.678a.373.373 0 10-.28-.694c-.953.181-1.89.431-2.807.75a3.733 3.733 0 00-.715.47c-.37.458-.146.558.514.659a7.27 7.27 0 003.288-1.185z" fill="#113975"/><path d="M27.29 13.834a.805.805 0 00-.916-.671 17.552 17.552 0 00-4.697 2.18c-.47.302-.19.906.38.615a20.129 20.129 0 014.16-1.621c0 .626.067-.146.291 4.182.157 2.908.224 2.393-.067 2.628a19.241 19.241 0 01-4.07 2.236c-.616.448-.705.962 0 .895 1.934-.772 5.155-2.236 5.378-2.93a34.466 34.466 0 00-.458-7.514z" fill="#113975"/></svg>