<svg width="23" height="34" fill="none" xmlns="http://www.w3.org/2000/svg"><path fill-rule="evenodd" clip-rule="evenodd" d="M14.704 13.998a.382.382 0 000 .212.597.597 0 000 .213c.369.807.553.906.808.864.255-.043.283 0 .595-.935a.395.395 0 000-.184.495.495 0 000-.199s-.44-.864-.75-.835c-.313.028-.652.85-.652.864zm-7.337-.483c-.298 0-.68.864-.695.878a.553.553 0 000 .213.822.822 0 000 .198c.44.864.652.85.836.822.184-.029.595-1.105.595-1.12a.397.397 0 000-.184c-.453-.906-.722-.807-.736-.807zm1.798 6.319l1.715 1.728s.368.425.538.553a.807.807 0 00.723.184c.335-.097.622-.314.807-.61.234-.424.415-.876.538-1.345l.34-1.048a.439.439 0 00-.226-.581.426.426 0 00-.581.212l-.567.935c-.113.199-.269.496-.453.765l-.1-.17a6.814 6.814 0 00-.764-.538c-.581-.354-.921-.41-1.516-.737 0 0-.397 0-.553.142a.368.368 0 00.1.51z" fill="#113975"/><path fill-rule="evenodd" clip-rule="evenodd" d="M22.51 17.992a5.213 5.213 0 00-2.48-2.677c-.623-.27-.807.312-.594.68a5.978 5.978 0 012.125 4.363 4.35 4.35 0 01-.298 1.785 4.788 4.788 0 01-.963 1.502 9.94 9.94 0 01-1.417 1.247v-.51a5.752 5.752 0 00-.226-1.644 7.89 7.89 0 00-.595-1.487.468.468 0 00-.595-.199.454.454 0 00-.213.596c.208.428.365.88.468 1.345.106.465.145.942.113 1.417-.032.49-.152.97-.354 1.417-.208.459-.47.891-.78 1.289a6.092 6.092 0 01-3.116 2.21 7.198 7.198 0 01-3.867 0 7.655 7.655 0 01-1.615-.595 4.165 4.165 0 01-1.304-.964 4.25 4.25 0 01-.935-1.799 6.815 6.815 0 01-.184-2.139c.028-.477.094-.95.198-1.416a4.35 4.35 0 01.454-1.276.396.396 0 10-.666-.41 4.844 4.844 0 00-.553 1.119 9.915 9.915 0 00-.41 1.785 7.834 7.834 0 000 2.507c.146.87.5 1.692 1.034 2.394.435.53.963.977 1.558 1.318-.212.27-.425.524-.623.807-.199.284-.227.383-.326.581a5.565 5.565 0 00-.255.61c-.198.495-.34.991-.524 1.487a.44.44 0 00.17.61.453.453 0 00.595-.17c.283-.34.552-.68.807-1.05a.88.88 0 00.156.242c.07.098.156.184.255.255.092.08.198.142.312.184.27.115.55.21.836.283a.453.453 0 00.623-.099.467.467 0 00-.113-.623c-.185-.227-.298-.454-.482-.68l-.241-.241-.297-.184a2.571 2.571 0 00-.425-.156c.07-.133.13-.27.184-.411.113-.326.184-.652.269-.978.347.138.702.256 1.062.355a8.5 8.5 0 004.675 0 6.957 6.957 0 002.678-1.686c.198.368.368.736.595 1.119a3.05 3.05 0 00-.808.652 1.884 1.884 0 00-.283.524c-.1.283-.128.567-.24.85a.453.453 0 00.722.538c.26-.19.502-.403.722-.637.093-.09.17-.196.227-.312a.993.993 0 00.156-.326 3.12 3.12 0 00.113-.496l.113.142c.354.368.709.694 1.035 1.063a.453.453 0 00.609.141.482.482 0 00.155-.623c-.19-.487-.412-.96-.665-1.417a2.832 2.832 0 00-.355-.552 2.97 2.97 0 00-.439-.496c-.353-.322-.727-.62-1.119-.893.142-.17.298-.326.44-.524a7.538 7.538 0 00.85-1.6c.07-.227.127-.454.183-.695a.425.425 0 00.581.114c.759-.4 1.46-.9 2.083-1.488.431-.416.8-.893 1.09-1.417a5.058 5.058 0 00.553-2.38 5.666 5.666 0 00-.439-2.28zM19.705 4.888a.439.439 0 10-.552-.637c-.709.51-1.417 1.02-2.14 1.516-1.076.736-2.167 1.416-3.258 2.181-.453.312-.92.652-1.417.935-.283.19-.6.325-.935.397a4.165 4.165 0 01-2.054-.468c-1.6-.524-2.734-1.119-4.335-1.572a25.53 25.53 0 01-1.926-.638 4.25 4.25 0 000-.736c1.175-.595 2.21-1.19 3.371-1.842a131.58 131.58 0 002.465-1.417l1.417-1.09a2.41 2.41 0 01.822.099c.538.156 1.076.396 1.53.566l5.539 2.338a.425.425 0 00.637-.27.412.412 0 00-.198-.58L13.288.837a15.003 15.003 0 00-1.644-.652 3.811 3.811 0 00-1.417-.17c-.253.044-.494.14-.708.283-.51.312-1.204.935-1.416 1.077-1.771 1.247-3.485 2.45-5.256 3.612a1.912 1.912 0 00-.709 1.049c-.127.666-.297 1.572-.297 1.671a4.39 4.39 0 00.085.964c.085.467.24.892.326 1.416a.468.468 0 00.439.454.453.453 0 00.453-.44c.1-.466.167-.94.199-1.416a3.965 3.965 0 000-.58v-.468c.467.212.92.425 1.416.609a.354.354 0 000 .17c0 .41-.127.765-.141 1.176a2.76 2.76 0 000 .481c.027.164.07.326.127.482.046.273.137.536.27.78.198.282.75.24.963-.34a7.255 7.255 0 000-.752v-.496c0-.17 0-.311-.114-.467a7.227 7.227 0 00-.326-.78c1.275.468 2.565.893 3.84 1.417.283.1 1.076.581 1.643.751.282.082.582.082.864 0a5.1 5.1 0 001.232-.566c.49-.335.963-.695 1.417-1.077l1.983-1.558a2.967 2.967 0 00-.084.34c-.015.16-.015.321 0 .481-.014.16-.014.322 0 .482.104.367.231.726.382 1.077a.454.454 0 00.524.368.454.454 0 00.354-.51c0-.354.114-.68.156-1.034.043-.354 0-.298 0-.454a1.63 1.63 0 000-.439 9.92 9.92 0 00-.326-1.048l.142-.156 2.04-1.686z" fill="#113975"/><path fill-rule="evenodd" clip-rule="evenodd" d="M3.91 13.757a4.037 4.037 0 00.864 3.655 4.547 4.547 0 003.358 1.77 3.6 3.6 0 003.145-2.337c.168-.404.282-.828.34-1.26a4.613 4.613 0 000 .637 3.004 3.004 0 002.068 2.082c.24.085.486.146.737.184.255.021.51.021.765 0a3.683 3.683 0 003.06-1.487 6.898 6.898 0 001.417-2.933 3.414 3.414 0 00-.865-2.734 2.834 2.834 0 00-2.649-1.077.454.454 0 10.071.893 1.913 1.913 0 011.729.822 2.84 2.84 0 01.425 1.983 3.881 3.881 0 01-1.162 2.068 2.947 2.947 0 01-1.984.992h-.51l-.495-.113a1.728 1.728 0 01-1.332-1.516 4.52 4.52 0 01.524-2.508 3.5 3.5 0 01.78-1.076 1.841 1.841 0 011.147-.468.397.397 0 00.352-.546.381.381 0 00-.366-.233 2.649 2.649 0 00-1.417.354 4.505 4.505 0 00-1.417 1.417 6.278 6.278 0 00-.864 2.224 3.499 3.499 0 00-.354-1.502 3.725 3.725 0 00-1.913-1.714c-.07 0-4.335-1.26-5.454 2.423zm2.338-1.417c.977-.623 3.003 0 3.031 0 .442.285.795.687 1.02 1.162a3.372 3.372 0 01-.255 2.691 2.196 2.196 0 01-1.898 1.417 3.116 3.116 0 01-2.252-1.19 2.833 2.833 0 01-.808-2.437 2.691 2.691 0 011.162-1.6v-.043z" fill="#113975"/><path fill-rule="evenodd" clip-rule="evenodd" d="M2.99 16.363c-.477.44-.887.946-1.22 1.502a6.204 6.204 0 00-.665 1.544 5.029 5.029 0 00-.142 1.715 4.647 4.647 0 001.573 3.045c.183.164.388.303.61.411.282.156.396.17.65.312a.453.453 0 00.674-.484.439.439 0 00-.206-.281l-.58-.397a2.83 2.83 0 01-.369-.34 3.627 3.627 0 01-.864-2.366c-.02-.52.037-1.04.17-1.544.074-.362.178-.718.312-1.062A5.47 5.47 0 013.683 17c.095-.143.215-.268.355-.368.155-.354-.128-.765-.468-.68a1.417 1.417 0 00-.58.41z" fill="#113975"/></svg>