<svg width="25" height="25" fill="none" xmlns="http://www.w3.org/2000/svg"><path d="M9.902 2.524c.7-.304 1.45-.475 2.213-.503.322 0 .653 0 1.005-.05.353-.05.654 0 1.006 0a4.909 4.909 0 012.203.392.292.292 0 00.412-.07.302.302 0 00-.07-.413A5.03 5.03 0 0014.227.874a6.8 6.8 0 00-1.167-.05 8.107 8.107 0 00-1.106.13A6.256 6.256 0 009.55 1.962a.342.342 0 00-.11.472.342.342 0 00.462.09zm14.665 8.491a.342.342 0 00-.383-.301.352.352 0 00-.291.382c.06.503.09 1.006.1 1.498.011.5-.01 1.001-.06 1.5a10.322 10.322 0 01-.654 2.735 12.314 12.314 0 01-1.307 2.505 9.546 9.546 0 01-4.496 3.44 12.653 12.653 0 01-5.673.834 12.068 12.068 0 01-3.108-.694 9.195 9.195 0 01-2.797-1.549A10.743 10.743 0 012.74 16.8a12.724 12.724 0 01-.724-5.613.294.294 0 10-.584-.07 13.156 13.156 0 00.564 5.944c.62 1.949 1.74 3.7 3.249 5.08a10.06 10.06 0 003.017 1.82 12.54 12.54 0 003.45.825 13.55 13.55 0 006.186-1.006 10.451 10.451 0 004.878-3.932c.544-.856.99-1.77 1.328-2.726.342-.956.552-1.955.624-2.967v-1.58c0-.573-.09-1.046-.161-1.559z" fill="#113975"/><path d="M19.878 14.73a5.433 5.433 0 00-1.006 0c-1.388 0-4.375.18-7.04.332-2.666.15-5.382.452-5.382.452a.745.745 0 00-.302.563c-.016.541.07 1.08.252 1.59a6.89 6.89 0 001.418 2.554 7.133 7.133 0 005.24 2.213 8.046 8.046 0 005.271-2.253 7.091 7.091 0 001.901-3.309 3.21 3.21 0 00.05-1.69.685.685 0 00-.402-.452zm-1.237 3.128a5.438 5.438 0 01-1.086 1.468 7.04 7.04 0 01-4.517 2.062 6.204 6.204 0 01-4.627-1.79 5.542 5.542 0 01-1.146-1.79 5.442 5.442 0 01-.413-1.429v-.372c1.248-.111 2.5-.158 3.752-.14 2.867-.061 6.528-.071 8.208-.071h.503a5.158 5.158 0 01-.674 2.062zM4.38 9.273a20.852 20.852 0 011.458 2.837.895.895 0 00.815.513 1.007 1.007 0 00.664-.614c.39-1.075.85-2.123 1.378-3.138.543-.714 2.263-1.267 2.877-1.7a.865.865 0 00.452-.744 1.005 1.005 0 00-.493-.644 30.882 30.882 0 01-3.248-1.458C7.438 3.66 6.824 1.76 6.31 1.106a.825.825 0 00-.634-.372c-.251 0-.523.302-.694.825a25.417 25.417 0 01-.834 3.017c-.403.815-2.274 1.62-2.968 2.102a.895.895 0 00-.462.795.905.905 0 00.603.573c.694.312 2.444.644 3.058 1.227zm-.513-3.289a3.168 3.168 0 001.006-1.106 5.4 5.4 0 00.261-.805c.211-.845.322-1.84.523-2.424l.02-.17c0 .05.121.09.161.16.312.503.644 1.408 1.067 2.173.214.435.508.827.865 1.156.341.28.716.517 1.116.705.614.281 1.308.543 1.79.784l.121.07h-.11c-.493.242-1.177.513-1.76.835a3.58 3.58 0 00-1.107.835 14.888 14.888 0 00-1.288 2.796A12.14 12.14 0 005.154 8.48a3.54 3.54 0 00-1.217-.674c-.623-.221-1.348-.392-1.88-.543.442-.352 1.206-.805 1.81-1.278zm9.757.192a.805.805 0 00.443.735c.594.422 2.263.955 2.786 1.65.508.974.948 1.982 1.318 3.017a1.006 1.006 0 00.664.593.885.885 0 00.814-.503 19.59 19.59 0 011.409-2.746c.593-.603 2.293-.895 2.957-1.177.392-.17.563-.402.593-.563a.875.875 0 00-.452-.794c-.664-.473-2.485-1.258-2.867-2.012-.328-.945-.6-1.91-.815-2.887-.17-.513-.432-.794-.714-.845a.784.784 0 00-.634.362c-.503.634-1.096 2.475-1.92 3.118a31.176 31.176 0 01-3.139 1.419.905.905 0 00-.443.633zm1.318 0c.473-.23 1.137-.482 1.73-.764a5.443 5.443 0 001.076-.644c.35-.316.643-.69.865-1.106.393-.734.725-1.61 1.006-2.102 0-.07.11-.111.151-.161a.602.602 0 000 .16c.181.564.302 1.54.503 2.364.063.265.147.524.252.775.224.43.548.798.945 1.076.573.463 1.297.895 1.78 1.217-.503.151-1.227.302-1.85.523a3.47 3.47 0 00-1.187.664c-.535.75-.98 1.56-1.328 2.414a14.345 14.345 0 00-1.137-2.706 3.51 3.51 0 00-1.076-.814c-.573-.312-1.237-.574-1.71-.805h-.08l.06-.09z" fill="#113975"/></svg>