<svg width="1920" height="552" fill="none" xmlns="http://www.w3.org/2000/svg"><path d="M-319 20C-26.385 86.101 973.446 285.862 916.072 473.86 859.012 660.827 2252.3 339.257 2000.54 314.036" stroke="#EC6118" stroke-width="40"/><path d="M17.488 98.23l.981-3.98-3.787-.934-.98 3.98-2.72-.67 2.49-10.097 2.718.67-.981 3.98 3.786.934.982-3.98 2.718.67L20.206 98.9l-2.718-.67zm8.236-5.386l-2.719-.67c.792-2.544 3.07-2.848 5.401-2.273 2.427.598 4.154 1.95 3.508 4.572l-1.7 6.894-2.718-.67.479-1.942-.097-.024s-1.172 2.08-3.755 1.443c-1.845-.454-2.993-1.644-2.534-3.508.464-1.884 2.228-2.355 4.004-2.37 1.794-.012 3.42.245 3.698-.881.196-.797-.272-1.406-1.34-1.67-1.165-.287-1.92.021-2.227 1.1zm3.026 2.765c-.547.298-1.512.286-2.337.289-.927-.002-1.774.263-1.995 1.156-.191.777.233 1.397 1.107 1.612 1.845.455 2.857-1.562 3.225-3.057zm3.576.922c.728-2.951 3.064-4.909 6.365-4.095 4.467 1.1 3.777 5.153 3.777 5.153l-2.719-.67s.382-1.966-1.56-2.444c-1.728-.426-2.694.901-3.144 2.727-.45 1.825-.212 3.449 1.517 3.875 1.941.479 2.517-1.44 2.517-1.44l2.719.671s-1.273 3.909-5.739 2.808c-3.301-.814-4.46-3.633-3.733-6.585zm15.358 9.141l1.387-5.631c.431-1.748.273-2.611-.795-2.874-1.165-.287-2.002.433-2.504 2.472l-1.293 5.243-2.718-.67 2.488-10.097 2.622.646-.407 1.65.097.024s1.158-1.774 3.197-1.272c1.632.402 2.314 1.394 2.41 2.675l.025-.015.097.024s1.352-1.726 3.391-1.224c2.525.622 2.75 2.634 2.175 4.965l-1.531 6.214-2.719-.67 1.388-5.632c.43-1.747.273-2.61-.795-2.874-1.165-.287-2.002.434-2.505 2.473l-1.292 5.243-2.718-.67zm13.474-2.035c-.45 1.826-.115 3.474 1.614 3.9 1.728.426 2.79-.878 3.24-2.703.45-1.826.115-3.474-1.613-3.9-1.728-.426-2.791.878-3.241 2.703zm-2.719-.67c.728-2.951 3.142-4.89 6.462-4.072 3.321.819 4.558 3.657 3.83 6.609-.727 2.952-3.141 4.89-6.462 4.072-3.32-.819-4.557-3.657-3.83-6.609zm21.257-.116l-2.489 10.097-2.719-.67.91-3.689-1.942-.479-2.521 3.293-3.049-.752 3.087-3.668c-1.03-.83-1.398-1.93-1.097-3.154.479-1.942 2.343-2.821 5.16-2.127l4.66 1.149zm-5.373 3.413l1.553.383.623-2.525-1.554-.382c-1.456-.359-2.135-.115-2.35.759-.215.874.271 1.406 1.728 1.765zm14.978-1.046l-1.388 5.631c-.43 1.748-.272 2.611.796 2.874 1.165.287 2.002-.433 2.504-2.472l1.292-5.243 2.72.67-2.49 10.098-2.621-.647.407-1.65-.097-.024s-1.159 1.774-3.198 1.272c-1.63-.402-2.299-1.37-2.415-2.655l-.116-.029s-1.352 1.727-3.391 1.224c-2.525-.622-2.75-2.634-2.176-4.965l1.532-6.214 2.719.67-1.388 5.632c-.431 1.747-.273 2.61.795 2.874 1.165.287 2.002-.434 2.504-2.473l1.293-5.243 2.718.67zm5.655 8.397l-1.484 6.02-.776-.191 1.483-6.02.777.191zm4.366-2.632l-2.719-.67c.792-2.544 3.071-2.847 5.402-2.273 2.427.598 4.153 1.951 3.507 4.572l-1.699 6.894-2.718-.67.478-1.942-.097-.024s-1.172 2.08-3.754 1.443c-1.845-.454-2.994-1.644-2.534-3.508.464-1.884 2.228-2.355 4.003-2.371 1.795-.011 3.421.246 3.698-.88.197-.796-.271-1.406-1.339-1.669-1.165-.288-1.921.021-2.228 1.098zm3.027 2.765c-.548.298-1.513.286-2.338.289-.926-.002-1.774.263-1.994 1.156-.192.777.232 1.397 1.106 1.612 1.845.455 2.857-1.562 3.226-3.057zm13.947-1.877l-2.489 10.098-2.718-.67.909-3.69-1.942-.478-2.521 3.292-3.049-.751 3.087-3.668c-1.031-.831-1.398-1.931-1.097-3.154.479-1.942 2.344-2.822 5.159-2.128l4.661 1.149zm-5.373 3.414l1.553.382.623-2.524-1.554-.383c-1.456-.359-2.135-.114-2.35.76-.215.874.272 1.406 1.728 1.765zm8.513 8.071l2.489-10.098 2.719.671-1.005 4.077 4.597-3.192 3.204.79-4.777 3.004 2.483 7.141-3.321-.818-1.525-4.846-1.389.873-.756 3.068-2.719-.67zm13.291-2.08c-.45 1.826-.114 3.474 1.614 3.9 1.728.426 2.791-.878 3.241-2.703.45-1.825.115-3.474-1.614-3.9-1.728-.426-2.791.878-3.241 2.703zm-2.718-.67c.727-2.951 3.141-4.89 6.462-4.072 3.32.819 4.557 3.657 3.83 6.609-.728 2.952-3.142 4.89-6.462 4.072-3.321-.819-4.558-3.657-3.83-6.609zm24.65.72l-2.489 10.098-2.524-.622 1.747-7.088-.098-.024-3.98 6.537-2.524-.622-.486-7.638-.097-.024-1.747 7.088-2.525-.622 2.489-10.098 4.078 1.005.316 7.493 3.762-6.488 4.078 1.005zm3.015 4.039l-2.719-.67c.792-2.545 3.071-2.848 5.401-2.274 2.427.598 4.154 1.951 3.508 4.572l-1.699 6.894-2.719-.67.479-1.942-.097-.024s-1.172 2.08-3.755 1.444c-1.845-.455-2.993-1.644-2.534-3.509.464-1.883 2.228-2.355 4.004-2.37 1.794-.011 3.42.245 3.698-.881.196-.796-.272-1.406-1.34-1.669-1.165-.287-1.92.021-2.227 1.099zm3.026 2.764c-.547.298-1.512.287-2.337.29-.926-.002-1.774.263-1.995 1.156-.191.777.233 1.396 1.107 1.611 1.845.455 2.857-1.561 3.225-3.057zm8.934 7.599l.981-3.981-3.786-.933-.981 3.981-2.719-.67 2.489-10.098 2.718.67-.981 3.981 3.787.933.981-3.981 2.719.67-2.489 10.098-2.719-.67zm16.284-6.698l-2.202 8.933c-.717 2.913-2.773 4.569-6.269 3.707-4.66-1.148-3.896-4.668-3.896-4.668l2.719.67s-.262 1.481 1.68 1.959c1.728.426 2.569-.396 3-2.144l.12-.485-.098-.024s-1.208 1.144-3.344.617c-2.913-.718-3.748-3.601-3.101-6.223.646-2.621 2.724-4.787 5.637-4.069 2.233.551 2.7 2.416 2.7 2.416l.097.024.335-1.359 2.622.646zm-3.818 4.209c.402-1.631-.011-3.299-1.662-3.705-1.65-.407-2.791.877-3.193 2.508-.402 1.632.011 3.299 1.662 3.706 1.65.406 2.791-.878 3.193-2.509zm6.845-.167l-2.719-.67c.792-2.544 3.071-2.848 5.401-2.274 2.428.599 4.154 1.951 3.508 4.573l-1.699 6.893-2.719-.67.479-1.942-.097-.024s-1.172 2.08-3.755 1.444c-1.844-.455-2.993-1.644-2.534-3.508.465-1.884 2.229-2.356 4.004-2.371 1.795-.011 3.421.245 3.698-.881.196-.796-.271-1.406-1.339-1.669-1.165-.287-1.921.021-2.228 1.099zm3.026 2.765c-.547.297-1.512.286-2.337.289-.926-.002-1.774.263-1.994 1.156-.192.777.232 1.396 1.106 1.612 1.845.454 2.857-1.562 3.225-3.057z" fill="#fff"/><path fill-rule="evenodd" clip-rule="evenodd" d="M257.796 163.033a11.214 11.214 0 01-1.955-1.853 7.083 7.083 0 01-1.169-2.285l-.381-2.029c-.023-.23.062-.685.032-.897a1.118 1.118 0 00-.303-.602.862.862 0 00-.602-.284.855.855 0 00-.622.239l-1.49 1.294a8.669 8.669 0 01-4.646.559 6.026 6.026 0 01-3.969-1.976 4.605 4.605 0 01-.683-1.235 5.46 5.46 0 01-.293-1.442c.044-.116-.037-1.299-.13-1.756a1.301 1.301 0 00-1.022-1.098 1.55 1.55 0 00-.978.182c-.477.262-1.436 1.093-1.638 1.216a11.45 11.45 0 01-1.896.963 5.72 5.72 0 01-1.901.451 9.27 9.27 0 01-4.618-1.027 7.656 7.656 0 01-3.444-3.239c-.454-.904-.657-2.467-1.137-3.536a3.994 3.994 0 00-.657-1.07 1.036 1.036 0 00-1.236-.071l-.536.593-2.073 1.428a8.398 8.398 0 01-2.673 1.199 4.264 4.264 0 01-2.767-.3.627.627 0 00-.597 1.103c.87.487 1.863.711 2.857.644a9.162 9.162 0 004.046-1.253l2.17-1.39.074.272c.25 1.139.562 2.264.933 3.37a9.66 9.66 0 003.916 4.328 11.565 11.565 0 005.803 1.41 8.645 8.645 0 002.156-.598 14.358 14.358 0 002.732-1.354l.175-.11c.073.607.227 1.202.457 1.77a6.222 6.222 0 001.081 1.874 8.289 8.289 0 005.445 2.583c1.972.23 3.969-.083 5.775-.905.235-.12.455-.267.655-.438l.349 1.529a8.407 8.407 0 001.547 2.806 10.937 10.937 0 002.417 2.094.704.704 0 00.99-.155.702.702 0 00.127-.527.7.7 0 00-.282-.463l-.039-.014zm1.748-8.346a11.214 11.214 0 01-1.955-1.853 7.088 7.088 0 01-1.169-2.284l-.38-2.029c-.024-.231.061-.686.031-.897a1.121 1.121 0 00-.303-.603.862.862 0 00-.602-.283.855.855 0 00-.622.238l-1.49 1.295a8.688 8.688 0 01-4.646.559 6.031 6.031 0 01-3.969-1.977 4.59 4.59 0 01-.683-1.235 5.502 5.502 0 01-.293-1.441c.044-.117-.037-1.3-.13-1.756a1.298 1.298 0 00-1.022-1.099 1.556 1.556 0 00-.978.182c-.477.262-1.436 1.094-1.638 1.216-.601.379-1.235.702-1.896.963a5.72 5.72 0 01-1.901.451 9.28 9.28 0 01-4.618-1.026 7.664 7.664 0 01-3.444-3.24c-.454-.904-.657-2.466-1.137-3.535a4.037 4.037 0 00-.656-1.071 1.034 1.034 0 00-1.237-.071l-.536.594-2.073 1.427a8.376 8.376 0 01-2.673 1.199 4.264 4.264 0 01-2.767-.3.626.626 0 00-.597 1.103c.87.488 1.863.712 2.858.645a9.187 9.187 0 004.045-1.253l2.17-1.391.074.272c.25 1.139.562 2.264.933 3.37a9.66 9.66 0 003.916 4.328 11.569 11.569 0 005.803 1.411 8.731 8.731 0 002.156-.598 14.358 14.358 0 002.732-1.354l.175-.111c.073.608.227 1.203.457 1.77a6.227 6.227 0 001.081 1.875 8.292 8.292 0 005.445 2.582c1.972.23 3.969-.083 5.775-.905a3.27 3.27 0 00.655-.438l.349 1.529a8.397 8.397 0 001.547 2.806 10.942 10.942 0 002.417 2.095.702.702 0 00.527.127.715.715 0 00.463-.282.718.718 0 00.127-.528.693.693 0 00-.282-.462l-.039-.015zm339.25 108.346a11.18 11.18 0 01-1.955-1.853 7.085 7.085 0 01-1.17-2.285l-.38-2.029c-.023-.23.062-.685.031-.897a1.117 1.117 0 00-.302-.602.857.857 0 00-.938-.228.852.852 0 00-.287.183l-1.49 1.294a8.666 8.666 0 01-4.646.559 6.026 6.026 0 01-3.969-1.976 4.575 4.575 0 01-.682-1.235 5.502 5.502 0 01-.294-1.442c.045-.116-.037-1.299-.129-1.756a1.31 1.31 0 00-1.023-1.098 1.55 1.55 0 00-.978.182c-.476.262-1.436 1.093-1.638 1.216-.6.379-1.235.702-1.896.963a5.714 5.714 0 01-1.9.451 9.27 9.27 0 01-4.619-1.027 7.661 7.661 0 01-3.444-3.239c-.453-.904-.657-2.467-1.136-3.536a4.02 4.02 0 00-.657-1.07 1.039 1.039 0 00-1.236-.071l-.536.593-2.073 1.428a8.408 8.408 0 01-2.673 1.199 4.267 4.267 0 01-2.768-.3.624.624 0 00-.693.065.646.646 0 00-.157.188.638.638 0 00-.049.477c.047.16.156.294.302.373.87.487 1.863.711 2.858.644a9.166 9.166 0 004.046-1.253l2.169-1.39.074.272c.251 1.139.562 2.264.934 3.37a9.65 9.65 0 003.916 4.328 11.562 11.562 0 005.802 1.41 8.622 8.622 0 002.156-.598 14.358 14.358 0 002.732-1.354l.175-.11a7 7 0 00.457 1.77 6.204 6.204 0 001.082 1.874 8.284 8.284 0 005.445 2.583c1.971.23 3.968-.083 5.775-.905a3.35 3.35 0 00.654-.438l.349 1.529a8.41 8.41 0 001.548 2.806 10.932 10.932 0 002.416 2.094.72.72 0 00.251.117.71.71 0 00.772-1.058.718.718 0 00-.188-.204l-.038-.014zm1.748-8.346a11.18 11.18 0 01-1.955-1.853 7.09 7.09 0 01-1.17-2.284l-.38-2.029c-.023-.231.062-.686.031-.897a1.12 1.12 0 00-.302-.603.866.866 0 00-.603-.283.853.853 0 00-.622.238l-1.49 1.295a8.686 8.686 0 01-4.646.559 6.031 6.031 0 01-3.969-1.977 4.56 4.56 0 01-.682-1.235 5.503 5.503 0 01-.294-1.441c.045-.117-.037-1.3-.129-1.756a1.306 1.306 0 00-1.023-1.099 1.557 1.557 0 00-.978.182c-.476.262-1.436 1.094-1.638 1.216-.6.379-1.235.702-1.895.963a5.72 5.72 0 01-1.901.451 9.28 9.28 0 01-4.619-1.026 7.669 7.669 0 01-3.444-3.24c-.453-.904-.657-2.466-1.136-3.535a4.04 4.04 0 00-.657-1.071 1.033 1.033 0 00-1.236-.071l-.536.594-2.073 1.427a8.386 8.386 0 01-2.673 1.199 4.267 4.267 0 01-2.768-.3.624.624 0 00-.693.065.646.646 0 00-.157.188.644.644 0 00-.049.478.625.625 0 00.302.372c.87.488 1.863.712 2.858.645a9.191 9.191 0 004.046-1.253l2.169-1.391.074.272c.251 1.139.562 2.264.934 3.37a9.65 9.65 0 003.916 4.328 11.563 11.563 0 005.802 1.411 8.707 8.707 0 002.156-.598 14.358 14.358 0 002.732-1.354l.175-.111c.074.608.228 1.203.457 1.77a6.23 6.23 0 001.082 1.875 8.29 8.29 0 005.445 2.582c1.971.23 3.968-.083 5.775-.905.235-.119.454-.266.654-.438l.349 1.529a8.417 8.417 0 001.548 2.806 10.937 10.937 0 002.416 2.095.718.718 0 00.528.127.704.704 0 00.579-.533.71.71 0 00-.272-.739l-.038-.015zm313.337 185.352a11.153 11.153 0 01-.875-2.547c-.15-.85-.142-1.72.021-2.567l.602-1.974c.086-.215.372-.58.443-.781.073-.218.077-.454.011-.674a.85.85 0 00-1.064-.607l-1.921.458a8.681 8.681 0 01-4.376-1.656 6.028 6.028 0 01-2.603-3.589 4.574 4.574 0 01-.033-1.411c.071-.487.208-.963.407-1.414.093-.082.569-1.169.698-1.616a1.302 1.302 0 00-.397-1.447 1.552 1.552 0 00-.951-.292c-.544.012-1.78.305-2.015.32-.708.058-1.42.05-2.127-.025a5.697 5.697 0 01-1.893-.48 9.28 9.28 0 01-3.619-3.048 7.667 7.667 0 01-1.552-4.466c.016-1.011.559-2.49.629-3.66a4.031 4.031 0 00-.086-1.253 1.036 1.036 0 00-1.063-.635l-.75.278-2.498.305a8.37 8.37 0 01-2.925-.175 4.266 4.266 0 01-2.314-1.547.632.632 0 00-.645-.264.64.64 0 00-.397.269.625.625 0 00.002.696 5.142 5.142 0 002.235 1.895 9.185 9.185 0 004.166.762l2.567-.228-.061.276a32.385 32.385 0 00-.732 3.419 9.653 9.653 0 001.467 5.649 11.553 11.553 0 004.49 3.937c.706.25 1.441.407 2.188.468 1.011.13 2.033.152 3.048.065l.207-.017a6.902 6.902 0 00-.415 1.78 6.217 6.217 0 00.091 2.163 8.284 8.284 0 003.63 4.81 10.904 10.904 0 005.538 1.872c.263.002.526-.026.783-.086l-.399 1.517a8.405 8.405 0 00.073 3.204 10.963 10.963 0 001.172 2.975.698.698 0 00.682.393.707.707 0 00.588-1.021l-.027-.031zm5.414-6.588a11.201 11.201 0 01-.875-2.547c-.15-.85-.142-1.72.021-2.567l.602-1.974c.087-.215.372-.58.443-.781.073-.218.077-.454.011-.674a.85.85 0 00-1.064-.607l-1.92.458a8.685 8.685 0 01-4.377-1.656 6.028 6.028 0 01-2.603-3.589 4.574 4.574 0 01-.033-1.411c.072-.487.209-.963.407-1.414.093-.082.569-1.169.698-1.616a1.302 1.302 0 00-.397-1.447 1.552 1.552 0 00-.951-.292c-.544.012-1.78.305-2.015.32-.708.058-1.42.05-2.127-.024a5.722 5.722 0 01-1.893-.481 9.28 9.28 0 01-3.619-3.048 7.667 7.667 0 01-1.552-4.466c.016-1.011.559-2.49.629-3.66a4.023 4.023 0 00-.086-1.252 1.04 1.04 0 00-1.063-.636l-.75.278-2.498.305a8.393 8.393 0 01-2.925-.174 4.277 4.277 0 01-2.314-1.547.624.624 0 00-1.042.004.629.629 0 00.002.696 5.142 5.142 0 002.235 1.895 9.186 9.186 0 004.166.763l2.567-.229-.06.276a32.389 32.389 0 00-.733 3.419 9.65 9.65 0 001.467 5.649 11.553 11.553 0 004.49 3.937c.706.25 1.441.408 2.188.468 1.011.13 2.033.152 3.048.065l.207-.017a6.943 6.943 0 00-.415 1.78 6.217 6.217 0 00.091 2.163 8.284 8.284 0 003.63 4.81 10.895 10.895 0 005.538 1.872c.264.002.526-.026.783-.086l-.399 1.517a8.425 8.425 0 00.073 3.204 10.95 10.95 0 001.172 2.975.698.698 0 00.682.393.707.707 0 00.588-1.021l-.027-.031zm393.107 82.044c-.9-.069-1.78-.247-2.64-.529a7.094 7.094 0 01-2.21-1.312l-1.4-1.515c-.14-.183-.31-.614-.45-.776a1.113 1.113 0 00-.57-.35.873.873 0 00-.67.081.879.879 0 00-.4.533l-.57 1.889a8.717 8.717 0 01-3.63 2.945 6.055 6.055 0 01-4.42.439 4.577 4.577 0 01-1.23-.683 5.41 5.41 0 01-1.02-1.064c-.02-.122-.72-1.081-1.04-1.418a1.308 1.308 0 00-1.45-.386c-.31.138-.57.375-.73.674-.27.475-.64 1.69-.74 1.901-.31.641-.67 1.252-1.1 1.824-.37.54-.83 1.011-1.36 1.394a9.31 9.31 0 01-4.46 1.588 7.674 7.674 0 01-4.64-.91c-.87-.524-1.87-1.739-2.84-2.389a4.159 4.159 0 00-1.13-.557 1.027 1.027 0 00-1.08.597l-.14.788-1 2.312a8.29 8.29 0 01-1.62 2.438 4.296 4.296 0 01-2.51 1.218.64.64 0 00-.43.212.787.787 0 00-.12.212.5.5 0 00-.03.242c0 .083.03.163.06.237.04.074.09.14.15.194.13.11.29.165.46.155.99-.05 1.95-.389 2.76-.975a9.195 9.195 0 002.76-3.214l1.09-2.332.21.191a33.22 33.22 0 002.58 2.357 9.666 9.666 0 005.62 1.58c2.02-.124 3.98-.776 5.67-1.893a8.378 8.378 0 001.5-1.653c.63-.808 1.16-1.679 1.6-2.6l.09-.187c.38.475.83.897 1.32 1.256.58.446 1.23.789 1.92 1.011 2.01.523 4.15.269 5.98-.71a10.904 10.904 0 004.41-3.839c.14-.227.24-.468.32-.72l1.11 1.11a8.488 8.488 0 002.8 1.552c1.03.316 2.09.481 3.16.487a.706.706 0 00.52-.172.696.696 0 00.17-.219.81.81 0 00.07-.267.642.642 0 00-.04-.274.576.576 0 00-.13-.24.722.722 0 00-.49-.241l-.04.008zm-2.96-7.996c-.9-.07-1.78-.247-2.64-.529a6.935 6.935 0 01-2.2-1.312l-1.41-1.515c-.14-.183-.31-.614-.45-.776a1.106 1.106 0 00-.57-.35.854.854 0 00-.92.306.72.72 0 00-.14.308l-.58 1.889a8.655 8.655 0 01-3.63 2.945 6.044 6.044 0 01-4.42.438 4.547 4.547 0 01-1.23-.682 5.388 5.388 0 01-1.02-1.065c-.02-.121-.72-1.08-1.04-1.417a1.28 1.28 0 00-.66-.423 1.323 1.323 0 00-.79.036c-.31.139-.57.376-.73.675-.27.475-.64 1.69-.74 1.901-.31.641-.67 1.252-1.09 1.824-.38.54-.84 1.011-1.37 1.394a9.32 9.32 0 01-4.46 1.588 7.674 7.674 0 01-4.64-.91c-.86-.524-1.87-1.739-2.84-2.389a4.159 4.159 0 00-1.13-.557 1.033 1.033 0 00-1.08.597l-.14.788-1 2.312a8.285 8.285 0 01-1.62 2.437 4.293 4.293 0 01-2.5 1.219.642.642 0 00-.44.212.787.787 0 00-.12.212.66.66 0 00-.03.242c.01.083.03.163.06.237.04.074.09.14.15.194.13.11.29.165.46.154a5.148 5.148 0 002.76-.974 9.195 9.195 0 002.76-3.214l1.09-2.332.21.191c.82.831 1.68 1.618 2.59 2.357a9.615 9.615 0 005.61 1.58c2.03-.124 3.98-.777 5.67-1.893a8.751 8.751 0 001.51-1.653c.62-.808 1.15-1.679 1.59-2.6l.09-.187c.38.475.83.897 1.33 1.255.57.447 1.22.789 1.91 1.012a8.27 8.27 0 005.98-.711 10.89 10.89 0 004.41-3.839c.14-.226.24-.467.32-.719l1.11 1.11a8.488 8.488 0 002.8 1.552c1.03.316 2.09.48 3.17.487a.68.68 0 00.27-.035.696.696 0 00.41-.356.81.81 0 00.07-.267.636.636 0 00-.03-.274.736.736 0 00-.36-.409.675.675 0 00-.27-.073l-.04.009zm294.96-44.004c-.9-.069-1.78-.247-2.64-.529a7.094 7.094 0 01-2.21-1.312l-1.4-1.515c-.14-.183-.31-.614-.45-.776a1.113 1.113 0 00-.57-.35.873.873 0 00-.67.081.879.879 0 00-.4.533l-.57 1.889a8.717 8.717 0 01-3.63 2.945 6.055 6.055 0 01-4.42.439 4.577 4.577 0 01-1.23-.683 5.41 5.41 0 01-1.02-1.064c-.02-.122-.72-1.081-1.04-1.418a1.308 1.308 0 00-1.45-.386c-.31.138-.57.375-.73.674-.27.475-.64 1.69-.74 1.901-.31.641-.67 1.252-1.1 1.824-.37.54-.83 1.011-1.36 1.394a9.31 9.31 0 01-4.46 1.588 7.674 7.674 0 01-4.64-.91c-.87-.524-1.87-1.739-2.84-2.389a4.159 4.159 0 00-1.13-.557 1.027 1.027 0 00-1.08.597l-.14.788-1 2.312a8.29 8.29 0 01-1.62 2.438 4.296 4.296 0 01-2.51 1.218.64.64 0 00-.43.212.787.787 0 00-.12.212.5.5 0 00-.03.242c0 .083.03.163.06.237.04.074.09.14.15.194.13.11.29.165.46.155.99-.05 1.95-.389 2.76-.975a9.195 9.195 0 002.76-3.214l1.09-2.332.21.191a33.22 33.22 0 002.58 2.357 9.666 9.666 0 005.62 1.58c2.02-.124 3.98-.776 5.67-1.893a8.378 8.378 0 001.5-1.653c.63-.808 1.16-1.679 1.6-2.6l.09-.187c.38.475.83.897 1.32 1.256.58.446 1.23.789 1.92 1.011 2.01.523 4.15.269 5.98-.71a10.904 10.904 0 004.41-3.839c.14-.227.24-.468.32-.72l1.11 1.11a8.488 8.488 0 002.8 1.552c1.03.316 2.09.481 3.16.487a.706.706 0 00.52-.172.696.696 0 00.17-.219.81.81 0 00.07-.267.642.642 0 00-.04-.274.576.576 0 00-.13-.24.722.722 0 00-.49-.241l-.04.008zm-2.96-7.996c-.9-.07-1.78-.247-2.64-.529a6.935 6.935 0 01-2.2-1.312l-1.41-1.515c-.14-.183-.31-.614-.45-.776a1.106 1.106 0 00-.57-.35.854.854 0 00-.92.306.72.72 0 00-.14.308l-.58 1.889a8.655 8.655 0 01-3.63 2.945 6.044 6.044 0 01-4.42.438 4.547 4.547 0 01-1.23-.682 5.388 5.388 0 01-1.02-1.065c-.02-.121-.72-1.08-1.04-1.417a1.28 1.28 0 00-.66-.423 1.323 1.323 0 00-.79.036c-.31.139-.57.376-.73.675-.27.475-.64 1.69-.74 1.901-.31.641-.67 1.252-1.09 1.824-.38.54-.84 1.011-1.37 1.394a9.32 9.32 0 01-4.46 1.588 7.674 7.674 0 01-4.64-.91c-.86-.524-1.87-1.739-2.84-2.389a4.159 4.159 0 00-1.13-.557 1.033 1.033 0 00-1.08.597l-.14.788-1 2.312a8.285 8.285 0 01-1.62 2.437 4.293 4.293 0 01-2.5 1.219.642.642 0 00-.44.212.787.787 0 00-.12.212.66.66 0 00-.03.242c.01.083.03.163.06.237.04.074.09.14.15.194.13.11.29.165.46.154a5.148 5.148 0 002.76-.974 9.195 9.195 0 002.76-3.214l1.09-2.332.21.191c.82.831 1.68 1.618 2.59 2.357a9.615 9.615 0 005.61 1.58c2.03-.124 3.98-.777 5.67-1.893a8.751 8.751 0 001.51-1.653c.62-.808 1.15-1.679 1.59-2.6l.09-.187c.38.475.83.897 1.33 1.255.57.447 1.22.789 1.91 1.012a8.27 8.27 0 005.98-.711 10.89 10.89 0 004.41-3.839c.14-.226.24-.467.32-.719l1.11 1.11a8.488 8.488 0 002.8 1.552c1.03.316 2.09.48 3.17.487a.68.68 0 00.27-.035.696.696 0 00.41-.356.81.81 0 00.07-.267.636.636 0 00-.03-.274.736.736 0 00-.36-.409.675.675 0 00-.27-.073l-.04.009zm282.96-58.004c-.9-.069-1.78-.247-2.64-.529a7.094 7.094 0 01-2.21-1.312l-1.4-1.515c-.14-.183-.31-.614-.45-.776a1.113 1.113 0 00-.57-.35.873.873 0 00-.67.081.879.879 0 00-.4.533l-.57 1.889a8.717 8.717 0 01-3.63 2.945 6.055 6.055 0 01-4.42.439 4.577 4.577 0 01-1.23-.683 5.41 5.41 0 01-1.02-1.064c-.02-.122-.72-1.081-1.04-1.418a1.308 1.308 0 00-1.45-.386c-.31.138-.57.375-.73.674-.27.475-.64 1.69-.74 1.901-.31.641-.67 1.252-1.1 1.824-.37.54-.83 1.011-1.36 1.394a9.31 9.31 0 01-4.46 1.588 7.674 7.674 0 01-4.64-.91c-.87-.524-1.87-1.739-2.84-2.389a4.159 4.159 0 00-1.13-.557 1.027 1.027 0 00-1.08.597l-.14.788-1 2.312a8.29 8.29 0 01-1.62 2.438 4.296 4.296 0 01-2.51 1.218.64.64 0 00-.43.212.787.787 0 00-.12.212.5.5 0 00-.03.242c0 .083.03.163.06.237.04.074.09.14.15.194.13.11.29.165.46.155.99-.05 1.95-.389 2.76-.975a9.195 9.195 0 002.76-3.214l1.09-2.332.21.191a33.22 33.22 0 002.58 2.357 9.666 9.666 0 005.62 1.58c2.02-.124 3.98-.776 5.67-1.893a8.378 8.378 0 001.5-1.653c.63-.808 1.16-1.679 1.6-2.6l.09-.187c.38.475.83.897 1.32 1.256.58.446 1.23.789 1.92 1.011 2.01.523 4.15.269 5.98-.71a10.904 10.904 0 004.41-3.839c.14-.227.24-.468.32-.72l1.11 1.11a8.488 8.488 0 002.8 1.552c1.03.316 2.09.481 3.16.487a.706.706 0 00.52-.172.696.696 0 00.17-.219.81.81 0 00.07-.267.642.642 0 00-.04-.274.576.576 0 00-.13-.24.722.722 0 00-.49-.241l-.04.008zm-2.96-7.996c-.9-.07-1.78-.247-2.64-.529a6.935 6.935 0 01-2.2-1.312l-1.41-1.515c-.14-.183-.31-.614-.45-.776a1.106 1.106 0 00-.57-.35.854.854 0 00-.92.306.72.72 0 00-.14.308l-.58 1.889a8.655 8.655 0 01-3.63 2.945 6.044 6.044 0 01-4.42.438 4.547 4.547 0 01-1.23-.682 5.388 5.388 0 01-1.02-1.065c-.02-.121-.72-1.08-1.04-1.417a1.28 1.28 0 00-.66-.423 1.323 1.323 0 00-.79.036c-.31.139-.57.376-.73.675-.27.475-.64 1.69-.74 1.901-.31.641-.67 1.252-1.09 1.824-.38.54-.84 1.011-1.37 1.394a9.32 9.32 0 01-4.46 1.588 7.674 7.674 0 01-4.64-.91c-.86-.524-1.87-1.739-2.84-2.389a4.159 4.159 0 00-1.13-.557 1.033 1.033 0 00-1.08.597l-.14.788-1 2.312a8.285 8.285 0 01-1.62 2.437 4.293 4.293 0 01-2.5 1.219.642.642 0 00-.44.212.787.787 0 00-.12.212.66.66 0 00-.03.242c.01.083.03.163.06.237.04.074.09.14.15.194.13.11.29.165.46.154a5.148 5.148 0 002.76-.974 9.195 9.195 0 002.76-3.214l1.09-2.332.21.191c.82.831 1.68 1.618 2.59 2.357a9.615 9.615 0 005.61 1.58c2.03-.124 3.98-.777 5.67-1.893a8.751 8.751 0 001.51-1.653c.62-.808 1.15-1.679 1.59-2.6l.09-.187c.38.475.83.897 1.33 1.255.57.447 1.22.789 1.91 1.012a8.27 8.27 0 005.98-.711 10.89 10.89 0 004.41-3.839c.14-.226.24-.467.32-.719l1.11 1.11a8.488 8.488 0 002.8 1.552c1.03.316 2.09.48 3.17.487a.68.68 0 00.27-.035.696.696 0 00.41-.356.81.81 0 00.07-.267.636.636 0 00-.03-.274.736.736 0 00-.36-.409.675.675 0 00-.27-.073l-.04.009z" fill="#fff"/><path d="M295.37 162.3l.17-.617 3.379.93c.255-1.291.029-2.399-1.221-2.742-1.542-.425-2.044 1.097-2.044 1.097l-2.16-.594s1.102-3.099 4.65-2.123c2.622.721 3.489 3.001 2.844 5.346s-2.556 3.86-5.178 3.139c-3.549-.977-2.91-4.203-2.91-4.203l2.16.594s-.347 1.564 1.195 1.989c1.296.356 2.094-.553 2.509-1.882l-3.394-.934zm5.909 5.693l2.219-8.019 2.159.598-.896 3.238 3.749-2.448 2.544.704-3.889 2.294 1.824 5.767-2.637-.73-1.109-3.909-1.131.666-.675 2.437-2.158-.598zm18.707-3.166l-2.23 8.016-2.081-.579.364-1.31-.077-.022s-1.122 1.349-2.895.856c-2.235-.622-2.444-2.258-1.93-4.108l1.372-4.933 2.158.601-1.243 4.47c-.386 1.387-.172 2.111.83 2.39 1.156.321 1.966-.201 2.416-1.819l1.158-4.162 2.158.6zm.452 8.485l2.239-8.013 2.08.581-.366 1.31.077.022s1.124-1.347 2.896-.852c2.235.624 2.442 2.26 1.925 4.109l-1.378 4.932-2.157-.603 1.249-4.469c.387-1.387.174-2.111-.827-2.391-1.156-.323-1.966.198-2.419 1.816l-1.162 4.161-2.157-.603zm19.922-3.059l-2.249 8.01-2.08-.584.368-1.309-.077-.022s-1.126 1.346-2.897.849c-2.234-.627-2.439-2.264-1.92-4.112l1.384-4.93 2.156.606-1.254 4.467c-.389 1.387-.177 2.111.824 2.392 1.156.324 1.966-.196 2.42-1.813l1.168-4.16 2.157.606zm-1.521 11.205l3.04-10.78 2.079.587-.304 1.078.077.021s1.062-1.113 2.833-.613c2.31.651 2.9 2.979 2.27 5.212-.629 2.232-2.349 3.909-4.659 3.257-1.694-.478-2.083-1.751-2.083-1.751l-.077-.022-1.02 3.619-2.156-.608zm3.99-6.189c-.409 1.447-.123 2.791 1.186 3.16 1.309.37 2.255-.627 2.664-2.074.408-1.448.122-2.792-1.187-3.161-1.309-.37-2.255.627-2.663 2.075zm9.337 2.637c-.41 1.447-.187 2.774 1.183 3.162 1.37.388 2.256-.625 2.666-2.072.41-1.447.187-2.774-1.183-3.162-1.37-.388-2.256.625-2.666 2.072zm-2.155-.611c.663-2.34 2.647-3.823 5.279-3.078 2.632.746 3.543 3.05 2.88 5.39-.663 2.34-2.647 3.823-5.279 3.077s-3.543-3.049-2.88-5.389zm8.685 6.786l2.278-8.002 3.847 1.095c2.078.591 2.958 1.59 2.542 3.052-.373 1.308-1.691 1.265-1.691 1.265l-.022.077s1.374.724.936 2.263c-.438 1.539-1.657 2.024-3.812 1.411l-4.078-1.161zm4.811-2.291l-1.693-.482-.525 1.847 1.847.526c.692.197 1.164-.001 1.34-.617.175-.616-.199-1.055-.969-1.274zm-1.298-1.867l1.539.438c.769.219 1.241.021 1.395-.517.153-.539-.067-.934-.76-1.132l-1.693-.481-.481 1.692zm5.215 6.642l2.287-7.999 2.154.616-.924 3.23 3.77-2.417 2.538.726-3.908 2.261 1.775 5.782-2.631-.752-1.076-3.918-1.136.656-.695 2.431-2.154-.616zm12.056-2.968l-2.153-.619c.711-2.01 2.542-2.183 4.387-1.653 1.922.553 3.261 1.687 2.665 3.763l-1.569 5.459-2.153-.619.442-1.538-.077-.022s-1 1.627-3.045 1.04c-1.461-.42-2.343-1.406-1.919-2.882.429-1.492 1.853-1.815 3.273-1.773 1.435.046 2.727.3 2.983-.592.181-.63-.174-1.132-1.02-1.375-.922-.265-1.536-.042-1.814.811zm2.335 2.302c-.447.221-1.218.183-1.877.16-.741-.03-1.427.156-1.63.863-.177.616.143 1.124.835 1.323 1.461.419 2.332-1.162 2.672-2.346zm20.011 1.905l-2.315 7.992-2.075-.601.379-1.306-.077-.023s-1.137 1.337-2.904.825c-2.229-.645-2.42-2.283-1.886-4.128l1.424-4.917 2.151.623-1.29 4.456c-.401 1.384-.195 2.11.804 2.399 1.153.334 1.968-.18 2.435-1.794l1.202-4.149 2.152.623zm7.332 6.177c-.421 1.444-.209 2.772 1.158 3.172 1.367.399 2.261-.607 2.682-2.051.422-1.444.21-2.772-1.157-3.171s-2.261.606-2.683 2.05zm-2.15-.628c.682-2.334 2.677-3.802 5.304-3.035 2.626.767 3.518 3.077 2.836 5.412-.681 2.335-2.677 3.802-5.303 3.035-2.626-.767-3.518-3.077-2.837-5.412zm10.849 3.716c-.379 1.289-.147 2.542 1.219 2.943 1.366.401 2.239-.526 2.618-1.816.379-1.289.147-2.541-1.219-2.943-1.367-.401-2.24.526-2.618 1.816zm.746 4.555c-2.15-.632-3.784-2.446-2.657-6.284 1.512-5.142 4.178-5.193 6.404-4.539l2.932.862-.519 1.765-3.116-.915c-1.735-.51-2.605.068-3.362 1.68l.076.022s1.052-1.025 2.894-.483c2.38.699 3.242 2.87 2.588 5.096-.631 2.149-2.554 3.585-5.24 2.796zm8.516-2.377c-.426 1.442-.219 2.772 1.147 3.176 1.365.403 2.262-.599 2.689-2.042.426-1.442.219-2.771-1.147-3.175-1.365-.404-2.262.599-2.689 2.041zm-2.148-.635c.69-2.332 2.69-3.793 5.314-3.017 2.624.776 3.508 3.089 2.818 5.422-.69 2.332-2.69 3.792-5.314 3.017-2.623-.776-3.508-3.09-2.818-5.422zm7.536 9.868l3.2-10.733 2.07.617-.32 1.073.077.023s1.078-1.097 2.842-.572c2.3.686 2.855 3.022 2.192 5.246-.662 2.223-2.407 3.873-4.707 3.188-1.686-.503-2.056-1.782-2.056-1.782l-.077-.023-1.074 3.603-2.147-.64zm4.082-6.129c-.43 1.441-.164 2.789 1.139 3.178 1.303.388 2.264-.594 2.694-2.035.429-1.442.164-2.79-1.14-3.178-1.303-.389-2.264.593-2.693 2.035zm17.405.869l-5.299 7.345c-1.176 1.635-2.285 2.321-3.894 1.837a4.532 4.532 0 01-1.309-.644l.529-1.762s.414.291.95.452c.766.231 1.197-.091 1.725-.734l-.823-8.935 2.299.69.366 5.841 3.158-4.781 2.298.691zm8.419 2.552l-2.135 7.043c-.696 2.297-2.408 3.534-5.165 2.698-3.675-1.114-2.916-3.893-2.916-3.893l2.144.65s-.272 1.171 1.26 1.635c1.362.414 2.069-.208 2.487-1.586l.116-.383-.077-.023s-1.014.863-2.698.352c-2.297-.696-2.842-3.035-2.215-5.102.626-2.067 2.378-3.709 4.675-3.013 1.761.534 2.055 2.044 2.055 2.044l.077.023.325-1.072 2.067.627zm-3.227 3.201c.389-1.286.13-2.635-1.172-3.03-1.301-.394-2.267.584-2.656 1.87-.39 1.286-.131 2.636 1.171 3.03 1.301.395 2.267-.583 2.657-1.87zm5.503 1.841c-.44 1.438-.246 2.769 1.116 3.186 1.362.417 2.268-.577 2.709-2.015.44-1.438.245-2.77-1.117-3.187-1.361-.416-2.268.578-2.708 2.016zm-2.142-.656c.712-2.325 2.726-3.767 5.342-2.966 2.616.801 3.478 3.123 2.767 5.448-.712 2.326-2.727 3.767-5.343 2.966-2.616-.8-3.478-3.122-2.766-5.448zm8.833 7.057l2.46-7.948 3.821 1.182c2.064.639 2.921 1.658 2.471 3.11-.402 1.299-1.719 1.227-1.719 1.227l-.024.076s1.357.755.884 2.284c-.473 1.528-1.703 1.985-3.843 1.322l-4.05-1.253zm4.862-2.18l-1.682-.521-.567 1.835 1.834.567c.688.213 1.164.026 1.354-.586.189-.611-.175-1.059-.939-1.295zm-1.256-1.896l1.529.473c.764.236 1.241.049 1.406-.486.166-.535-.045-.935-.733-1.148l-1.681-.521-.521 1.682zm10.411 2.4l-2.138-.67c.759-1.993 2.594-2.121 4.426-1.547 1.908.599 3.219 1.765 2.573 3.826l-1.7 5.419-2.138-.67.479-1.527-.076-.024s-1.039 1.603-3.07.966c-1.45-.455-2.308-1.462-1.848-2.928.464-1.481 1.896-1.769 3.315-1.693 1.433.081 2.719.366 2.996-.519.197-.626-.146-1.136-.986-1.399-.916-.288-1.535-.079-1.833.766zm2.278 2.358c-.452.211-1.222.153-1.88.115-.74-.048-1.43.121-1.651.823-.191.611.117 1.127.804 1.342 1.45.455 2.358-1.104 2.727-2.28zm8.379 7.05l.995-3.125-2.973-.947-.995 3.126-2.134-.68 2.524-7.928 2.135.68-.996 3.125 2.973.947.996-3.125 2.134.68-2.525 7.927-2.134-.68zm14.994-3.901l-2.568 7.913-2.055-.666.42-1.294-.076-.025s-1.179 1.3-2.929.732c-2.207-.716-2.346-2.36-1.753-4.186l1.58-4.87 2.131.692-1.433 4.413c-.444 1.37-.261 2.102.728 2.423 1.141.37 1.972-.117 2.491-1.715l1.334-4.109 2.13.692zm.488 4.537c.766-2.308 2.737-3.727 5.334-2.866 2.597.862 3.177 3.128 2.411 5.436a12.47 12.47 0 01-.166.451l-5.589-1.855c-.312 1.246-.098 2.328 1.178 2.751 1.291.429 1.921-.711 1.921-.711l2.126.706s-1.387 2.658-4.652 1.575c-2.658-.882-3.329-3.178-2.563-5.487zm4.805-1.271c-1.048-.348-1.796.179-2.301 1.091l3.356 1.113c.186-1.017-.007-1.857-1.055-2.204zm121.43 46.186l2.734-7.858 2.04.71-.447 1.284.076.027s1.206-1.275 2.944-.67c2.191.762 2.296 2.408 1.665 4.221l-1.682 4.836-2.116-.736 1.524-4.382c.474-1.36.306-2.096-.676-2.438-1.133-.394-1.975.075-2.527 1.662l-1.419 4.08-2.116-.736zm7.583 6.039l3.772-10.545 2.034.727-.378 1.055.076.027s1.136-1.039 2.868-.419c2.26.808 2.69 3.171 1.908 5.355-.781 2.185-2.611 3.739-4.871 2.931-1.657-.593-1.958-1.89-1.958-1.89l-.076-.027-1.266 3.541-2.109-.755zm4.405-5.901c-.507 1.416-.314 2.777.967 3.235 1.28.458 2.293-.472 2.799-1.888.507-1.416.313-2.777-.967-3.235-1.281-.458-2.293.472-2.799 1.888zm8.922 3.934c-.517 1.412-.394 2.752.943 3.241 1.337.49 2.296-.454 2.814-1.866.517-1.412.394-2.752-.943-3.242-1.337-.49-2.296.454-2.814 1.867zm-2.103-.771c.836-2.283 2.925-3.614 5.494-2.674 2.57.941 3.305 3.306 2.469 5.59-.836 2.284-2.925 3.615-5.494 2.674-2.57-.941-3.305-3.306-2.469-5.59zm13.621 9.176l-.981 2.623-2.098-.784.98-2.623c-2.562-.958-3.43-3.161-2.562-5.484.869-2.323 2.969-3.417 5.531-2.459l.981-2.623 2.098.784-.98 2.623c2.562.958 3.43 3.161 2.562 5.484-.869 2.323-2.969 3.417-5.531 2.459zm-1.538-2.283l1.848-4.945c-1.334-.499-2.34.32-2.872 1.744-.533 1.424-.31 2.703 1.024 3.201zm4.97-.96c.533-1.424.31-2.702-1.024-3.201l-1.848 4.946c1.334.498 2.34-.321 2.872-1.745zm3.513 1.7c.867-2.273 2.899-3.604 5.455-2.628 2.556.975 3.035 3.265 2.168 5.537-.068.179-.186.442-.186.442l-5.501-2.099c-.366 1.23-.2 2.321 1.055 2.8 1.271.485 1.952-.625 1.952-.625l2.092.799s-1.503 2.594-4.717 1.368c-2.616-.999-3.185-3.322-2.318-5.594zm4.856-1.059c-1.031-.393-1.802.101-2.347.989l3.304 1.26c.231-1.008.074-1.855-.957-2.249zm3.266 4.162c.88-2.267 2.935-3.581 5.471-2.596 3.43 1.332 2.467 4.476 2.467 4.476l-2.089-.81s.505-1.521-.987-2.1c-1.327-.515-2.229.439-2.774 1.841-.544 1.402-.522 2.715.805 3.23 1.492.579 2.146-.883 2.146-.883l2.088.811s-1.411 2.97-4.842 1.638c-2.535-.984-3.165-3.34-2.285-5.607zm8.23 3.197c.893-2.262 2.956-3.564 5.486-2.565 3.422 1.351 2.441 4.49 2.441 4.49l-2.083-.822s.513-1.518-.975-2.105c-1.325-.523-2.233.425-2.785 1.824-.553 1.399-.538 2.712.787 3.235 1.488.588 2.15-.871 2.15-.871l2.083.823s-1.428 2.963-4.85 1.611c-2.53-.999-3.147-3.358-2.254-5.62zm17.615 1.94l-3.105 7.719-2.004-.806.508-1.262-.075-.03s-1.265 1.216-2.972.529c-2.152-.866-2.179-2.515-1.462-4.296l1.91-4.75 2.079.836-1.732 4.305c-.537 1.336-.405 2.079.56 2.467 1.113.448 1.976.018 2.603-1.54l1.612-4.008 2.078.836zm1.581 5.14c-.57 1.391-.499 2.735.819 3.275 1.317.541 2.312-.366 2.882-1.757.571-1.392.499-2.736-.818-3.276-1.318-.54-2.312.366-2.883 1.758zm-2.072-.85c.922-2.25 3.061-3.5 5.592-2.462 2.532 1.038 3.176 3.429 2.254 5.679-.923 2.251-3.061 3.501-5.593 2.463-2.531-1.038-3.176-3.43-2.253-5.68zm12.418 10.051l1.266-3.026-2.878-1.205-1.266 3.026-2.067-.865 3.213-7.675 2.066.865-1.266 3.026 2.878 1.204 1.266-3.025 2.066.864-3.212 7.675-2.066-.864zm7.899-2.912l-2.059-.881c.954-1.906 2.792-1.851 4.558-1.096 1.839.786 3.027 2.078 2.178 4.064l-2.234 5.222-2.059-.881.629-1.471-.074-.031s-1.194 1.49-3.151.654c-1.397-.598-2.15-1.686-1.546-3.098.61-1.427 2.064-1.571 3.467-1.354 1.419.224 2.669.637 3.034-.216.258-.603-.033-1.145-.842-1.491-.882-.378-1.519-.232-1.901.579zm2.032 2.574c-.471.164-1.231.03-1.883-.074-.731-.121-1.434-.022-1.724.655-.251.588.003 1.132.665 1.415 1.398.598 2.458-.863 2.942-1.996zm1.316 5.55l6.076-6.423 2.316 1.014-.594 8.821-2.198-.962.607-6.178-4.125 4.639-2.082-.911zm8.74 3.828l3.395-7.596 2.045.914-1.241 2.775 1.242.555c2.118.947 2.862 2.419 2.209 3.879-.652 1.461-2.245 1.888-4.364.942l-3.286-1.469zm4.496-2.022l-.95-.424-.848 1.899.949.424c1.096.49 1.665.394 1.958-.264.294-.657-.014-1.145-1.109-1.635zm8.246 8.227l1.366-2.982-2.837-1.299-1.366 2.982-2.036-.933 3.464-7.564 2.037.933-1.366 2.982 2.837 1.299 1.365-2.982 2.037.933-3.465 7.564-2.036-.933zm2.964 1.683l3.552-7.524 2.026.957-1.298 2.749.868.409c2.098.991 2.811 2.478 2.128 3.925-.683 1.447-2.284 1.84-4.382.85l-2.894-1.366zm4.175-2.098l-.578-.274-.888 1.881.578.274c1.086.512 1.656.427 1.964-.224.307-.651.01-1.145-1.076-1.657zm8.131-1.293l-3.553 7.524-2.025-.957 3.552-7.523 2.026.956zm-.252 4.497c1.067-2.185 3.21-3.329 5.668-2.129 2.459 1.2 2.732 3.523 1.665 5.709-.084.172-.225.424-.225.424l-5.291-2.583c-.475 1.193-.408 2.294.8 2.883 1.222.597 1.999-.448 1.999-.448l2.013.983s-1.729 2.449-4.821.94c-2.516-1.228-2.875-3.593-1.808-5.779zm4.932-.619c-.993-.485-1.804-.062-2.426.774l3.178 1.551c.319-.983.24-1.841-.752-2.325zm11.353 14.485l2.117-4.129c.657-1.281.693-1.982-.09-2.383-.854-.438-1.638-.031-2.405 1.463l-1.971 3.844-1.993-1.022 3.796-7.403 1.922.986-.62 1.21.071.036s1.228-1.168 2.723-.401c1.196.613 1.545 1.511 1.384 2.526l.022-.007.071.036s1.371-1.095 2.866-.328c1.85.949 1.655 2.557.779 4.265l-2.336 4.556-1.994-1.022 2.118-4.129c.657-1.281.693-1.982-.09-2.384-.855-.438-1.639-.031-2.405 1.464l-1.972 3.844-1.993-1.022zm6.275 6.964l5.285-9.874 1.905 1.019-.529.987.071.038s1.276-.859 2.899.009c2.115 1.133 2.192 3.533 1.097 5.578-1.095 2.046-3.134 3.313-5.25 2.181-1.552-.831-1.658-2.158-1.658-2.158l-.071-.038-1.774 3.315-1.975-1.057zm5.227-5.187c-.71 1.326-.72 2.7.479 3.341 1.199.642 2.338-.128 3.047-1.454.71-1.326.72-2.7-.48-3.342-1.199-.641-2.337.129-3.046 1.455zm6.304 4.083c1.196-2.117 3.405-3.129 5.786-1.783 2.382 1.347 2.514 3.682 1.317 5.799-.095.167-.25.41-.25.41l-5.126-2.898c-.546 1.162-.545 2.265.625 2.927 1.184.669 2.022-.327 2.022-.327l1.95 1.102s-1.874 2.341-4.869.648c-2.437-1.378-2.652-3.761-1.455-5.878zm4.959-.32c-.961-.543-1.796-.171-2.467.626l3.078 1.741c.378-.963.351-1.824-.611-2.367zm6.251 11.647l1.693-2.81-2.672-1.61-1.693 2.809-1.918-1.156 4.294-7.126 1.919 1.156-1.693 2.809 2.672 1.611 1.693-2.809 1.918 1.156-4.294 7.126-1.919-1.156zm5.559-1.476c1.33-2.036 3.598-2.906 5.889-1.41 2.291 1.496 2.273 3.835.944 5.871-.105.161-.276.393-.276.393l-4.93-3.219c-.62 1.125-.689 2.226.437 2.961 1.138.743 2.039-.197 2.039-.197l1.876 1.224s-2.021 2.216-4.901.336c-2.344-1.531-2.407-3.923-1.078-5.959zm4.971-.003c-.925-.604-1.783-.285-2.503.468l2.96 1.933c.44-.936.467-1.798-.457-2.401zm-.723 11.194l6.645-9.016 1.739 1.282-.665.902.065.047s1.386-.667 2.867.424c1.932 1.424 1.664 3.811.287 5.678-1.376 1.868-3.576 2.83-5.508 1.406-1.417-1.045-1.332-2.373-1.332-2.373l-.064-.048-2.231 3.027-1.803-1.329zm5.915-4.385c-.892 1.21-1.098 2.569-.004 3.376 1.095.807 2.332.208 3.224-1.003.893-1.211 1.099-2.569.004-3.376-1.094-.807-2.331-.208-3.224 1.003zm3.945 8.041l5.528-6.218 1.674 1.488-2.02 2.272.718.638c1.734 1.541 2 3.169.937 4.365-1.063 1.196-2.711 1.123-4.445-.419l-2.392-2.126zm4.598-.837l-.479-.425-1.381 1.555.478.425c.897.797 1.468.877 1.947.339.478-.539.332-1.097-.565-1.894zm8.165 1.05l-5.527 6.218-1.675-1.488 5.528-6.219 1.674 1.489zm80.522 136.419l-8.703 2.51c-1.934.561-3.229.417-4.197-.957a4.538 4.538 0 01-.633-1.315l1.504-1.06s.146.485.468.942c.461.654.998.667 1.811.486l4.866-7.538 1.382 1.962-3.316 4.822 5.436-1.814 1.382 1.962zm6.651 4.752l-4.414 5.89c-1.439 1.921-3.471 2.497-5.775.77-3.073-2.303-1.41-4.655-1.41-4.655l1.792 1.343s-.655 1.008.625 1.968c1.14.854 2.016.511 2.88-.641l.24-.32-.064-.048s-1.248.464-2.656-.591c-1.921-1.44-1.634-3.824-.338-5.552 1.295-1.729 3.503-2.674 5.423-1.234 1.472 1.103 1.233 2.623 1.233 2.623l.064.048.672-.896 1.728 1.295zm-4.127 1.906c.806-1.076 1.023-2.432-.065-3.248-1.089-.816-2.33-.226-3.136.849-.806 1.076-1.023 2.432.065 3.248 1.088.816 2.33.226 3.136-.849zm5.587 3.546c-.664 1.35-.683 2.695.595 3.324 1.278.628 2.331-.209 2.995-1.559.663-1.35.683-2.695-.595-3.323-1.278-.629-2.331.209-2.995 1.558zm-2.01-.988c1.073-2.183 3.291-3.285 5.746-2.078 2.456 1.207 2.937 3.637 1.864 5.819-1.073 2.183-3.291 3.285-5.746 2.078-2.456-1.207-2.937-3.637-1.864-5.819zm10.6 5.124c-.459 1.263-.306 2.528 1.032 3.014 1.339.487 2.268-.384 2.727-1.647.46-1.263.306-2.528-1.032-3.014-1.338-.487-2.268.384-2.727 1.647zm.458 4.593c-2.105-.765-3.622-2.679-2.255-6.438 1.831-5.038 4.495-4.92 6.676-4.127l2.872 1.044-.629 1.729-3.052-1.11c-1.7-.617-2.605-.095-3.462 1.466l.076.027s1.114-.957 2.918-.301c2.331.848 3.055 3.069 2.263 5.249-.766 2.106-2.775 3.418-5.407 2.461zm12.358 3.612l.879-3.16-3.006-.836-.879 3.16-2.158-.6 2.229-8.016 2.158.6-.879 3.16 3.006.836.879-3.16 2.158.601-2.229 8.015-2.158-.6zm6.743-2.614c-.324 1.469-.023 2.78 1.367 3.087 1.391.307 2.215-.757 2.539-2.226.324-1.468.024-2.78-1.367-3.086-1.391-.307-2.215.756-2.539 2.225zm-2.187-.482c.523-2.375 2.416-3.973 5.088-3.384s3.716 2.835 3.193 5.21c-.524 2.375-2.417 3.973-5.089 3.383-2.671-.589-3.716-2.835-3.192-5.209zm9.386 3.228c.424-2.395 2.17-4.084 4.864-3.606 2.694.477 3.595 2.635 3.171 5.03-.034.189-.1.47-.1.47l-5.797-1.028c-.129 1.278.239 2.318 1.562 2.552 1.339.238 1.799-.981 1.799-.981l2.206.391s-.989 2.831-4.377 2.231c-2.757-.489-3.752-2.664-3.328-5.059zm4.571-1.952c-1.087-.193-1.751.437-2.119 1.412l3.482.617c.036-1.034-.276-1.837-1.363-2.029zm14.942 10.174l1.441-11.107 2.142.278-.144 1.11.079.011s.889-1.256 2.714-1.019c2.378.308 3.298 2.526 3.008 4.826-.3 2.301-1.76 4.209-4.14 3.9-1.746-.226-2.316-1.429-2.316-1.429l-.079-.011-.484 3.729-2.221-.288zm3.048-6.704c-.194 1.492.284 2.78 1.633 2.955 1.349.175 2.14-.949 2.334-2.44.193-1.492-.285-2.78-1.634-2.955-1.348-.175-2.14.949-2.333 2.44zm9.482-.219l-2.23-.23c.35-2.103 2.12-2.596 4.03-2.4 1.99.205 3.51 1.085 3.29 3.233l-.58 5.651-2.23-.23.16-1.591-.08-.008s-.7 1.777-2.81 1.56c-1.52-.156-2.56-.971-2.4-2.499.16-1.544 1.5-2.113 2.91-2.322 1.42-.208 2.74-.185 2.83-1.108.07-.653-.37-1.084-1.25-1.174-.95-.098-1.51.23-1.64 1.118zm2.71 1.854c-.4.297-1.17.395-1.82.489-.74.101-1.38.405-1.46 1.137-.06.637.34 1.08 1.06 1.154 1.51.156 2.09-1.554 2.22-2.78zm4 .525c.2-2.424 1.79-4.269 4.5-4.049 3.67.298 3.65 3.587 3.65 3.587l-2.24-.181s.05-1.602-1.54-1.731c-1.42-.115-2.01 1.057-2.13 2.556-.13 1.499.27 2.751 1.69 2.866 1.59.13 1.8-1.459 1.8-1.459l2.24.182s-.51 3.249-4.18 2.952c-2.71-.221-3.98-2.299-3.79-4.723zm9.62 4.867l.54-8.302 2.15.14-.08 1.357.08.005s.82-1.55 2.65-1.43c2.32.15 2.86 1.708 2.74 3.624l-.34 5.11-2.23-.146.3-4.63c.09-1.437-.27-2.102-1.3-2.169-1.2-.078-1.89.599-2 2.276l-.28 4.31-2.23-.145zm18.35-7.286l-.4 8.31-2.16-.105.07-1.359-.08-.004s-.8 1.563-2.64 1.474c-2.32-.114-2.88-1.663-2.79-3.581l.25-5.114 2.24.11-.23 4.634c-.07 1.438.3 2.097 1.34 2.148 1.2.058 1.87-.629 1.95-2.307l.22-4.315 2.23.109zm.73 4.202c.09-2.431 1.59-4.347 4.31-4.25 3.68.13 3.8 3.416 3.8 3.416l-2.23-.079s-.03-1.602-1.63-1.658c-1.42-.051-1.96 1.147-2.01 2.65-.05 1.503.4 2.736 1.82 2.786 1.6.057 1.74-1.539 1.74-1.539l2.24.079s-.36 3.27-4.04 3.139c-2.72-.096-4.09-2.114-4-4.544zm11.95-1.16l-2.24-.049c.18-2.124 1.91-2.759 3.83-2.717 1.99.044 3.58.799 3.53 2.958l-.12 5.679-2.24-.049.03-1.6-.08-.001s-.55 1.828-2.68 1.781c-1.52-.033-2.62-.761-2.59-2.297.04-1.551 1.33-2.227 2.72-2.549 1.39-.322 2.71-.405 2.73-1.333.01-.656-.46-1.05-1.34-1.069-.96-.021-1.49.351-1.55 1.246zm2.85 1.631c-.38.328-1.13.487-1.78.633-.72.16-1.33.515-1.35 1.251-.01.64.42 1.049 1.14 1.065 1.52.033 1.96-1.717 1.99-2.949zm9.84 4.337l.04-3.28-3.12-.032-.04 3.279-2.24-.023.09-8.32 2.24.024-.04 3.28 3.12.033.04-3.28 2.24.023-.09 8.32-2.24-.024zm11.59-8.281v8.32h-2.16v-1.36h-.08s-.72 1.6-2.56 1.6c-2.32 0-2.96-1.52-2.96-3.44v-5.12h2.24v4.64c0 1.44.4 2.08 1.44 2.08 1.2 0 1.84-.72 1.84-2.4v-4.32h2.24zm1.65 4.145c-.02-2.431 1.38-4.413 4.12-4.44 2.73-.028 4.01 1.928 4.04 4.36 0 .192-.01.48-.01.48l-5.89.058c.11 1.279.66 2.234 2.01 2.22 1.36-.013 1.58-1.295 1.58-1.295l2.24-.023s-.45 2.965-3.89 2.999c-2.8.028-4.18-1.927-4.2-4.359zm4.13-2.761c-1.1.011-1.64.753-1.82 1.779l3.54-.035c-.16-1.023-.61-1.754-1.72-1.744zm22.03-.734l.19 8.318-2.16.047-.03-1.36-.08.002s-.69 1.615-2.53 1.655c-2.32.051-2.99-1.455-3.03-3.374l-.11-5.119 2.24-.049.1 4.639c.03 1.44.44 2.071 1.48 2.048 1.2-.026 1.83-.76 1.79-2.439l-.09-4.319 2.23-.049zm10.77 10.022l-.38-11.194 2.16-.072.04 1.119.08-.003s.67-1.383 2.51-1.445c2.4-.081 3.67 1.958 3.75 4.277.07 2.318-1.05 4.437-3.45 4.518-1.76.059-2.52-1.036-2.52-1.036l-.08.003.13 3.758-2.24.075zm1.92-7.109c.05 1.503.73 2.697 2.09 2.652 1.36-.046 1.96-1.283 1.91-2.786-.05-1.503-.73-2.697-2.09-2.651-1.36.045-1.96 1.282-1.91 2.785zm9.77-2.026l-2.24.093c.04-2.131 1.72-2.874 3.64-2.953 2-.084 3.63.569 3.72 2.728l.23 5.675-2.24.093-.06-1.599-.08.003s-.44 1.86-2.56 1.948c-1.52.064-2.67-.593-2.74-2.128-.06-1.551 1.19-2.307 2.55-2.716 1.38-.41 2.68-.576 2.64-1.503-.02-.656-.52-1.019-1.4-.983-.96.04-1.47.446-1.46 1.342zm2.94 1.447c-.35.351-1.1.558-1.73.745-.71.206-1.31.598-1.28 1.334.03.639.5 1.02 1.21.99 1.52-.063 1.85-1.838 1.8-3.069zm4.23-.147c-.12-2.429 1.22-4.464 3.94-4.596 3.68-.177 4.08 3.087 4.08 3.087l-2.24.108s-.16-1.594-1.76-1.517c-1.42.069-1.86 1.308-1.78 2.81.07 1.502.62 2.693 2.05 2.624 1.59-.077 1.6-1.679 1.6-1.679l2.23-.108s-.08 3.287-3.75 3.465c-2.72.131-4.25-1.765-4.37-4.194zm10.29 3.608l-.46-8.308 2.16-.118.08 1.358.08-.005s.63-1.637 2.46-1.737c2.32-.128 3.04 1.355 3.15 3.272l.28 5.113-2.24.122-.25-4.633c-.08-1.438-.52-2.055-1.55-1.998-1.2.066-1.8.82-1.71 2.497l.24 4.314-2.24.123zm9.96-4.665c.09 1.501.74 2.68 2.16 2.594 1.42-.086 1.92-1.335 1.83-2.836-.09-1.501-.74-2.68-2.16-2.594-1.42.086-1.92 1.334-1.83 2.836zm-2.24.135c-.14-2.428 1.24-4.483 3.97-4.648 2.73-.165 4.35 1.709 4.5 4.136.15 2.428-1.24 4.483-3.97 4.648-2.73.165-4.35-1.709-4.5-4.136zm8.91 3.506l2.43-8.5 2.52-.168 3.54 8.103-2.39.16-2.31-5.764-1.53 6.018-2.26.151zm10.45-4.87c.11 1.5.77 2.672 2.19 2.57 1.42-.102 1.91-1.356 1.8-2.856-.11-1.5-.77-2.672-2.19-2.57-1.42.102-1.91 1.356-1.8 2.856zm-2.24.16c-.17-2.425 1.19-4.496 3.92-4.692 2.73-.195 4.37 1.66 4.54 4.086.18 2.426-1.18 4.496-3.91 4.692-2.73.196-4.37-1.66-4.55-4.086z" fill="#fff"/><path d="M1183.32 523.082l.26 3.302 2.53-3.52 2.63-.205-2.8 3.525 3.61 4.757-2.73.213-2.28-3.208-.76.958.19 2.473-2.23.174-.2-2.472-.91-.828-1.75 3.523-2.73.213 2.83-5.26-3.32-3.048 2.64-.205 3.05 3.084-.26-3.302 2.23-.174z" fill="#fff"/><path d="M1188.55 526.68c-.2-2.423 1.05-4.504 3.78-4.733 2.73-.229 4.15 1.626 4.35 4.049.02.191.03.48.03.48l-5.87.493c.2 1.268.83 2.179 2.17 2.066 1.35-.114 1.48-1.409 1.48-1.409l2.24-.188s-.23 2.99-3.66 3.278c-2.79.235-4.31-1.612-4.52-4.036zm3.92-3.059c-1.1.093-1.58.872-1.69 1.908l3.53-.296c-.23-1.009-.74-1.704-1.84-1.612zm11.42 5.823l-.3-3.267-3.1.278.29 3.267-2.23.199-.74-8.287 2.23-.199.29 3.267 3.11-.278-.3-3.267 2.24-.2.74 8.287-2.23.2zm10.88-9.466l.78 8.283-2.15.203-.13-1.353-.08.007s-.56 1.661-2.39 1.834c-2.31.219-3.09-1.234-3.27-3.145l-.49-5.097 2.23-.212.44 4.62c.14 1.433.59 2.033 1.63 1.935 1.19-.114 1.76-.891 1.61-2.563l-.41-4.301 2.23-.211zm1.53 4.13c-.24-2.42.98-4.52 3.7-4.79 2.72-.27 4.18 1.563 4.42 3.983.02.191.03.479.03.479l-5.86.582c.22 1.265.86 2.166 2.19 2.033 1.36-.134 1.47-1.432 1.47-1.432l2.23-.221s-.19 2.993-3.61 3.333c-2.79.277-4.33-1.547-4.57-3.967zm3.87-3.118c-1.1.109-1.57.895-1.66 1.933l3.52-.349c-.25-1.005-.76-1.693-1.86-1.584zm127.62-12.042l-.75-4.58c-.23-1.421-.62-2.007-1.49-1.866-.94.154-1.33.947-1.06 2.605l.69 4.265-2.21.359-1.34-8.213 2.14-.346.21 1.342.08-.012s.3-1.67 1.96-1.939c1.32-.215 2.14.301 2.61 1.213l.01-.018.08-.013s.46-1.695 2.11-1.964c2.06-.334 2.85 1.077 3.16 2.972l.82 5.054-2.21.359-.74-4.58c-.23-1.421-.62-2.007-1.49-1.866-.95.154-1.34.947-1.07 2.605l.7 4.264-2.21.359zm14.74-10.512l-1.53 8.926c-.34 1.985-1.04 3.088-2.7 3.359-.79.13-1.46-.004-1.46-.004l-.29-1.815s.5.08 1.05-.011c.79-.129 1.03-.607 1.23-1.417l-4.67-7.667 2.37-.388 2.9 5.087.73-5.682 2.37-.388zm3.36 10.798l-1.83-11.05 2.13-.352.19 1.105.08-.013s.48-1.459 2.3-1.759c2.37-.392 3.89 1.465 4.27 3.754.38 2.289-.47 4.537-2.84 4.928-1.73.287-2.62-.701-2.62-.701l-.08.013.61 3.71-2.21.365zm.98-7.298c.25 1.484 1.08 2.58 2.42 2.358 1.34-.222 1.77-1.526 1.53-3.01-.25-1.484-1.08-2.579-2.42-2.357-1.34.221-1.77 1.525-1.53 3.009zm13.41 1.663l-.54-3.235-3.08.513.54 3.235-2.21.368-1.37-8.207 2.21-.368.54 3.236 3.08-.513-.54-3.235 2.21-.369 1.36 8.207-2.2.368zm10.54-10.202l1.37 8.205-2.13.357-.22-1.341-.08.013s-.45 1.697-2.26 2.002c-2.29.384-3.17-1.009-3.49-2.903l-.85-5.049 2.21-.371.77 4.576c.24 1.42.74 1.985 1.77 1.813 1.18-.198 1.69-1.014 1.41-2.671l-.71-4.261 2.21-.37zm2.85 10.879l-1.87-11.044 2.13-.36.19 1.105.08-.014s.48-1.461 2.29-1.767c2.37-.401 3.9 1.45 4.29 3.738.38 2.287-.45 4.538-2.82 4.938-1.74.294-2.63-.69-2.63-.69l-.08.013.63 3.707-2.21.374zm.95-7.302c.25 1.483 1.09 2.575 2.43 2.349 1.34-.227 1.77-1.533 1.52-3.016s-1.09-2.575-2.43-2.348c-1.34.226-1.77 1.532-1.52 3.015zm17.51 2.775l-1.96-11.47 4.52-.774c.87-.148 1.64-.119 2.3.086.67.201 1.21.556 1.63 1.065.42.505.7 1.136.83 1.894.13.761.07 1.445-.16 2.05a3.282 3.282 0 01-1.21 1.498c-.57.398-1.3.671-2.18.822l-3.03.518-.33-1.949 2.63-.451c.47-.079.84-.208 1.12-.388.29-.179.48-.408.59-.688.11-.28.13-.608.07-.985-.07-.381-.2-.689-.4-.924a1.387 1.387 0 00-.79-.476c-.33-.086-.72-.089-1.19-.009l-1.64.279 1.62 9.487-2.42.415zm5.3-6.278l3.74 4.732-2.67.458-3.68-4.743 2.61-.447zm3.26-.421c-.41-2.397.66-4.578 3.35-5.042 2.7-.465 4.28 1.26 4.69 3.657.03.189.07.476.07.476l-5.81.999c.31 1.245 1.01 2.099 2.34 1.871 1.34-.231 1.36-1.533 1.36-1.533l2.21-.38s.02 2.998-3.37 3.582c-2.75.475-4.43-1.234-4.84-3.63zm3.64-3.387c-1.09.188-1.5 1.005-1.52 2.047l3.49-.6c-.32-.985-.89-1.634-1.97-1.447zm4.91 1.741c-.41-2.397.67-4.582 3.35-5.047 3.63-.629 4.42 2.562 4.42 2.562l-2.2.383s-.36-1.563-1.93-1.29c-1.41.244-1.69 1.527-1.43 3.009.26 1.481.95 2.595 2.36 2.351 1.57-.273 1.38-1.863 1.38-1.863l2.21-.383s.32 3.273-3.31 3.902c-2.68.465-4.43-1.228-4.85-3.624zm10.95-1.903c.26 1.481 1.04 2.58 2.44 2.335 1.4-.245 1.76-1.543 1.5-3.024-.26-1.482-1.03-2.58-2.44-2.335-1.4.245-1.76 1.542-1.5 3.024zm-2.2.386c-.42-2.396.72-4.594 3.41-5.065 2.7-.471 4.52 1.209 4.94 3.604.42 2.396-.72 4.593-3.42 5.065-2.69.471-4.52-1.209-4.93-3.604zm11.31 2.257l-1.51-8.595 2.31-.407.26 1.5.09-.016c.07-.561.26-1.01.58-1.348.32-.341.72-.554 1.2-.638a3.603 3.603 0 01.77-.049l.37 2.116a3.113 3.113 0 00-.48-.008c-.2.009-.39.027-.55.056-.35.062-.65.194-.9.395a1.74 1.74 0 00-.54.741c-.11.296-.13.62-.07.971l.86 4.862-2.39.42zm12-13.51l1.96 11.028-2.13.378-.2-1.103-.07.014s-.48 1.465-2.29 1.786c-2.36.42-3.91-1.418-4.31-3.702-.41-2.285.41-4.542 2.77-4.962 1.74-.308 2.64.669 2.64.669l.08-.014-.66-3.702 2.21-.392zm-.9 7.31c-.26-1.481-1.1-2.567-2.44-2.329-1.34.238-1.76 1.547-1.5 3.028.27 1.481 1.11 2.566 2.45 2.328 1.34-.237 1.76-1.546 1.49-3.027zm22.15-9.019l1.31 7.243c.43 2.362-.54 4.242-3.37 4.754-3.78.683-4.37-2.137-4.37-2.137l2.2-.398s.3 1.166 1.87.882c1.4-.253 1.75-1.129 1.49-2.546l-.07-.393-.08.014s-.51 1.23-2.24 1.543c-2.36.426-3.91-1.407-4.29-3.533-.39-2.125.42-4.386 2.78-4.812 1.81-.327 2.77.883 2.77.883l.07-.014-.2-1.102 2.13-.384zm-1.41 4.32c-.24-1.322-1.09-2.405-2.43-2.164-1.34.242-1.75 1.552-1.51 2.875s1.08 2.406 2.42 2.164c1.34-.242 1.75-1.552 1.52-2.875zm4.87-2.076l-2.21.403c-.25-2.116 1.31-3.085 3.2-3.432 1.96-.36 3.67.059 4.06 2.184l1.02 5.587-2.2.404-.29-1.574-.08.014s-.17 1.903-2.26 2.286c-1.5.274-2.73-.216-3-1.727-.28-1.527.85-2.45 2.14-3.044 1.3-.597 2.57-.944 2.41-1.857-.12-.645-.66-.936-1.53-.778-.94.174-1.39.646-1.26 1.534zm3.11 1.023c-.3.396-1.01.705-1.61.978-.67.303-1.21.774-1.07 1.498.11.63.62.942 1.33.813 1.5-.274 1.57-2.078 1.35-3.289zm9.73 2.991l-.85-4.561c-.26-1.416-.66-1.992-1.53-1.83-.94.176-1.31.977-1 2.629l.79 4.247-2.2.411-1.53-8.179 2.12-.397.25 1.337.08-.014s.26-1.676 1.91-1.984c1.32-.247 2.15.25 2.64 1.151l.01-.019.08-.014s.42-1.705 2.07-2.013c2.04-.382 2.87 1.009 3.22 2.897l.94 5.033-2.2.411-.85-4.561c-.26-1.416-.66-1.992-1.53-1.831-.94.176-1.31.978-1.01 2.63l.8 4.246-2.21.411zm7.97-5.727c-.45-2.389.58-4.589 3.27-5.101 2.69-.512 4.3 1.185 4.75 3.574.04.188.07.474.07.474l-5.78 1.102c.33 1.24 1.05 2.081 2.37 1.829 1.33-.254 1.33-1.557 1.33-1.557l2.2-.419s.08 2.998-3.3 3.642c-2.75.524-4.45-1.155-4.91-3.544zm3.58-3.451c-1.08.207-1.48 1.032-1.48 2.074l3.48-.662c-.34-.979-.91-1.618-2-1.412zm6.27 3.039l2.12-.412s.27 1.413 2 1.077c1.18-.229 1.39-.839 1.29-1.311-.33-1.727-5.26.615-5.87-2.526-.27-1.414.83-2.851 3.03-3.278 3.14-.611 3.97 1.104 4.12 1.889l-2.12.412s-.21-1.099-1.71-.809c-.86.168-1.25.699-1.15 1.202.28 1.413 5.26-.615 5.86 2.447.3 1.571-.8 3.009-3.16 3.466-3.22.626-4.23-1.215-4.41-2.157zm127.92-20.341l-.74-3.196-3.04.7.74 3.196-2.19.503-1.86-8.107 2.18-.503.73 3.196 3.05-.7-.74-3.197 2.18-.502 1.87 8.107-2.18.503zm4.74-6.473l-2.18.507c-.36-2.102 1.15-3.144 3.02-3.579 1.95-.453 3.67-.114 4.16 1.99l1.29 5.533-2.18.507-.36-1.558-.08.018s-.08 1.908-2.16 2.39c-1.48.344-2.73-.088-3.08-1.584-.35-1.512.74-2.488 2-3.142 1.28-.658 2.53-1.064 2.32-1.968-.15-.639-.7-.904-1.56-.705-.94.217-1.36.711-1.19 1.591zm3.16.875c-.28.41-.98.752-1.56 1.053-.67.334-1.17.831-1.01 1.547.15.624.67.912 1.38.749 1.48-.344 1.47-2.149 1.19-3.349zm2.9-.875c-.55-2.368.4-4.613 3.05-5.233 3.58-.839 4.56 2.3 4.56 2.3l-2.18.511s-.44-1.54-2-1.175c-1.38.325-1.59 1.622-1.25 3.086.35 1.464 1.11 2.535 2.49 2.211 1.56-.365 1.27-1.941 1.27-1.941l2.18-.511s.52 3.248-3.06 4.087c-2.65.621-4.5-.967-5.06-3.335zm14.06 1.209l-1.06-4.517c-.33-1.401-.76-1.958-1.62-1.756-.93.22-1.27 1.038-.88 2.674l.99 4.204-2.18.514-1.91-8.098 2.1-.495.32 1.323.07-.018s.18-1.686 1.82-2.071c1.31-.309 2.15.149 2.69 1.026l.01-.02.08-.018s.33-1.722 1.97-2.108c2.02-.477 2.92.874 3.36 2.742l1.17 4.984-2.18.514-1.06-4.516c-.33-1.402-.76-1.959-1.62-1.757-.93.22-1.27 1.039-.88 2.674l.99 4.205-2.18.514zm9.1-6.716c.35 1.464 1.19 2.514 2.57 2.185 1.39-.329 1.67-1.646 1.32-3.109-.35-1.463-1.19-2.513-2.57-2.184-1.39.329-1.67 1.645-1.32 3.108zm-2.18.518c-.56-2.366.45-4.629 3.11-5.261 2.66-.632 4.58.935 5.14 3.302.56 2.366-.45 4.628-3.11 5.26-2.66.632-4.58-.935-5.14-3.301zm15.19-8.138l1.94 8.091-2.18.522-.7-2.957-1.56.373-.58 3.266-2.45.585.85-3.741c-1.04-.212-1.7-.859-1.94-1.839-.37-1.556.63-2.865 2.89-3.406l3.73-.894zm-2.56 4.398l1.24-.298-.48-2.022-1.25.298c-1.16.279-1.56.702-1.39 1.402.17.701.71.9 1.88.62zm10.95-6.422l1.09 4.509c.34 1.4.77 1.954 1.62 1.747.94-.226 1.26-1.047.87-2.68l-1.02-4.198 2.18-.528 1.96 8.086-2.1.509-.32-1.322-.08.019s-.17 1.687-1.8 2.083c-1.31.316-2.14-.124-2.69-.993l-.1.022s-.32 1.725-1.95 2.12c-2.02.491-2.93-.855-3.38-2.721l-1.2-4.976 2.17-.527 1.1 4.509c.34 1.4.77 1.954 1.62 1.746.93-.226 1.26-1.046.87-2.679l-1.02-4.198 2.18-.528zm7.11 3.873l1.17 4.821-.63.151-1.16-4.821.62-.151zm3.34-3.791l-2.18.536c-.38-2.097 1.12-3.159 2.98-3.618 1.94-.478 3.67-.162 4.19 1.936l1.35 5.515-2.17.535-.38-1.553-.08.019s-.06 1.909-2.12 2.418c-1.48.363-2.74-.052-3.1-1.544-.37-1.507.7-2.496 1.95-3.167 1.27-.675 2.52-1.097 2.29-1.998-.15-.637-.71-.895-1.56-.685-.94.23-1.36.729-1.17 1.606zm3.17.834c-.28.414-.97.765-1.55 1.074-.66.343-1.16.845-.98 1.56.15.621.68.903 1.38.73 1.47-.363 1.44-2.168 1.15-3.364zm10.08-7.014l2.02 8.071-2.18.544-.73-2.949-1.56.389-.55 3.271-2.43.611.81-3.749c-1.04-.202-1.72-.842-1.96-1.82-.39-1.552.6-2.871 2.85-3.435l3.73-.933zm-2.52 4.425l1.24-.311-.51-2.018-1.24.311c-1.16.292-1.55.719-1.38 1.417.18.699.72.893 1.89.601zm12.42 2.412l-2.08-8.056 2.17-.56.84 3.254 2.02-3.993 2.56-.659-2.23 3.928 4.46 4.088-2.65.684-2.91-2.835-.65 1.142.64 2.448-2.17.559z" fill="#fff"/><path d="M1742.12 428.773c.39 1.453 1.26 2.479 2.64 2.11 1.37-.368 1.62-1.692 1.23-3.144-.39-1.453-1.26-2.479-2.64-2.111-1.37.369-1.62 1.692-1.23 3.145zm-2.16.579c-.63-2.349.31-4.639 2.96-5.346 2.64-.708 4.6.804 5.23 3.153.63 2.349-.31 4.64-2.96 5.347-2.64.708-4.6-.804-5.23-3.154zm18.66-9.147l2.23 8.014-2 .559-1.57-5.625-.08.021-.2 6.12-2 .559-3.34-5.13-.08.021 1.57 5.625-2 .56-2.24-8.014 3.23-.903 3.17 5.096.07-6 3.24-.903zm4.32 1.135l-2.15.62c-.47-2.081.99-3.2 2.84-3.731 1.92-.552 3.66-.303 4.25 1.773l1.57 5.459-2.15.619-.44-1.538-.08.022s.02 1.91-2.03 2.498c-1.46.421-2.73.054-3.15-1.422-.43-1.492.6-2.522 1.83-3.241 1.24-.723 2.47-1.193 2.21-2.085-.18-.631-.75-.867-1.59-.624-.93.266-1.33.781-1.11 1.65zm3.2.711c-.26.425-.93.802-1.5 1.133-.65.368-1.13.89-.93 1.597.18.615.72.875 1.41.676 1.46-.42 1.36-2.222 1.02-3.406zm9.77 1.935l-.92-3.148-3 .88.93 3.147-2.15.631-2.35-7.983 2.15-.631.93 3.147 2.99-.879-.93-3.147 2.15-.632 2.35 7.983-2.15.632zm9.31-12.449l2.11 7.053c.69 2.299-.06 4.275-2.82 5.099-3.68 1.098-4.58-1.639-4.58-1.639l2.15-.64s.42 1.127 1.95.669c1.36-.407 1.61-1.316 1.2-2.695l-.12-.384-.07.023s-.37 1.279-2.06 1.783c-2.3.686-4.04-.964-4.66-3.034-.62-2.07-.06-4.406 2.24-5.092 1.76-.527 2.84.571 2.84.571l.07-.023-.32-1.073 2.07-.618zm-.92 4.451c-.39-1.288-1.35-2.27-2.65-1.881-1.3.388-1.57 1.737-1.18 3.025.38 1.287 1.34 2.27 2.64 1.881 1.31-.389 1.57-1.737 1.19-3.025zm5.56-2.479l-2.14.649c-.5-2.074.95-3.213 2.78-3.769 1.92-.579 3.66-.354 4.28 1.714l1.65 5.436-2.15.649-.46-1.531-.08.023s.05 1.909-1.99 2.526c-1.45.44-2.73.091-3.18-1.379-.44-1.486.58-2.531 1.79-3.266 1.23-.74 2.46-1.228 2.19-2.116-.19-.628-.76-.856-1.61-.601-.92.278-1.31.798-1.08 1.665zm3.21.667c-.25.428-.92.814-1.49 1.153-.64.377-1.11.905-.9 1.61.19.612.73.865 1.42.657 1.45-.441 1.33-2.241.97-3.42z" fill="#fff"/></svg>