<svg width="24" height="22" fill="none" xmlns="http://www.w3.org/2000/svg"><path fill-rule="evenodd" clip-rule="evenodd" d="M23.28 1.58c-.42-1.17-1.73-1.11-2.94-1-.56.08-1.24-.24-1.29.21a.29.29 0 00.18.31c.39.06.785.094 1.18.1.78-.07 1.92-.17 2.15.58.85 2.82.12 5.52.33 16.49a11.69 11.69 0 010 2.3c-.06 0-.21.07-.37.08-.52 0-2.84-.1-2.88-.08a.33.33 0 000 .62c.08 0 2.54.22 2.95.22.303.016.604-.065.86-.23.53-.51.33-2.34.34-2.91.21-9.74.55-13.79-.51-16.69zM3.66.63C2.44.47 1.14.41.72 1.63-.32 4.45 0 8.07.21 18.32c0 .59-.19 2.41.34 2.91.256.167.557.247.86.23.41 0 2.87-.18 3-.22a.33.33 0 000-.62s-2.36.11-2.88.08c-.16 0-.31-.11-.37-.08a12.55 12.55 0 010-2.3C1.32 7.41.58 4.66 1.44 1.83c.23-.75 1.37-.65 2.15-.58a8.68 8.68 0 001.18-.1.26.26 0 00.17-.31C4.9.39 4.21.71 3.66.63zm13.06 9.92c-.81-.08-2.76 1.16-3.39 1.8-.18-1.85-.74-7.45-1-8.19a.272.272 0 00-.233-.225.27.27 0 00-.277.385c.28.94.63 7.78.76 8.7.09.66.77.59 1.19.05a6.899 6.899 0 012.63-1.55c0-.08 0 1-1.89 3.16-.7.81-2.81 3.05-3.61 2.32a17.57 17.57 0 01-3.33-5.25c1.37.58 2.41 2 2.94 2a.49.49 0 00.4-.52c-.13-1.27-.27.88.75-9a.3.3 0 00-.6 0c0-.08-1.2 6.22-1 8.19-.77-.65-1.66-1.57-2.75-1.6a.6.6 0 00-.58.32c-.27.6.32 1.58.47 2a16.001 16.001 0 002.48 3.95c.45.51.79 1.15 1.69 1.08 2.22-.16 7.1-5.8 5.77-7.4a.571.571 0 00-.42-.22z" fill="#EC6118"/></svg>