<svg width="34" height="35" fill="none" xmlns="http://www.w3.org/2000/svg"><path d="M33.83 14.518a19.466 19.466 0 00-.992-4.25 14.068 14.068 0 00-4.788-6.375A15.215 15.215 0 0020.726.961a.51.51 0 00-.553.425.496.496 0 00.425.538 14.053 14.053 0 016.786 2.904 12.935 12.935 0 014.25 5.922c.463 1.278.782 2.604.95 3.953.12 1.352.12 2.713 0 4.065a14.831 14.831 0 01-.922 3.896 17.41 17.41 0 01-1.827 3.584 13.656 13.656 0 01-6.39 4.959 17.807 17.807 0 01-8.13 1.204 17 17 0 01-4.478-1.006 13.388 13.388 0 01-3.924-2.267 16.334 16.334 0 01-5.355-10.086A15.116 15.116 0 014.08 7.902 16.504 16.504 0 018.5 3.696a13.175 13.175 0 015.766-1.927c1.006-.099 1.997-.184 3.003-.184.663 0 1.326.043 1.983.128a.425.425 0 10.128-.836A15.159 15.159 0 0017.283.62c-1.04-.01-2.08.037-3.116.142a14.28 14.28 0 00-6.205 2.025A17.821 17.821 0 003.117 7.18 16.278 16.278 0 00.156 19.236a17.793 17.793 0 005.737 11.12 14.834 14.834 0 004.392 2.58c1.583.58 3.236.952 4.916 1.104a19.565 19.565 0 008.882-1.36 15.045 15.045 0 007.013-5.667 19.097 19.097 0 001.94-3.924 16.37 16.37 0 00.921-4.25 24.52 24.52 0 00-.127-4.32z" fill="#113975"/><path d="M26.605 11.317a2.65 2.65 0 00-1.29-.227 11.458 11.458 0 00-1.855-.24 13.347 13.347 0 00-1.842 0c-.92.084-1.785.268-2.677.297a.425.425 0 00-.457.538.424.424 0 00.372.312 16.04 16.04 0 003.116.425h1.162a2.167 2.167 0 00.142 2.436c.23.308.532.556.878.723a2.381 2.381 0 003.64-1.729 2.408 2.408 0 00-1.19-2.535zm-21.25.623a.425.425 0 00.467.368c1.091 0 2.225.071 3.4.071H10.3a2.251 2.251 0 00.284 3.287 2.946 2.946 0 004.051-1.148 2.494 2.494 0 00-.099-2.28.481.481 0 00-.184-.879 15.223 15.223 0 00-3.018-.609H10.03c-.44.005-.88.038-1.317.1-1.02.155-2.012.41-2.961.65a.425.425 0 00-.397.44zm3.542 14.393a.425.425 0 00.51-.311 6.38 6.38 0 01.651-1.417c.3-.462.631-.902.992-1.317a7.437 7.437 0 013.995-2.451 9.022 9.022 0 013.145-.184c1.064.13 2.101.427 3.074.878a9.52 9.52 0 013.726 3.017c.44.555.852 1.132 1.232 1.729.212.361.352.76.411 1.176a.496.496 0 00.539.439.496.496 0 00.425-.539 4.25 4.25 0 00-.44-1.572c-.325-.652-.765-1.26-1.161-1.898a10.668 10.668 0 00-4.888-4.137c-.87-.36-1.785-.598-2.72-.708a9.067 9.067 0 00-3.754.297 8.345 8.345 0 00-4.477 3.273 11.42 11.42 0 00-1.119 1.827c-.203.455-.36.93-.467 1.417a.425.425 0 00.326.481zM7.565 8.384a3.697 3.697 0 011.417-1.416 3.953 3.953 0 011.855-.581 3.67 3.67 0 011.97.34 2.62 2.62 0 011.416 1.275.496.496 0 00.595.354.482.482 0 00.34-.595 3.625 3.625 0 00-1.686-2.28 5.015 5.015 0 00-2.762-.752 4.845 4.845 0 00-2.508 1.12 4.533 4.533 0 00-1.416 2.238.44.44 0 00.297.552.425.425 0 00.482-.255zm15.583-3.782a4.25 4.25 0 00-2.833 1.02 3.556 3.556 0 00-1.148 2.606.425.425 0 00.369.468.425.425 0 00.481-.369 2.537 2.537 0 011.233-1.629 3 3 0 01.723-.297 3.457 3.457 0 011.147-.156c.68.01 1.342.211 1.912.58a2.706 2.706 0 011.29 1.517.485.485 0 10.963-.114 3.768 3.768 0 00-1.417-2.507 4.973 4.973 0 00-2.72-1.12z" fill="#113975"/></svg>