<svg viewBox="0 0 600 8"><path d="M0 1c4.92 0 4.92 6 9.83 6s4.92-6 9.83-6 4.92 6 9.83 6 4.92-6 9.83-6 4.92 6 9.83 6S54.08 1 59 1s4.92 6 9.83 6 4.92-6 9.83-6 4.92 6 9.83 6 4.92-6 9.84-6 4.92 6 9.83 6 4.92-6 9.83-6 4.92 6 9.83 6 4.92-6 9.84-6 4.92 6 9.83 6 4.92-6 9.83-6 4.92 6 9.83 6 4.92-6 9.84-6 4.92 6 9.83 6 4.92-6 9.83-6 4.92 6 9.84 6 4.92-6 9.84-6 4.92 6 9.83 6 4.92-6 9.84-6 4.92 6 9.84 6 4.92-6 9.83-6 4.92 6 9.84 6 4.92-6 9.84-6 4.92 6 9.84 6 4.91-6 9.81-6 4.92 6 9.84 6 4.92-6 9.84-6 4.92 6 9.84 6 4.92-6 9.84-6 4.92 6 9.84 6 4.92-6 9.84-6 4.92 6 9.84 6 4.92-6 9.84-6 4.92 6 9.84 6 4.92-6 9.83-6 4.92 6 9.84 6 4.92-6 9.83-6 4.92 6 9.84 6 4.92-6 9.83-6 4.92 6 9.84 6 4.92-6 9.83-6 4.92 6 9.84 6 4.92-6 9.84-6 4.92 6 9.84 6 4.92-6 9.84-6 4.92 6 9.84 6 4.92-6 9.84-6 4.92 6 9.84 6 4.92-6 9.84-6 4.92 6 9.84 6 4.92-6 9.84-6 4.92 6 9.84 6 4.92-6 9.84-6 4.92 6 9.84 6 4.92-6 9.85-6 4.92 6 9.85 6"/></svg>