<svg width="95" height="95" fill="none" xmlns="http://www.w3.org/2000/svg"><circle cx="47.5" cy="47.5" r="47.5" fill="#D74C03"/><path d="M28.787 22.726c-.456.095-.798.266-.76.36.038.096.627.609 1.311 1.16 2.47 1.976 4.465 4.902 4.674 6.878l.114.855-1.71 1.767c-1.805 1.88-2.698 3.04-3.61 4.712-.969 1.748-.931 2.07.095.57 2.223-3.306 4.921-5.738 8.113-7.315 5.814-2.888 12.806-3.325 20.976-1.33 1.083.266 2.09.55 2.242.646.589.323-.133.418-1.596.228-3.477-.475-7.087-.78-9.253-.78-9.367 0-15.922 3.82-19.418 11.325-.456.969-1.026 1.9-1.254 2.09-.247.17-3.002 1.406-6.118 2.736-3.135 1.33-5.738 2.527-5.776 2.66-.076.209.494.228 3.021.133 4.408-.19 8.208-.874 13.889-2.527 2.356-.684 8.455-2.85 8.797-3.116.304-.247 5.282-1.862 7.315-2.375 5.035-1.273 9.975-1.71 17.746-1.558 2.945.038 5.491.152 5.681.228.532.228.38.532-.95 1.919-1.254 1.273-4.37 3.686-4.788 3.686-.114 0-.285-.171-.399-.38-.266-.494-.418-.475-1.102.095-.722.608-.969.589-1.501-.057l-.437-.513-.665.703c-.361.399-.741.722-.855.722-.095 0-.437-.38-.779-.855s-.646-.855-.684-.855c-.019 0-.266.418-.532.93-.247.514-.551.989-.646 1.046-.095.076-.456-.266-.798-.741s-.703-.855-.798-.855c-.095 0-.38.17-.646.38-.703.55-.912.475-1.292-.38l-.342-.78-.361.78c-.19.418-.437.76-.532.76-.095 0-.38-.285-.646-.627l-.494-.608-.228.608c-.133.342-.323.627-.437.627-.095 0-.494-.475-.855-1.045s-.722-1.045-.798-1.045c-.095 0-.152.855-.152 1.88 0 1.54.057 1.958.342 2.319l.361.418.437-.78c.247-.436.513-.797.57-.797.076 0 .551.437 1.045.988l.931.969.247-.59c.133-.341.304-.607.38-.607.076 0 .589.437 1.121.969l.988.969.57-.627.57-.627.893.817.912.836.494-.608c.608-.741.931-.741 1.634-.02.684.704.798.704.95.02.057-.304.228-.665.38-.78.418-.341.931.59.779 1.388-.152.836-.798 1.425-1.919 1.767-1.767.532-3.458.323-7.695-.97a715.212 715.212 0 00-4.18-1.234c-2.033-.551-6.08-1.14-8.018-1.14-1.71 0-5.206.57-5.795.95-.323.209-.323.209 0 .114 1.444-.456 4.218-.722 6.213-.627 2.603.152 4.161.513 9.215 2.128 4.636 1.482 6.289 1.938 7.828 2.09 2.28.247 4.237-.532 5.187-2.09.532-.855.57-2.147.095-2.87-.399-.607-.266-.93.399-1.101 1.159-.304 2.831-1.311 5.529-3.363 3.401-2.584 5.377-4.218 6.498-5.358l.836-.855-1.786-.912c-2.052-1.045-5.111-2.546-5.206-2.546-.038 0-1.881-.817-4.123-1.824-4.427-2.014-6.878-2.888-9.88-3.515-1.691-.38-2.622-.437-6.783-.475l-4.826-.057-2.204-1.311c-3.724-2.242-5.757-3.116-8.759-3.743-1.52-.323-5.681-.361-6.992-.057zm24.719 14.04c.912.457 1.653.932 1.653 1.046 0 .285-1.843.513-2.793.342-1.026-.171-2.128-.836-2.451-1.444-.266-.532-.361-1.33-.152-1.54.133-.113 1.254.343 3.743 1.597z" fill="#ECECEC"/><path d="M50.917 54.249c-3.857.912-7.733 7.258-7.733 12.635 0 4.047 1.976 6.346 4.959 5.776 1.843-.361 3.857-2.014 5.51-4.56.988-1.52 1.444-1.9 1.254-1.102-.342 1.501-.931 5.111-.855 5.206.057.057.95-.152 1.976-.437l1.862-.551.323-2.166c.19-1.197.342-2.223.342-2.261.019-.038.133.019.266.133.133.133.665 1.292 1.178 2.603.494 1.311 1.007 2.375 1.12 2.375.115-.019.628-.399 1.14-.855.533-.475 1.027-.855 1.122-.855.095 0 .114.437.038 1.045-.152 1.235-.19 1.216 1.805.646 5.49-1.52 10.07-6.954 10.07-11.951 0-2.242-.988-3.933-2.698-4.636-1.007-.418-2.964-.38-4.96.114l-1.69.418-.95-.532c-.912-.513-1.045-.532-2.793-.456-1.786.095-4.824.396-5.204.757-.095.114-.306.991-.42 1.542-.095.551-.266.988-.361.988-.076 0-.304-.418-.494-.931-.95-2.451-2.603-3.477-4.807-2.945zm2.564.994c1.008.583 1.712 1.628 2.11 3.87.514 2.831-.629 6.536-2.814 9.5-1.083 1.482-2.75 2.888-3.87 3.287-4.222 1.056-6.003-2.337-4.331-8.303 1.614-5.814 5.77-9.76 8.905-8.354zm11.09.583s.892.35.873 1.528c-.02 1.235-1.408 2.815-2.576 4.574l-1.295 1.407 1.162 2.238c1.406 2.945 1.433 3.042-.106 4.448-.646.608-1.236 1.055-1.407 1.055-.21 0-.425-.782-1.223-2.815-.627-1.596-1.368-2.764-1.444-2.688-.076.095-.64 1.608-.852 2.688-.205 1.042-.352 2.815-.352 2.815l-2.432.533s-.43.095-.43 0c0-.171.448-2.203 1.455-7.922.323-1.786.68-3.89.89-5.087.208-1.197.441-2.245.517-2.302.095-.076.685-.18 1.407-.352 3.167-.351 5.813-.12 5.813-.12zm8.262.12c1.159.59 2.038 2.407 2.038 3.984 0 1.159-.556 2.998-1.335 4.461-1.729 3.344-4.721 5.628-8.312 6.654-1.425.418-1.188.735-.836-.672.114-.59.17-1.323.17-1.323l.182-1.14s1.636-11.27 2.111-11.612c.152-.133.761-.491 1.521-.624.76-.133 1.55-.247 1.646-.266.417-.083 2.32.291 2.815.538zm-7.61 4.877c0 .19-.113.931-.265 1.672-.133.722-.361 1.957-.494 2.698-.133.817-.323 1.387-.456 1.387-.19 0-1.482-2.318-1.672-2.983-.057-.247 2.47-3.078 2.755-3.097.076 0 .133.152.133.323z" fill="#fff"/><path d="M50.31 60.087c-1.572.59-2.81 3.253-2.81 3.253s-.754 1.652-.703 2.815c.039.881.17 1.57.72 2.14 1.52 1.501 4.01.02 4.902-2.926.665-2.242.482-4.557-.38-5.282-.316-.265-1.02-.265-1.729 0zm1.413.79c.437.494.64 2.692.316 3.87-.855 2.984-2.075 4.223-3.835 3.52-1.12-.95-.873-3.199.704-5.63 1.292-1.996 2.463-2.158 2.815-1.76zm8.447-1.761c-.227.038-.38.304-.493.437-.266.323-.452 1.995-.205 1.843.114-.076.247-.456.323-.874.114-.703.19-.779.893-.969.874-.247.89.267.89.619-.285.836-1.407 1.407-1.759 1.407-.133-.418-.632.045-.708.634-.057.304-.038.57.019.57.304 0 2.109-1.368 2.45-1.843.97-1.387.339-2.166-1.41-1.824zm9.018.524c-.342.228-1.98 8.617-1.433 8.759.096.095 1.635-1.691 2.338-2.698 1.614-2.28 2.07-4.56 1.12-5.491-.246-.266-.415-.365-.74-.475a2.856 2.856 0 00-.532-.095s-.639-.076-.753 0zm1.539.876c.988.798.266 2.999-1.539 5.393-1.026 1.33-1.014 1.54-.862.229.152-1.216.779-4.446 1.083-5.51.17-.551.272-.464.614-.464.247 0 .457.162.704.352zm-47.776-5.333c-2.09.38-3.686.798-3.857 1.007-.114.133-.76 3.477-1.444 7.448-.702 3.97-1.31 7.448-1.367 7.714l-.096.513 1.54-.38c1.197-.304 1.596-.494 1.71-.798.075-.228.303-1.425.493-2.66.21-1.254.457-2.3.552-2.337.114-.02.399.475.646 1.14.912 2.394 1.785 4.598 1.843 4.674.038.038.588-.418 1.253-1.007 1.502-1.33 1.73-1.368 1.578-.171-.076.513-.171 1.064-.229 1.254-.076.285-.018.342.267.247.912-.285 3.762-.874 5.567-1.16 1.082-.17 2.013-.341 2.07-.38.039-.056.115-.911.172-1.918l.094-1.843-1.026.114c-.57.076-1.482.19-2.014.247l-1.006.133.018-.551c.058-1.406.114-1.463 2.262-1.9l1.994-.4.096-1.367c.114-1.54.151-1.52-1.578-1.064-1.595.418-1.842.38-1.842-.247 0-.285.114-.893.266-1.368l.247-.855 1.976-.285 1.975-.285.134-1.045c.056-.57.114-1.406.133-1.862.019-.76 0-.798-.551-.798-.456 0-3.04.36-6.023.855-.513.095-.627.209-.741.76-.133.74-.456 1.083-.456.494 0-1.558-2.014-2.394-4.655-1.92zm3.971 8.284c-.437 2.679-.779 4.237-.912 4.218-.266-.076-2.184-3.914-2.204-4.37 0-.171.304-.57.684-.855.894-.703 2.47-2.755 2.775-3.63.247-.702.247-.702.303-.17.038.285-.247 2.45-.646 4.807zm-2.983-3.971c.19.494-.512 1.577-1.614 2.47-.552.456-1.102.817-1.216.817-.229 0-.115-1.216.246-2.508.21-.817.608-1.064 1.748-1.083.494-.02.76.076.836.304zm16.647-4.103c-2.432.93-4.864 4.199-5.776 7.714-1.045 4.085.114 7.904 2.584 8.607 1.387.38 2.565.038 4.332-1.292.665-.513.893-.817.893-1.197 0-.437-.323-1.653-.513-1.862-.038-.057-.342.19-.703.532-.722.703-1.88.969-2.565.589-1.52-.798-1.5-3.344.076-6.175 1.14-2.052 2.432-2.964 3.648-2.546.361.114.665.17.684.133.02-.02.532-.59 1.14-1.235 1.083-1.178 1.102-1.197.817-1.748-.399-.741-1.31-1.482-2.166-1.73-.969-.265-1.31-.227-2.45.21z" fill="#ECECEC"/></svg>