<svg width="32" height="31" fill="none" xmlns="http://www.w3.org/2000/svg"><path fill-rule="evenodd" clip-rule="evenodd" d="M19.805 13.621c-3.197.125-6.723-.876-12.183-.186a.467.467 0 00.054.924c3.988-.006 6.707 1.129 12.224.079a.413.413 0 00-.095-.817z" fill="#113975"/><path fill-rule="evenodd" clip-rule="evenodd" d="M12.635 8.047c.125 3.196-.877 6.722-.187 12.183a.467.467 0 00.925-.054c-.006-3.988 1.129-6.708.079-12.224a.413.413 0 00-.817.095z" fill="#113975"/><path fill-rule="evenodd" clip-rule="evenodd" d="M28.96 22.656l-1.187-.986c-2.2-1.494-2.44-1.707-2.746-1.867a12.987 12.987 0 00.72-12A13.494 13.494 0 002.92 5.536c-6.173 7.72-2.373 19.8 8.933 21.587a11.16 11.16 0 004.427 0 .48.48 0 10-.28-.92c-1.32.266-2.68.266-4 0C1.773 24.283-1.333 13.39 4.2 6.576A12.067 12.067 0 0124.453 8.47c3 6.213-.666 13.52-5.693 16.533a.493.493 0 10.493.853 15.798 15.798 0 005.24-5.173c2.2 1.427 5.334 4 5.907 6.48a1.693 1.693 0 01-.68 1.96c-.733.547-3.387-1.133-4.107-1.72-1.72-1.333-2.173-1.747-2.773-2.32-.6-.573-.76-.427-.827-.173-.066.253-.2.32.16.666A29.795 29.795 0 0025 28.656c1.533 1.334 4 2.907 5.653 1.734 2.787-2.107.854-5.36-1.693-7.734z" fill="#113975"/></svg>