<svg width="563" height="477" fill="none" xmlns="http://www.w3.org/2000/svg"><path d="M179.2-56S-39.738 95.553-54.623 109.09c-19.724 17.937-40.252 36.967-56.391 58.534-9.494 12.687-19.435 30.18-12.866 46.639 8.278 20.742 38.139 23.453 56.29 25.355 50.28 5.268 102.38-.433 151.882-9.704 49.874-9.34 98.424-24.723 147.258-38.501 27.896-7.87 56.475-17.512 85.239-21.389 19.802-2.67 16.298 25.893 14.073 40.17-3.898 25.01-18.98 43.34-37.192 59.16-29.026 25.216-61.037 46.018-88.455 73.351-26.754 26.67-65.84 62.988-54.213 123.271 16.092 83.422 133.717 60.721 183.278 67.564C393.674 541.741 453.145 545.998 513 547" stroke="#E9EFF4" stroke-width="100" stroke-linecap="round"/></svg>