<svg width="48" height="51" fill="none" xmlns="http://www.w3.org/2000/svg"><path fill-rule="evenodd" clip-rule="evenodd" d="M47.12 48.698a11.187 11.187 0 01-2.487-1.036 7.083 7.083 0 01-1.906-1.72l-1.077-1.76c-.103-.207-.186-.663-.29-.85a1.118 1.118 0 00-.497-.455.848.848 0 00-1.16.393l-.932 1.74a8.68 8.68 0 01-4.143 2.176 6.028 6.028 0 01-4.413-.435 4.577 4.577 0 01-1.077-.912 5.488 5.488 0 01-.787-1.243c0-.124-.497-1.201-.746-1.595a1.305 1.305 0 00-1.346-.663 1.555 1.555 0 00-.85.518c-.352.414-.953 1.533-1.098 1.72a11.41 11.41 0 01-1.429 1.574 5.718 5.718 0 01-1.616 1.098 9.281 9.281 0 01-4.682.683 7.664 7.664 0 01-4.37-1.802c-.746-.683-1.492-2.071-2.32-2.9a4.016 4.016 0 00-.995-.767 1.036 1.036 0 00-1.18.373l-.29.746-1.43 2.072a8.391 8.391 0 01-2.072 2.071 4.267 4.267 0 01-2.693.705.627.627 0 00-.165 1.242 5.138 5.138 0 002.9-.414 9.177 9.177 0 003.335-2.61l1.533-2.072.166.228c.639.976 1.33 1.916 2.071 2.818a9.653 9.653 0 005.2 2.651 11.56 11.56 0 005.924-.745 8.663 8.663 0 001.803-1.326c.767-.67 1.462-1.42 2.071-2.238l.125-.165c.284.541.64 1.043 1.056 1.491a6.215 6.215 0 001.678 1.367 8.286 8.286 0 006.007.477 10.896 10.896 0 005.076-2.9c.177-.195.33-.411.455-.642l.87 1.305a8.41 8.41 0 002.445 2.071c.942.511 1.954.881 3.004 1.098a.709.709 0 00.373-1.367h-.042z" fill="#113975"/><path fill-rule="evenodd" clip-rule="evenodd" d="M7.262 30.157a13.86 13.86 0 002.942 2.072c.911.456 2.382 1.036 3.625 1.74a4.743 4.743 0 011.72 1.367 10.13 10.13 0 01.994 3.75 17.9 17.9 0 010 3.998.6.6 0 00.497.746.623.623 0 00.746-.497 19.66 19.66 0 00.186-5.241 10.626 10.626 0 00-.829-3.605 5.449 5.449 0 00-1.657-1.823 39.999 39.999 0 00-4.143-2.424 12.55 12.55 0 01-2.403-1.802 6.648 6.648 0 01-1.512-2.279 2.279 2.279 0 01.476-2.278 2.238 2.238 0 012.175-.974 5.49 5.49 0 012.383 1.43c1.18 1.077 2.133 2.506 3.252 3.562a.683.683 0 00.787 0 .456.456 0 00.29 0 .62.62 0 00.352-.808l-3.376-9.57a24.28 24.28 0 01-.912-3.708 6.878 6.878 0 010-2.258 2.423 2.423 0 011.202-1.678 1.347 1.347 0 011.657.228 10.233 10.233 0 012.486 4.537 32.789 32.789 0 011.512 8.286.706.706 0 00.373.6.684.684 0 00.476.208.663.663 0 00.601-.643v-9.156a41.017 41.017 0 01.207-6.214 13.983 13.983 0 011.015-3.75c.353-.829.83-1.16 1.388-.974a3.295 3.295 0 011.74 1.927c.392.966.67 1.974.83 3.004a36.34 36.34 0 01.393 4.91v7.333c0 1.118 0 1.905-.104 3.128.01.158.01.317 0 .476a.725.725 0 00.86.826.705.705 0 00.549-.577 31.33 31.33 0 00.56-4.537v-4.723c.051-1.212.204-2.418.455-3.605a5.159 5.159 0 011.18-2.672 1.844 1.844 0 012.694-.166 4.889 4.889 0 011.512 3.418 22.167 22.167 0 01-.456 5.739c-.621 3.003-1.595 5.903-2.3 8.762a.709.709 0 001.368.373l.56-1.74a29.24 29.24 0 011.801-4.143 5.386 5.386 0 012.673-2.362c1.077-.414 1.885.27 2.382 1.181a5.2 5.2 0 01.497 3.522 22.31 22.31 0 01-2.651 6.007 86.122 86.122 0 00-5.034 9.28 17.072 17.072 0 00-1.181 4.392.71.71 0 001.409.187c.24-1.362.68-2.682 1.305-3.915a85.085 85.085 0 015.448-8.763 23.2 23.2 0 003.045-6.65 7.333 7.333 0 00-1.512-6.214 3.667 3.667 0 00-4.495-.995 7.103 7.103 0 00-1.14.725c.448-1.76.678-3.57.684-5.386A6.733 6.733 0 0033.55 5.88a4.143 4.143 0 00-4.847 1.015s-.145.228-.228.31a14.495 14.495 0 00-.767-3.127A5.178 5.178 0 0023.441.555a3.5 3.5 0 00-3.252 2.507 15.702 15.702 0 00-1.036 4.433 26.928 26.928 0 000 3.873 9.218 9.218 0 00-1.885-2.962 3.604 3.604 0 00-4.288-.663 4.765 4.765 0 00-2.466 3.335 8.288 8.288 0 000 3.108 23.85 23.85 0 001.243 4.04l2.57 5.841a15.005 15.005 0 00-1.451-1.574 6.627 6.627 0 00-2.424-1.45 4.267 4.267 0 00-4.35 1.408 4.495 4.495 0 00-1.036 4.516 8.825 8.825 0 002.196 3.19z" fill="#113975"/></svg>