<svg width="50" height="51" fill="none" xmlns="http://www.w3.org/2000/svg"><g clip-path="url(#clip0_49_876)" fill-rule="evenodd" clip-rule="evenodd" fill="#113975"><path d="M48.12 48.756a11.187 11.187 0 01-2.487-1.036 7.083 7.083 0 01-1.906-1.719l-1.077-1.76c-.103-.208-.186-.664-.29-.85a1.119 1.119 0 00-.497-.456.851.851 0 00-1.16.394l-.932 1.74a8.68 8.68 0 01-4.143 2.175 6.028 6.028 0 01-4.413-.435 4.579 4.579 0 01-1.077-.911 5.489 5.489 0 01-.787-1.244c0-.124-.497-1.201-.746-1.595a1.304 1.304 0 00-1.346-.662 1.548 1.548 0 00-.85.517c-.352.415-.953 1.533-1.098 1.72a11.416 11.416 0 01-1.429 1.574 5.718 5.718 0 01-1.616 1.098 9.28 9.28 0 01-4.682.684 7.664 7.664 0 01-4.37-1.803c-.746-.683-1.492-2.071-2.32-2.9a4.018 4.018 0 00-.995-.766 1.036 1.036 0 00-1.18.373l-.29.745-1.43 2.072a8.39 8.39 0 01-2.072 2.072 4.267 4.267 0 01-2.693.704.627.627 0 10-.165 1.243 5.137 5.137 0 002.9-.414 9.177 9.177 0 003.335-2.61l1.533-2.072.166.228a32.36 32.36 0 002.071 2.817 9.654 9.654 0 005.2 2.652 11.56 11.56 0 005.924-.746 8.66 8.66 0 001.803-1.326 14.38 14.38 0 002.071-2.237l.125-.166c.284.542.64 1.043 1.056 1.491a6.216 6.216 0 001.678 1.368 8.286 8.286 0 006.007.476 10.896 10.896 0 005.076-2.9c.177-.195.33-.41.455-.642l.87 1.305a8.411 8.411 0 002.445 2.072c.942.51 1.954.88 3.004 1.097a.707.707 0 00.801-1.035.71.71 0 00-.428-.332h-.042zm-37.152-6.77a.645.645 0 00.748-.441 31.95 31.95 0 017.122-12.255 46.893 46.893 0 0111.075-8.97 31.22 31.22 0 013.829-1.96 35.072 35.072 0 014.095-1.447l1.175-.089c-.089.389-.231.795-.374 1.236-.64 1.766-1.584 3.867-1.78 4.803a45.55 45.55 0 00-1.247 9.076c-.1 3.054.18 6.108.837 9.094a.688.688 0 00.295.441.7.7 0 001.075-.436.688.688 0 00.001-.27 36.352 36.352 0 01-.498-8.829 44.08 44.08 0 011.513-8.634c.338-1.219 1.959-4.256 2.475-6.287a3.381 3.381 0 00-.089-2.472 1.425 1.425 0 00-1.567-.476c-.659.106-2.261.53-2.528.6a36.575 36.575 0 00-4.38 1.554 31.751 31.751 0 00-4.15 2.119 48.154 48.154 0 00-11.253 9.747 32.694 32.694 0 00-6.82 13.137.614.614 0 00.446.76z"/><path d="M31.356 22.224a34.843 34.843 0 00-3.724 2.383c-.509.392-.988.816-1.433 1.268-.448.449-.87.918-1.266 1.406a24.838 24.838 0 00-2.328 3.686.635.635 0 00-.08.513.649.649 0 00.125.238.72.72 0 00.216.174.742.742 0 00.555.09.735.735 0 00.26-.113.67.67 0 00.19-.2c.503-.634 1.024-1.2 1.564-1.714s1.155-1.097 1.732-1.714 1.135-1.097 1.675-1.714c1.117-1.149 2.16-2.332 3.37-3.429a.626.626 0 00.186-.175.572.572 0 00.082-.473.583.583 0 00-.117-.22.643.643 0 00-.203-.158.692.692 0 00-.748.084l-.056.068zM19.342 34.866c-.244.266-.46.552-.646.855a7.51 7.51 0 00-.47.961c-1.214 2.955-.607 3.115-.293 3.24.646.25.822 0 2.466-2.225.196-.267.392-.517.568-.801.176-.27.333-.55.47-.837 1.39-2.813 1.116-2.777.841-2.973-.763-.552-2.897 1.727-2.936 1.78z"/></g><defs><clipPath id="clip0_49_876"><path fill="#fff" transform="translate(.142 .613)" d="M0 0h49.717v49.717H0z"/></clipPath></defs></svg>