<svg width="50" height="51" fill="none" xmlns="http://www.w3.org/2000/svg"><g clip-path="url(#clip0_49_217)" fill-rule="evenodd" clip-rule="evenodd" fill="#113975"><path d="M48.12 48.756a11.187 11.187 0 01-2.487-1.036 7.083 7.083 0 01-1.906-1.719l-1.077-1.76c-.103-.208-.186-.664-.29-.85a1.119 1.119 0 00-.497-.456.851.851 0 00-1.16.394l-.932 1.74a8.68 8.68 0 01-4.143 2.175 6.028 6.028 0 01-4.413-.435 4.579 4.579 0 01-1.077-.911 5.489 5.489 0 01-.787-1.244c0-.124-.497-1.201-.746-1.595a1.304 1.304 0 00-1.346-.662 1.548 1.548 0 00-.85.517c-.352.415-.953 1.533-1.098 1.72a11.416 11.416 0 01-1.429 1.574 5.718 5.718 0 01-1.616 1.098 9.28 9.28 0 01-4.682.684 7.664 7.664 0 01-4.37-1.803c-.746-.683-1.492-2.071-2.32-2.9a4.018 4.018 0 00-.995-.766 1.036 1.036 0 00-1.18.373l-.29.745-1.43 2.072a8.39 8.39 0 01-2.072 2.072 4.267 4.267 0 01-2.693.704.627.627 0 10-.165 1.243 5.137 5.137 0 002.9-.414 9.177 9.177 0 003.335-2.61l1.533-2.072.166.228a32.36 32.36 0 002.071 2.817 9.654 9.654 0 005.2 2.652 11.56 11.56 0 005.924-.746 8.66 8.66 0 001.803-1.326 14.38 14.38 0 002.071-2.237l.125-.166c.284.542.64 1.043 1.056 1.491a6.216 6.216 0 001.678 1.368 8.286 8.286 0 006.007.476 10.896 10.896 0 005.076-2.9c.177-.195.33-.41.455-.642l.87 1.305a8.411 8.411 0 002.445 2.072c.942.51 1.954.88 3.004 1.097a.707.707 0 00.801-1.035.71.71 0 00-.428-.332h-.042z"/><g clip-path="url(#clip1_49_217)"><path d="M21.418 32.791c-.568.314-1.136.686-1.684 1.058-.549.372-1.176.9-1.724 1.39a28.934 28.934 0 00-3.525 3.78.763.763 0 101.097 1.038 32.533 32.533 0 012.174-1.743c.763-.568 1.527-1.058 2.31-1.587l2.292-1.605 2.252-1.704c1.057-1.253-1.195-1.997-3.192-.627z"/><path d="M48.618 21.55a3.231 3.231 0 00-1.723 0c-1.469.334-3.642 1.352-4.347 1.548-3.623 1.116-7.932 3.603-12.103 4.798a12.26 12.26 0 01-4.974.548 42.829 42.829 0 01-6.463-1.508c-.861-.255-1.703-.548-2.545-.823 0 0 .176 0 .215-.195a20.734 20.734 0 011.704-2.624c.61-.83 1.264-1.628 1.958-2.39 1.136-1.273 2.37-3.329 3.701-4.993.118-.177.274-.275.392-.431a32.469 32.469 0 00.137 3.623c0 .998.294 1.958.47 2.996.335 1.477.564 2.975.686 4.485a.724.724 0 00.685.802.744.744 0 00.822-.685c.311-1.77.397-3.574.255-5.366a23.939 23.939 0 00-.49-3.114 64.724 64.724 0 00-.763-2.82l.587.725a32.89 32.89 0 012.252 2.624c1.724 2.252 3.27 4.661 5.014 6.854a.744.744 0 001.057.157.725.725 0 00.157-1.038c-1.469-2.252-2.899-4.778-4.426-7.148a30.755 30.755 0 00-2.174-3.055 13.965 13.965 0 00-2.448-2.193 1.958 1.958 0 00-1.958 0 9.675 9.675 0 00-2.213 2.095c-1.253 1.724-2.232 3.917-3.25 5.268a36.79 36.79 0 00-1.842 2.722c-.592.95-1.11 1.946-1.547 2.977a.646.646 0 000 .43c-2.095-.704-4.171-1.41-6.188-1.958a30.365 30.365 0 00-5.15-1.194c-.98 0-1.41.548-1.47.96A14.864 14.864 0 003.44 30.5a45.748 45.748 0 004.347 8.871.671.671 0 101.156-.685 42.377 42.377 0 01-3.917-8.734 13.708 13.708 0 01-.568-5.327c1.416.293 2.81.685 4.171 1.175 3.114 1.097 6.365 2.468 9.674 3.525a46.417 46.417 0 007.344 1.821 27.224 27.224 0 005.562-.803c4.171-1.253 8.44-3.916 12.063-5.032.529-.177 1.959-.843 3.212-1.332l.744-.294c.011.13.011.262 0 .392A102.012 102.012 0 0139.14 39.92a.749.749 0 101.136.979A110.198 110.198 0 0048.344 26.7a12.24 12.24 0 001.273-3.917 1.253 1.253 0 00-.999-1.233z"/><path d="M32.932 35.514a18.314 18.314 0 00-1.782-1.958l-.117-.098c-2.664-1.488-3.526-1.253-2.8.43l.782 1c.333.41.705.803 1.078 1.194l1.194 1.136c.96.862 1.958 1.645 3.035 2.428a.723.723 0 001.058 0 .747.747 0 000-1.057c-.881-.999-1.547-2.056-2.448-3.075z"/></g></g><defs><clipPath id="clip0_49_217"><path fill="#fff" transform="translate(.142 .613)" d="M0 0h49.717v49.717H0z"/></clipPath><clipPath id="clip1_49_217"><path fill="#fff" transform="translate(2.5 7)" d="M0 0h47v47H0z"/></clipPath></defs></svg>