<svg width="1920" height="979" fill="none" xmlns="http://www.w3.org/2000/svg"><path d="M-162 904.969c340.067 42.276 1234.81 113.921 1437.25-40.855 253.05-193.464 49.01-749.352 562.61-803.952 410.88-43.68 644.63-42.276 710.14-36.114" stroke="#EC6118" stroke-width="40"/><path d="M26.365 918.752l-4.03 8.111c-.895 1.804-1.877 2.661-3.543 2.447-.793-.103-1.397-.423-1.397-.423l.235-1.825s.456.221 1.011.292c.794.103 1.166-.285 1.582-1.006l-2.268-8.681 2.38.307 1.313 5.703 2.337-5.232 2.38.307zm8.363 1.052l-1.038 8.255-2.222-.28.399-3.175-2.143-.269c-2.302-.29-2.867-.925-2.638-2.751l.34-2.699 2.222.28-.31 2.46c-.129 1.032.189 1.072 1.141 1.192l1.588.2.439-3.493 2.222.28zm9.832 1.21l-1.015 8.257-2.144-.263.166-1.35-.08-.01s-.91 1.5-2.735 1.276c-2.303-.283-2.753-1.87-2.519-3.776l.625-5.081 2.224.273-.567 4.605c-.175 1.429.143 2.114 1.176 2.24 1.19.147 1.914-.49 2.119-2.157l.527-4.288 2.223.274zm11.415 1.372l-.99 8.261-2.065-.247.695-5.799-.08-.009-2.521 5.579-2.066-.247-1.132-6.018-.079-.009-.695 5.798-2.065-.247.99-8.261 3.336.4.983 5.919 2.353-5.52 3.336.4zm10.268 9.571l.375-3.258-3.099-.358-.376 3.259-2.225-.257.953-8.265 2.226.257-.376 3.258 3.1.358.375-3.259 2.225.257-.953 8.265-2.225-.257zm4.647-3.655c.271-2.417 1.905-4.214 4.624-3.909 2.72.304 3.756 2.4 3.486 4.817-.022.191-.07.476-.07.476l-5.85-.656c-.048 1.283.386 2.298 1.722 2.447 1.351.152 1.732-1.094 1.732-1.094l2.226.249s-.806 2.889-4.225 2.506c-2.783-.312-3.915-2.419-3.644-4.836zm4.437-2.24c-1.097-.123-1.72.548-2.024 1.544l3.514.394c-.03-1.034-.393-1.815-1.49-1.938zm10.247 4.211c-.142 1.336.31 2.527 1.726 2.677 1.416.151 2.11-.918 2.252-2.254.142-1.337-.31-2.527-1.727-2.678-1.416-.151-2.109.918-2.25 2.255zm1.549 4.348c-2.228-.237-4.16-1.73-3.737-5.708.567-5.329 3.181-5.856 5.488-5.61l3.039.323-.195 1.83-3.23-.344c-1.797-.191-2.55.533-3.007 2.254l.08.009s.85-1.197 2.76-.994c2.466.263 3.704 2.245 3.458 4.552-.237 2.227-1.872 3.984-4.656 3.688zm7.497-3.532c-.153 1.496.297 2.764 1.714 2.908 1.417.144 2.113-1.007 2.265-2.503.152-1.497-.298-2.765-1.715-2.909-1.416-.144-2.112 1.008-2.264 2.504zm-2.229-.227c.246-2.419 1.941-4.225 4.663-3.948 2.722.277 4.019 2.387 3.773 4.806-.246 2.42-1.94 4.225-4.663 3.949-2.722-.277-4.02-2.387-3.773-4.807zm17.302-2.463l-.799 8.282-2.23-.216.292-3.026-1.592-.153-1.614 2.898-2.501-.242 2.019-3.261c-.912-.538-1.331-1.366-1.234-2.369.154-1.593 1.528-2.505 3.837-2.282l3.822.369zm-3.857 3.325l1.274.123.2-2.071-1.274-.123c-1.195-.115-1.703.157-1.772.874-.069.717.378 1.081 1.572 1.197zm8.713 5.385l.419-4.621c.131-1.434-.098-2.098-.975-2.177-.956-.087-1.531.584-1.683 2.257l-.39 4.302-2.231-.202.752-8.286 2.151.195-.123 1.354.08.008s.702-1.543 2.375-1.391c1.339.121 1.998.824 2.229 1.825l.017-.015.08.007s.861-1.528 2.534-1.376c2.072.188 2.492 1.753 2.319 3.665l-.463 5.099-2.231-.203.419-4.621c.131-1.434-.098-2.097-.975-2.177-.956-.087-1.531.584-1.683 2.257l-.39 4.302-2.231-.202zm8.693.428l.701-8.29 2.232.189-.256 3.029 1.355.114c2.312.196 3.5 1.34 3.365 2.934-.135 1.595-1.498 2.523-3.809 2.328l-3.588-.304zm3.579-3.39l-1.037-.088-.175 2.073 1.037.087c1.195.101 1.701-.177 1.761-.894.061-.718-.391-1.077-1.586-1.178z" fill="#fff"/><path d="M130.72 934.079c.184-2.425 1.769-4.278 4.481-4.072 3.67.278 3.661 3.567 3.661 3.567l-2.234-.17s.042-1.601-1.554-1.722c-1.42-.108-2.006 1.067-2.12 2.567-.114 1.499.289 2.749 1.709 2.857 1.595.121 1.796-1.468 1.796-1.468l2.233.169s-.487 3.253-4.157 2.974c-2.712-.206-3.999-2.277-3.815-4.702zm16.336-2.946l-.54 8.302-2.235-.145.197-3.033-1.596-.104-1.523 2.947-2.506-.163 1.915-3.322c-.929-.51-1.373-1.324-1.308-2.33.104-1.597 1.449-2.552 3.764-2.401l3.832.249zm-3.751 3.444l1.277.083.135-2.076-1.277-.083c-1.198-.078-1.698.211-1.744.929-.047.719.411 1.069 1.609 1.147zm8.223 5.213l.447-8.308 3.994.214c2.157.116 3.236.896 3.155 2.413-.073 1.358-1.369 1.609-1.369 1.609l-.004.08s1.501.401 1.415 1.999c-.086 1.598-1.168 2.341-3.404 2.22l-4.234-.227zm4.183-3.301l-1.757-.094-.104 1.917 1.918.103c.719.039 1.135-.259 1.17-.898.034-.639-.428-.985-1.227-1.028zm-1.68-1.532l1.598.086c.798.043 1.215-.255 1.245-.814.03-.56-.272-.896-.991-.935l-1.758-.094-.094 1.757zm8.234 1.23c-.072 1.502.445 2.745 1.867 2.813 1.422.068 2.056-1.119 2.128-2.621.072-1.502-.445-2.745-1.867-2.813-1.423-.068-2.056 1.119-2.128 2.621zm-2.238-.107c.117-2.429 1.713-4.323 4.446-4.192 2.733.131 4.141 2.169 4.024 4.598-.116 2.429-1.713 4.323-4.446 4.192-2.732-.131-4.14-2.169-4.024-4.598zm18.823-3.309l-.315 7.353c-.102 2.398-1.453 4.022-4.33 3.899-3.837-.164-3.793-3.045-3.793-3.045l2.237.096s.029 1.202 1.628 1.27c1.422.061 1.952-.717 2.014-2.155l.017-.4-.08-.003s-.767 1.088-2.526 1.013c-2.398-.103-3.508-2.232-3.415-4.39.092-2.158 1.38-4.185 3.777-4.083 1.839.079 2.5 1.468 2.5 1.468l.08.004.048-1.119 2.158.092zm-2.329 3.904c.057-1.343-.53-2.585-1.889-2.643-1.359-.058-2.05 1.13-2.107 2.472-.058 1.343.53 2.585 1.888 2.643 1.359.059 2.05-1.129 2.108-2.472zm3.652 4.479l.318-8.314 2.239.085-.117 3.038.96.037c2.318.088 3.557 1.176 3.496 2.775-.061 1.599-1.38 2.589-3.698 2.501l-3.198-.122zm3.019-3.568l-.64-.024-.079 2.078.639.025c1.199.046 1.691-.256 1.719-.975.027-.72-.44-1.058-1.639-1.104zm6.972-4.377l-.318 8.314-2.238-.085.318-8.314 2.238.085zm110.498 17.631l.318-8.314 2.158.082-.052 1.359.08.003s.781-1.571 2.619-1.501c2.319.089 2.9 1.632 2.827 3.551l-.196 5.116-2.238-.085.177-4.637c.055-1.439-.32-2.094-1.36-2.133-1.199-.046-1.866.649-1.93 2.327l-.165 4.317-2.238-.085zm10.873-3.748c-.057 1.503.472 2.74 1.895 2.795 1.423.054 2.045-1.139 2.102-2.642.058-1.503-.471-2.74-1.894-2.794-1.423-.055-2.045 1.139-2.103 2.641zm-2.238-.085c.093-2.43 1.671-4.339 4.405-4.235 2.734.105 4.162 2.129 4.069 4.559-.093 2.43-1.671 4.339-4.405 4.235-2.734-.105-4.162-2.129-4.069-4.559zm11.427.677c-.051 1.343.481 2.5 1.904 2.554 1.423.055 2.042-1.058 2.094-2.401.051-1.343-.481-2.501-1.904-2.555-1.423-.054-2.042 1.059-2.094 2.402zm1.84 4.233c-2.238-.085-4.268-1.444-4.115-5.441.205-5.356 2.777-6.058 5.096-5.97l3.053.117-.07 1.839-3.245-.124c-1.807-.069-2.509.704-2.848 2.453l.08.003s.768-1.252 2.687-1.178c2.478.094 3.847 1.988 3.758 4.306-.086 2.239-1.598 4.102-4.396 3.995zm5.048-4.21c.093-2.43 1.591-4.342 4.325-4.238 2.734.105 3.922 2.119 3.829 4.55-.008.192-.035.479-.035.479l-5.883-.225c.047 1.283.554 2.263 1.897 2.314 1.359.052 1.647-1.218 1.647-1.218l2.239.086s-.593 2.939-4.03 2.808c-2.798-.107-4.082-2.126-3.989-4.556zm4.261-2.559c-1.104-.042-1.675.672-1.906 1.688l3.533.135c-.105-1.028-.524-1.781-1.627-1.823zm11.646-.996l-.126 3.31 2.924-3.203 2.638.101-3.196 3.176 3.038 5.144-2.734-.105-1.901-3.451-.866.864-.095 2.478-2.238-.086.095-2.478-.813-.928-2.144 3.297-2.734-.105 3.422-4.896-2.944-3.411 2.638.101 2.671 3.416.127-3.31 2.238.086zm13.599.52l-.281 7.355c-.092 2.398-1.435 4.028-4.313 3.918-3.837-.147-3.807-3.028-3.807-3.028l2.238.086s.034 1.202 1.633 1.263c1.423.054 1.949-.726 2.004-2.165l.016-.4-.08-.003s-.763 1.092-2.521 1.025c-2.399-.092-3.518-2.216-3.436-4.375.083-2.158 1.361-4.191 3.76-4.099 1.838.07 2.506 1.456 2.506 1.456l.08.004.043-1.12 2.158.083zm-2.311 3.914c.051-1.343-.542-2.582-1.901-2.634-1.359-.052-2.045 1.139-2.096 2.482-.052 1.343.541 2.582 1.9 2.634 1.359.052 2.045-1.139 2.097-2.482zm5.336-1.237l-2.239-.085c.21-2.122 1.946-2.728 3.865-2.655 1.998.077 3.57.857 3.487 3.016l-.217 5.676-2.238-.086.061-1.599-.08-.003s-.582 1.819-2.708 1.738c-1.519-.058-2.612-.804-2.553-2.339.059-1.551 1.365-2.206 2.754-2.505 1.404-.298 2.719-.36 2.755-1.287.025-.656-.44-1.058-1.319-1.092-.96-.036-1.502.327-1.568 1.221zm2.818 1.677c-.381.322-1.139.469-1.785.605-.726.148-1.347.492-1.375 1.228-.025.639.407 1.056 1.127 1.084 1.519.058 1.986-1.686 2.033-2.917zm7.748 4.492l.178-4.637c.055-1.439-.209-2.09-1.088-2.123-.959-.037-1.499.663-1.563 2.342l-.165 4.317-2.238-.086.318-8.314 2.158.083-.052 1.359.08.003s.621-1.578 2.3-1.514c1.343.052 2.038.719 2.32 1.706l.017-.015.08.003s.78-1.571 2.459-1.507c2.079.079 2.58 1.62 2.507 3.538l-.196 5.117-2.238-.086.177-4.637c.055-1.439-.208-2.089-1.088-2.123-.959-.036-1.498.663-1.562 2.342l-.165 4.317-2.239-.085zm7.911.302l.318-8.314 2.239.086-.117 3.037 1.359.052c2.319.089 3.558 1.177 3.497 2.776-.061 1.599-1.38 2.589-3.698 2.5l-3.598-.137zm3.419-3.552l-1.04-.04-.079 2.079 1.039.039c1.199.046 1.691-.255 1.719-.975.027-.719-.44-1.057-1.639-1.103z" fill="#fff"/><path fill-rule="evenodd" clip-rule="evenodd" d="M269.404 950.724c-.85-.299-1.661-.7-2.414-1.193a7.086 7.086 0 01-1.791-1.839l-.962-1.826c-.09-.214-.143-.674-.235-.867a1.11 1.11 0 00-.466-.486.835.835 0 00-.66-.093.845.845 0 00-.523.411l-1.043 1.676a8.673 8.673 0 01-4.274 1.904 6.03 6.03 0 01-4.376-.719 4.577 4.577 0 01-1.016-.978 5.475 5.475 0 01-.705-1.292c.008-.124-.419-1.231-.642-1.639a1.307 1.307 0 00-1.301-.749 1.557 1.557 0 00-.881.463c-.378.39-1.049 1.468-1.206 1.645a11.485 11.485 0 01-1.528 1.479c-.5.424-1.069.76-1.683.991a9.28 9.28 0 01-4.716.381 7.672 7.672 0 01-4.246-2.08c-.7-.73-1.355-2.163-2.129-3.044a4.03 4.03 0 00-.942-.829 1.038 1.038 0 00-1.203.296l-.337.726-1.56 1.975a8.392 8.392 0 01-2.201 1.934 4.266 4.266 0 01-2.733.529.625.625 0 00-.737.493.626.626 0 00.492.737 5.13 5.13 0 002.921-.227 9.165 9.165 0 003.496-2.39l1.663-1.968.151.238a32.394 32.394 0 001.886 2.945 9.651 9.651 0 005.018 2.981c1.984.403 4.04.278 5.96-.363a8.643 8.643 0 001.884-1.207 14.36 14.36 0 002.212-2.099l.134-.157c.25.559.572 1.082.959 1.556.438.58.975 1.078 1.586 1.473a8.29 8.29 0 005.964.862 10.892 10.892 0 005.252-2.567c.189-.184.356-.389.496-.612l.784 1.359a8.418 8.418 0 002.306 2.224 10.923 10.923 0 002.927 1.289.69.69 0 00.274.037.697.697 0 00.626-.477.708.708 0 00-.44-.9l-.041-.003zm-.789-8.49c-.85-.299-1.661-.7-2.414-1.194a7.067 7.067 0 01-1.791-1.838l-.962-1.827c-.09-.213-.143-.673-.235-.866a1.124 1.124 0 00-.466-.487.862.862 0 00-.66-.093.852.852 0 00-.523.411l-1.043 1.677a8.686 8.686 0 01-4.274 1.904 6.03 6.03 0 01-4.376-.719 4.582 4.582 0 01-1.016-.979 5.469 5.469 0 01-.705-1.291c.008-.124-.419-1.231-.642-1.64a1.307 1.307 0 00-1.301-.748 1.561 1.561 0 00-.881.462c-.378.391-1.05 1.469-1.206 1.645-.462.54-.974 1.035-1.528 1.479-.5.425-1.069.761-1.683.992a9.291 9.291 0 01-4.716.381 7.672 7.672 0 01-4.246-2.08c-.7-.731-1.355-2.164-2.129-3.044a4.027 4.027 0 00-.942-.829 1.038 1.038 0 00-1.203.296l-.337.726-1.56 1.975a8.392 8.392 0 01-2.201 1.934 4.266 4.266 0 01-2.733.529.629.629 0 00-.644.963.63.63 0 00.399.267c.975.209 1.99.131 2.921-.227a9.165 9.165 0 003.496-2.39l1.663-1.968.151.238a32.394 32.394 0 001.886 2.945 9.658 9.658 0 005.018 2.981c1.984.403 4.04.278 5.96-.363a8.643 8.643 0 001.884-1.207 14.36 14.36 0 002.212-2.099l.134-.158c.25.559.572 1.083.958 1.557.439.58.976 1.078 1.587 1.472a8.286 8.286 0 005.964.863 10.901 10.901 0 005.252-2.567c.189-.184.355-.389.496-.612l.784 1.358a8.407 8.407 0 002.306 2.225 10.923 10.923 0 002.927 1.289.708.708 0 10.46-1.34l-.041-.003zm194.789 18.49c-.85-.299-1.661-.7-2.414-1.193a7.086 7.086 0 01-1.791-1.839l-.962-1.826c-.09-.214-.143-.674-.235-.867a1.11 1.11 0 00-.466-.486.835.835 0 00-.66-.093.845.845 0 00-.523.411l-1.043 1.676a8.673 8.673 0 01-4.274 1.904 6.03 6.03 0 01-4.376-.719 4.577 4.577 0 01-1.016-.978 5.475 5.475 0 01-.705-1.292c.008-.124-.419-1.231-.642-1.639a1.307 1.307 0 00-1.301-.749 1.557 1.557 0 00-.881.463c-.378.39-1.049 1.468-1.206 1.645a11.485 11.485 0 01-1.528 1.479c-.5.424-1.069.76-1.683.991a9.28 9.28 0 01-4.716.381 7.672 7.672 0 01-4.246-2.08c-.7-.73-1.355-2.163-2.129-3.044a4.03 4.03 0 00-.942-.829 1.038 1.038 0 00-1.203.296l-.337.726-1.56 1.975a8.392 8.392 0 01-2.201 1.934 4.266 4.266 0 01-2.733.529.625.625 0 00-.737.493.626.626 0 00.492.737 5.13 5.13 0 002.921-.227 9.165 9.165 0 003.496-2.39l1.663-1.968.151.238a32.394 32.394 0 001.886 2.945 9.651 9.651 0 005.018 2.981c1.984.403 4.04.278 5.96-.363a8.643 8.643 0 001.884-1.207 14.36 14.36 0 002.212-2.099l.134-.157c.25.559.572 1.082.959 1.556.438.58.975 1.078 1.586 1.473a8.29 8.29 0 005.964.862 10.892 10.892 0 005.252-2.567c.189-.184.356-.389.496-.612l.784 1.359a8.418 8.418 0 002.306 2.224 10.923 10.923 0 002.927 1.289.69.69 0 00.274.037.697.697 0 00.626-.477.708.708 0 00-.44-.9l-.041-.003zm-.789-8.49c-.85-.299-1.661-.7-2.414-1.194a7.067 7.067 0 01-1.791-1.838l-.962-1.827c-.09-.213-.143-.673-.235-.866a1.124 1.124 0 00-.466-.487.862.862 0 00-.66-.093.852.852 0 00-.523.411l-1.043 1.677a8.686 8.686 0 01-4.274 1.904 6.03 6.03 0 01-4.376-.719 4.582 4.582 0 01-1.016-.979 5.469 5.469 0 01-.705-1.291c.008-.124-.419-1.231-.642-1.64a1.307 1.307 0 00-1.301-.748 1.561 1.561 0 00-.881.462c-.378.391-1.05 1.469-1.206 1.645-.462.54-.974 1.035-1.528 1.479-.5.425-1.069.761-1.683.992a9.291 9.291 0 01-4.716.381 7.672 7.672 0 01-4.246-2.08c-.7-.731-1.355-2.164-2.129-3.044a4.027 4.027 0 00-.942-.829 1.038 1.038 0 00-1.203.296l-.337.726-1.56 1.975a8.392 8.392 0 01-2.201 1.934 4.266 4.266 0 01-2.733.529.629.629 0 00-.644.963.63.63 0 00.399.267c.975.209 1.99.131 2.921-.227a9.165 9.165 0 003.496-2.39l1.663-1.968.151.238a32.394 32.394 0 001.886 2.945 9.658 9.658 0 005.018 2.981c1.984.403 4.04.278 5.96-.363a8.643 8.643 0 001.884-1.207 14.36 14.36 0 002.212-2.099l.134-.158c.25.559.572 1.083.958 1.557.439.58.976 1.078 1.587 1.472a8.286 8.286 0 005.964.863 10.901 10.901 0 005.252-2.567c.189-.184.355-.389.496-.612l.784 1.358a8.407 8.407 0 002.306 2.225 10.923 10.923 0 002.927 1.289.708.708 0 10.46-1.34l-.041-.003zm501.683 1.469a11.139 11.139 0 01-2.548-.873 7.101 7.101 0 01-2.013-1.593l-1.188-1.687c-.117-.2-.229-.65-.344-.829a1.115 1.115 0 00-.526-.423.85.85 0 00-1.132.468l-.818 1.796a8.676 8.676 0 01-3.994 2.438 6.03 6.03 0 01-4.432-.149 4.575 4.575 0 01-1.133-.84 5.478 5.478 0 01-.866-1.19c-.008-.124-.574-1.167-.847-1.544a1.313 1.313 0 00-1.387-.574 1.556 1.556 0 00-.814.571c-.325.437-.852 1.592-.985 1.787a11.345 11.345 0 01-1.324 1.663 5.708 5.708 0 01-1.542 1.2 9.278 9.278 0 01-4.628.985 7.665 7.665 0 01-4.478-1.517c-.788-.634-1.622-1.971-2.502-2.744a4.032 4.032 0 00-1.042-.701 1.033 1.033 0 00-1.154.448l-.242.763-1.292 2.16a8.407 8.407 0 01-1.934 2.201 4.27 4.27 0 01-2.642.876.631.631 0 00-.604.347.626.626 0 00.519.904 5.132 5.132 0 002.867-.6 9.183 9.183 0 003.16-2.82l1.396-2.166.18.216a32.479 32.479 0 002.249 2.678 9.658 9.658 0 005.36 2.311 11.56 11.56 0 005.864-1.127 8.648 8.648 0 001.713-1.439 14.418 14.418 0 001.923-2.366l.113-.174c.32.522.707 1 1.151 1.42a6.2 6.2 0 001.763 1.256 8.282 8.282 0 006.025.088 10.891 10.891 0 004.878-3.221c.164-.206.303-.431.413-.671l.953 1.247a8.418 8.418 0 002.573 1.909c.973.45 2.007.753 3.068.902a.717.717 0 00.533-.103.71.71 0 00-.249-1.285l-.041.002zm-1.875-8.316a11.236 11.236 0 01-2.548-.873 7.101 7.101 0 01-2.013-1.593l-1.188-1.688c-.117-.2-.229-.649-.344-.829a1.119 1.119 0 00-.526-.422.847.847 0 00-1.132.467l-.818 1.797a8.684 8.684 0 01-3.994 2.438 6.03 6.03 0 01-4.432-.15 4.55 4.55 0 01-1.133-.84 5.496 5.496 0 01-.866-1.189c-.008-.124-.574-1.167-.847-1.544a1.308 1.308 0 00-1.387-.575 1.558 1.558 0 00-.814.572c-.325.436-.852 1.591-.985 1.787a11.398 11.398 0 01-1.324 1.663 5.748 5.748 0 01-1.542 1.2 9.288 9.288 0 01-4.628.984 7.67 7.67 0 01-4.478-1.516c-.788-.634-1.622-1.971-2.502-2.745a4.028 4.028 0 00-1.042-.7 1.033 1.033 0 00-1.154.448l-.242.763-1.292 2.159a8.376 8.376 0 01-1.934 2.201 4.271 4.271 0 01-2.642.877.627.627 0 10-.085 1.251 5.14 5.14 0 002.867-.601 9.173 9.173 0 003.16-2.82l1.396-2.166.18.217a32.646 32.646 0 002.249 2.678 9.656 9.656 0 005.36 2.31 11.56 11.56 0 005.864-1.126 8.653 8.653 0 001.713-1.44 14.335 14.335 0 001.923-2.366l.113-.173c.32.522.707.999 1.151 1.42a6.2 6.2 0 001.763 1.256 8.282 8.282 0 006.025.088 10.902 10.902 0 004.878-3.222c.164-.206.303-.431.413-.67l.953 1.246a8.405 8.405 0 002.573 1.91c.973.449 2.007.753 3.068.902a.717.717 0 00.533-.103.727.727 0 00.303-.45.712.712 0 00-.297-.729.718.718 0 00-.255-.107l-.041.003zM1275 872.686c-.88.197-1.78.287-2.68.268a7.104 7.104 0 01-2.5-.61l-1.78-1.039c-.19-.133-.48-.495-.66-.61a1.1 1.1 0 00-.65-.166.798.798 0 00-.33.074.841.841 0 00-.46.487.959.959 0 00-.05.336l.01 1.974a8.686 8.686 0 01-2.62 3.88 6.013 6.013 0 01-4.09 1.71 4.565 4.565 0 01-1.38-.291 5.372 5.372 0 01-1.28-.721c-.06-.109-1.01-.822-1.42-1.05-.22-.147-.49-.22-.75-.21-.27.01-.53.102-.75.265-.25.223-.43.525-.5.859-.11.531-.11 1.801-.15 2.034a11.3 11.3 0 01-.51 2.064c-.2.625-.5 1.211-.9 1.733a9.276 9.276 0 01-3.8 2.823 7.658 7.658 0 01-4.7.486c-.98-.248-2.3-1.116-3.42-1.452-.4-.132-.82-.201-1.24-.203-.22.035-.42.141-.58.301-.15.16-.25.366-.28.587l.1.794-.28 2.502c-.11.977-.4 1.927-.84 2.806a4.25 4.25 0 01-2.04 1.897.654.654 0 00-.35.329.646.646 0 00-.01.48c.03.077.07.147.13.207s.12.109.2.142c.15.069.32.074.48.015a5.11 5.11 0 002.35-1.74 9.118 9.118 0 001.7-3.88l.37-2.551.25.122c1.03.556 2.08 1.056 3.16 1.498a9.67 9.67 0 005.84-.132c1.89-.71 3.57-1.906 4.86-3.467.41-.63.73-1.31.96-2.022.36-.954.61-1.944.76-2.952l.03-.205c.51.341 1.06.614 1.64.812.68.259 1.4.397 2.12.407a8.296 8.296 0 005.52-2.43 10.922 10.922 0 003.09-4.96c.06-.256.1-.518.1-.782l1.38.736c1 .421 2.06.646 3.14.665 1.07.003 2.14-.152 3.16-.459a.649.649 0 00.25-.114.662.662 0 00.19-.201.62.62 0 00.1-.259.643.643 0 00-.01-.276.759.759 0 00-.11-.252.763.763 0 00-.2-.189.716.716 0 00-.54-.089l-.03.019zm-5.17-6.781c-.88.197-1.78.287-2.68.267a7.134 7.134 0 01-2.5-.609l-1.78-1.039c-.19-.134-.48-.495-.66-.61a1.093 1.093 0 00-.65-.166.814.814 0 00-.33.073.834.834 0 00-.28.198.841.841 0 00-.18.29.955.955 0 00-.05.336l.01 1.974a8.691 8.691 0 01-2.62 3.88 6.013 6.013 0 01-4.09 1.71 4.565 4.565 0 01-1.38-.291 5.372 5.372 0 01-1.28-.721c-.06-.11-1.01-.822-1.42-1.051a1.285 1.285 0 00-1.49.056c-.26.223-.44.525-.51.858-.11.532-.11 1.802-.15 2.035a11.3 11.3 0 01-.51 2.064c-.2.625-.5 1.211-.9 1.733a9.274 9.274 0 01-3.8 2.822 7.659 7.659 0 01-4.7.487c-.98-.248-2.3-1.116-3.42-1.453-.4-.132-.82-.2-1.24-.203a1.06 1.06 0 00-.58.301c-.15.16-.25.366-.28.588l.1.794-.28 2.501a8.37 8.37 0 01-.84 2.807 4.25 4.25 0 01-2.04 1.897.65.65 0 00-.35.329.646.646 0 00.12.687.623.623 0 00.68.157 5.11 5.11 0 002.35-1.74 9.003 9.003 0 001.7-3.88l.37-2.551.25.122c1.03.556 2.08 1.055 3.16 1.498 1.92.559 3.95.513 5.84-.133a11.594 11.594 0 004.86-3.466c.41-.63.73-1.31.96-2.022.36-.955.61-1.944.76-2.953l.03-.204c.51.341 1.06.614 1.64.811.68.26 1.4.398 2.12.408a8.3 8.3 0 005.52-2.43 10.92 10.92 0 003.09-4.961c.06-.255.1-.518.1-.781l1.38.736c1 .42 2.06.646 3.14.664 1.07.003 2.14-.151 3.16-.458.09-.021.18-.06.25-.114a.662.662 0 00.19-.201.62.62 0 00.1-.259.75.75 0 00-.12-.528.784.784 0 00-.2-.19.733.733 0 00-.54-.088l-.03.019zm131.16-189.858c-.54.724-1.16 1.381-1.85 1.957-.68.526-1.46.923-2.28 1.172l-2.03.382c-.23.023-.69-.061-.9-.03-.23.037-.44.142-.6.303a.682.682 0 00-.2.273.76.76 0 00-.08.33.816.816 0 00.23.621l1.3 1.489c.61 1.468.81 3.075.56 4.645a5.98 5.98 0 01-1.97 3.972c-.37.29-.79.521-1.23.683-.47.163-.95.262-1.44.295-.12-.044-1.3.039-1.76.132a1.318 1.318 0 00-1.1 1.024c-.04.337.02.68.19.977.26.477 1.09 1.435 1.21 1.637.38.6.71 1.235.97 1.895.26.603.41 1.245.45 1.9a9.157 9.157 0 01-1.02 4.62 7.686 7.686 0 01-3.23 3.447c-.91.455-2.47.66-3.54 1.141-.39.161-.75.383-1.07.657a1.04 1.04 0 00-.24.607c-.01.223.05.443.17.63l.6.535 1.43 2.072c.55.813.96 1.717 1.2 2.671.21.93.11 1.905-.3 2.768a.611.611 0 00.07.694c.05.063.11.116.18.156a.634.634 0 00.48.049c.16-.048.3-.157.37-.303.49-.871.71-1.864.65-2.859a9.192 9.192 0 00-1.26-4.044l-1.39-2.168.27-.074c1.14-.252 2.26-.565 3.37-.938a9.64 9.64 0 004.32-3.92c.97-1.779 1.45-3.78 1.4-5.804-.1-.742-.3-1.466-.6-2.156-.35-.955-.81-1.871-1.35-2.73l-.11-.175c.6-.074 1.2-.228 1.77-.459a6.263 6.263 0 001.87-1.084 8.322 8.322 0 002.58-5.447c.22-1.972-.09-3.969-.92-5.774a3.329 3.329 0 00-.43-.654l1.52-.351a8.43 8.43 0 002.81-1.55c.81-.7 1.52-1.515 2.09-2.419a.786.786 0 00.12-.251.859.859 0 00.01-.277.801.801 0 00-.1-.259.68.68 0 00-.19-.203.667.667 0 00-.25-.116.712.712 0 00-.53.085.794.794 0 00-.21.187l-.01.039zm-8.35-1.74c-.53.724-1.15 1.381-1.85 1.956-.68.527-1.46.924-2.28 1.172l-2.03.383c-.23.023-.69-.061-.9-.03-.22.036-.43.142-.6.303a.953.953 0 00-.2.272.765.765 0 00-.08.331c-.01.114.01.228.05.335.05.107.11.204.19.286l1.29 1.489c.61 1.468.81 3.074.57 4.645a6.066 6.066 0 01-1.97 3.971 4.61 4.61 0 01-1.24.684c-.46.163-.95.262-1.44.295-.12-.044-1.3.039-1.76.132-.26.037-.51.155-.71.338-.19.183-.33.423-.38.685-.05.338.01.681.18.978.26.476 1.09 1.435 1.22 1.637.38.6.7 1.234.96 1.895.26.602.41 1.245.46 1.9a9.271 9.271 0 01-1.03 4.62 7.638 7.638 0 01-3.23 3.447c-.91.455-2.47.66-3.54 1.14-.39.162-.75.384-1.07.658-.14.171-.22.384-.24.607-.01.222.05.443.17.629l.6.536 1.43 2.071c.55.814.96 1.718 1.2 2.672.21.93.11 1.904-.3 2.768a.658.658 0 00-.05.477c.03.079.07.152.12.216.05.064.11.117.19.156a.6.6 0 00.47.049.64.64 0 00.38-.302 5.18 5.18 0 00.64-2.859 9.188 9.188 0 00-1.26-4.044l-1.39-2.168.27-.074c1.14-.252 2.26-.565 3.37-.938a9.637 9.637 0 004.32-3.921 11.63 11.63 0 001.41-5.803 8.946 8.946 0 00-.6-2.156c-.36-.955-.81-1.871-1.36-2.73l-.11-.175a6.95 6.95 0 001.77-.459 6.285 6.285 0 001.87-1.084 8.325 8.325 0 002.58-5.448c.23-1.971-.09-3.968-.91-5.774a3.398 3.398 0 00-.44-.653l1.53-.351a8.468 8.468 0 002.8-1.551 10.83 10.83 0 002.09-2.419c.06-.075.1-.16.12-.251.02-.09.02-.184.01-.276a.62.62 0 00-.1-.259.626.626 0 00-.18-.203.715.715 0 00-.79-.032.643.643 0 00-.2.188l-.02.039zm124.65-403.417c-.62.66-1.31 1.243-2.06 1.737-.74.447-1.55.755-2.4.909l-2.06.152c-.23-.002-.68-.137-.89-.13-.23.011-.45.092-.63.233a.897.897 0 00-.35.568.87.87 0 00.17.644l1.12 1.625c.44 1.527.45 3.145.04 4.679a6.02 6.02 0 01-2.41 3.725c-.4.247-.84.429-1.3.541-.48.109-.97.154-1.47.132-.11-.057-1.29-.108-1.75-.067a1.308 1.308 0 00-1.21.894c-.09.33-.06.679.07.993.21.502.93 1.548 1.03 1.762.31.639.56 1.306.75 1.992.19.628.27 1.283.23 1.939a9.212 9.212 0 01-1.53 4.476 7.685 7.685 0 01-3.6 3.062c-.95.351-2.53.379-3.64.737a3.99 3.99 0 00-1.14.534c-.16.154-.27.356-.31.576a1.1 1.1 0 00.1.644l.53.599 1.19 2.219c.46.87.76 1.814.9 2.79.1.948-.11 1.904-.61 2.717a.644.644 0 00-.1.468c.01.081.04.159.09.228.04.069.1.129.17.176a.62.62 0 00.87-.157 5.2 5.2 0 00.96-2.768 9.164 9.164 0 00-.8-4.16l-1.14-2.31.28-.044c1.16-.122 2.31-.307 3.45-.553a9.639 9.639 0 004.74-3.411 11.593 11.593 0 002.05-5.61 9.176 9.176 0 00-.36-2.209c-.24-.99-.59-1.95-1.04-2.866l-.09-.186a6.983 6.983 0 001.81-.257c.7-.171 1.38-.464 1.98-.867a8.27 8.27 0 003.17-5.125c.45-1.933.36-3.953-.26-5.839a3.085 3.085 0 00-.36-.699l1.56-.177a8.396 8.396 0 002.96-1.227c.89-.604 1.68-1.334 2.35-2.169a.714.714 0 00.14-.236c.04-.087.05-.18.05-.273a.835.835 0 00-.07-.269.693.693 0 00-.67-.408.671.671 0 00-.27.066.606.606 0 00-.22.164l-.02.036zm-8.1-2.666c-.62.66-1.31 1.243-2.06 1.737-.74.447-1.55.755-2.4.909l-2.06.152c-.23-.002-.68-.137-.89-.13-.23.011-.45.092-.63.233a.897.897 0 00-.35.568.87.87 0 00.17.644l1.12 1.625c.44 1.527.45 3.145.04 4.679a6.02 6.02 0 01-2.41 3.725c-.4.247-.84.429-1.3.541-.48.109-.97.154-1.46.132-.12-.057-1.3-.108-1.76-.067a1.308 1.308 0 00-1.21.894c-.08.33-.06.679.07.993.21.502.93 1.548 1.03 1.762.31.639.56 1.306.75 1.992.19.627.27 1.283.23 1.939a9.212 9.212 0 01-1.53 4.476 7.685 7.685 0 01-3.6 3.062c-.95.351-2.53.379-3.64.737-.41.117-.79.297-1.14.534-.16.154-.27.356-.31.576a1.1 1.1 0 00.1.644l.53.599 1.19 2.219c.46.87.76 1.814.9 2.79a4.32 4.32 0 01-.61 2.717.644.644 0 00-.1.468c.01.081.04.159.09.228.04.069.1.129.17.176a.62.62 0 00.87-.157 5.2 5.2 0 00.96-2.768 9.164 9.164 0 00-.8-4.16l-1.14-2.31.28-.044c1.16-.122 2.31-.307 3.45-.553a9.639 9.639 0 004.74-3.411 11.593 11.593 0 002.05-5.61 9.176 9.176 0 00-.36-2.209c-.24-.99-.59-1.95-1.04-2.866l-.09-.186a6.983 6.983 0 001.81-.257c.7-.171 1.38-.464 1.98-.867a8.27 8.27 0 003.17-5.125c.45-1.933.36-3.953-.26-5.839a3.085 3.085 0 00-.36-.699l1.56-.177a8.396 8.396 0 002.96-1.227c.89-.604 1.68-1.334 2.35-2.169a.714.714 0 00.14-.236c.04-.087.05-.18.05-.273a.829.829 0 00-.07-.269.693.693 0 00-.67-.408.671.671 0 00-.27.066.615.615 0 00-.22.163l-.02.037zm290.22-196.856c-.9-.07-1.79-.247-2.64-.528-.81-.3-1.56-.745-2.21-1.313l-1.4-1.515c-.14-.183-.31-.614-.45-.776a1.095 1.095 0 00-.58-.35.847.847 0 00-.66.081.882.882 0 00-.4.533l-.57 1.889a8.686 8.686 0 01-3.64 2.945 6.023 6.023 0 01-4.41.439 4.557 4.557 0 01-1.23-.683 5.382 5.382 0 01-1.02-1.064c-.02-.122-.72-1.081-1.04-1.418a1.351 1.351 0 00-.67-.423 1.283 1.283 0 00-.78.037c-.32.138-.57.375-.74.674-.26.475-.63 1.69-.73 1.901-.31.641-.68 1.252-1.1 1.824-.37.54-.83 1.011-1.37 1.394a9.272 9.272 0 01-4.45 1.588 7.655 7.655 0 01-4.64-.91c-.87-.524-1.87-1.74-2.85-2.39a3.966 3.966 0 00-1.12-.556c-.22-.03-.45.011-.64.119-.2.107-.35.275-.45.478l-.14.788-.99 2.312c-.4.902-.95 1.727-1.63 2.438a4.239 4.239 0 01-2.5 1.218.638.638 0 00-.43.212.784.784 0 00-.12.212.5.5 0 00-.03.242c0 .083.02.163.06.237.04.074.09.14.15.194.12.11.29.165.45.155 1-.05 1.96-.39 2.77-.975a9.165 9.165 0 002.75-3.214l1.1-2.332.21.191a33.22 33.22 0 002.58 2.357 9.67 9.67 0 005.62 1.58c2.02-.124 3.97-.776 5.66-1.892a8.451 8.451 0 001.51-1.654 14.08 14.08 0 001.59-2.6l.09-.187c.39.475.84.897 1.33 1.256a6.23 6.23 0 001.92 1.011 8.28 8.28 0 005.98-.71 10.897 10.897 0 004.41-3.84c.13-.225.24-.467.32-.719l1.11 1.11a8.39 8.39 0 002.8 1.552c1.02.316 2.09.48 3.16.487a.75.75 0 00.28-.035c.08-.03.17-.076.24-.137a.664.664 0 00.16-.219.638.638 0 00.08-.267.849.849 0 00-.04-.274.597.597 0 00-.14-.24.7.7 0 00-.21-.169.774.774 0 00-.27-.072l-.04.008zm-2.96-7.996c-.9-.07-1.79-.247-2.64-.529-.81-.3-1.56-.744-2.21-1.312l-1.4-1.515c-.14-.183-.31-.614-.45-.776a1.096 1.096 0 00-.58-.35.849.849 0 00-.66.081.882.882 0 00-.4.533l-.57 1.889a8.687 8.687 0 01-3.64 2.945 6.019 6.019 0 01-4.41.439 4.557 4.557 0 01-1.23-.683 5.382 5.382 0 01-1.02-1.064c-.02-.122-.72-1.081-1.04-1.419a1.351 1.351 0 00-.67-.422 1.29 1.29 0 00-.78.036 1.54 1.54 0 00-.73.675c-.27.475-.64 1.69-.74 1.901-.31.64-.68 1.252-1.1 1.824-.37.54-.83 1.011-1.37 1.394a9.235 9.235 0 01-4.45 1.588 7.655 7.655 0 01-4.64-.91c-.87-.524-1.87-1.74-2.85-2.39a3.969 3.969 0 00-1.12-.556c-.22-.03-.45.011-.64.119-.2.107-.35.275-.45.478l-.13.788-1 2.312a8.293 8.293 0 01-1.62 2.438 4.294 4.294 0 01-2.51 1.218.638.638 0 00-.43.212.784.784 0 00-.12.212.5.5 0 00-.03.242c0 .083.02.163.06.237.04.074.09.14.15.194.12.11.29.165.45.155 1-.05 1.96-.39 2.77-.975a9.296 9.296 0 002.76-3.214l1.09-2.332.21.191a33.22 33.22 0 002.58 2.357 9.67 9.67 0 005.62 1.58c2.02-.124 3.98-.776 5.67-1.893a8.723 8.723 0 001.5-1.653c.62-.808 1.16-1.68 1.6-2.6l.08-.187c.39.475.84.897 1.33 1.255a6.23 6.23 0 001.92 1.012 8.27 8.27 0 005.98-.71 10.897 10.897 0 004.41-3.84c.13-.226.24-.467.32-.719l1.11 1.11a8.488 8.488 0 002.8 1.552c1.03.316 2.09.48 3.16.487a.725.725 0 00.52-.172.877.877 0 00.17-.219.813.813 0 00.07-.267.849.849 0 00-.04-.274.715.715 0 00-.13-.24.892.892 0 00-.22-.169.774.774 0 00-.27-.072l-.04.008z" fill="#fff"/><path d="M1843.58 52.865l-2.2 8.786c-.48 1.954-1.26 3.002-2.93 3.148-.8.07-1.46-.113-1.46-.113l-.16-1.833s.49.118 1.05.069c.8-.07 1.08-.528 1.33-1.321l-4.07-7.995 2.39-.21 2.5 5.29 1.16-5.611 2.39-.21zm8.4-.765l.75 8.286-2.23.203-.29-3.186-2.15.195c-2.31.21-3-.29-3.17-2.122l-.24-2.709 2.23-.202.22 2.47c.1 1.035.41 1.006 1.37.92l1.59-.146-.32-3.505 2.24-.203zm9.86-.922l.77 8.284-2.15.201-.12-1.354-.08.008s-.57 1.66-2.4 1.832c-2.31.216-3.09-1.238-3.27-3.15l-.48-5.097 2.23-.209.44 4.62c.13 1.434.59 2.033 1.62 1.936 1.2-.111 1.77-.888 1.61-2.56l-.4-4.302 2.23-.209zm11.44-1.103l.81 8.281-2.07.2-.57-5.812-.08.008-1.27 5.99-2.07.2-2.39-5.635-.08.008.56 5.812-2.07.2-.8-8.28 3.35-.324 2.22 5.571 1.12-5.895 3.34-.324zm12.08 7.15l-.33-3.264-3.1.315.33 3.263-2.23.226-.84-8.278 2.23-.226.33 3.264 3.1-.315-.33-3.263 2.23-.226.84 8.278-2.23.226zm3.76-4.566c-.25-2.42.96-4.525 3.68-4.81 2.72-.284 4.18 1.541 4.43 3.96.02.191.04.48.04.48l-5.86.612c.23 1.263.87 2.161 2.21 2.021 1.35-.141 1.46-1.44 1.46-1.44l2.22-.232s-.16 2.994-3.59 3.352c-2.78.291-4.34-1.525-4.59-3.943zm3.85-3.139c-1.09.115-1.56.904-1.64 1.942l3.51-.368c-.25-1.003-.77-1.689-1.87-1.574zm11.89 1.707c.15 1.336.85 2.402 2.26 2.246 1.42-.156 1.87-1.348 1.72-2.684-.15-1.336-.85-2.402-2.26-2.246-1.42.156-1.86 1.349-1.72 2.684zm2.45 3.916c-2.23.246-4.44-.799-4.88-4.775-.58-5.327 1.86-6.401 4.16-6.656l3.04-.334.2 1.828-3.23.356c-1.79.199-2.37 1.067-2.45 2.847l.08-.01s.57-1.35 2.48-1.56c2.47-.273 4.1 1.399 4.35 3.705.25 2.226-.97 4.292-3.75 4.6zm7.54-5.273c.17 1.495.88 2.637 2.3 2.475 1.41-.163 1.84-1.437 1.67-2.931-.17-1.494-.88-2.636-2.29-2.474-1.42.163-1.85 1.437-1.68 2.93zm-2.23.257c-.27-2.416 1-4.543 3.71-4.856 2.72-.312 4.44 1.471 4.72 3.887.28 2.416-.99 4.543-3.71 4.856-2.72.312-4.44-1.471-4.72-3.887zM505.507 949.258l-3.383 8.401c-.751 1.869-1.662 2.801-3.34 2.717a4.541 4.541 0 01-1.426-.312l.092-1.837s.471.183 1.03.211c.799.04 1.14-.375 1.498-1.126l-2.94-8.478 2.397.12 1.755 5.583 1.92-5.399 2.397.12zm7.896.337l-.405 8.31-2.237-.109.156-3.196-2.158-.105c-2.317-.113-2.929-.704-2.839-2.542l.132-2.716 2.237.109-.12 2.477c-.051 1.038.269 1.054 1.228 1.101l1.598.078.171-3.516 2.237.109zm4.605 2.877l-2.237-.105c.228-2.119 1.969-2.71 3.887-2.62 1.998.094 3.562.889 3.461 3.046l-.267 5.674-2.238-.105.076-1.599-.08-.003s-.598 1.813-2.724 1.713c-1.518-.071-2.604-.827-2.532-2.361.073-1.551 1.385-2.194 2.776-2.481 1.407-.286 2.723-.336 2.766-1.263.031-.655-.43-1.061-1.309-1.103-.959-.045-1.505.314-1.579 1.207zm2.803 1.702c-.383.318-1.142.459-1.789.589-.728.142-1.352.481-1.387 1.216-.03.639.399 1.06 1.118 1.094 1.518.071 2-1.668 2.058-2.899zm3.758 4.327l.379-8.311 3.996.182c2.158.099 3.244.869 3.175 2.388-.062 1.358-1.356 1.62-1.356 1.62l-.003.079s1.503.389 1.431 1.988c-.073 1.598-1.149 2.35-3.386 2.248l-4.236-.194zm4.156-3.334l-1.758-.08-.087 1.918 1.918.088c.719.033 1.133-.269 1.162-.908.029-.64-.436-.981-1.235-1.018zm-1.692-1.518l1.598.073c.799.036 1.213-.265 1.239-.825.025-.559-.28-.893-.999-.926l-1.758-.08-.08 1.758zm5.708 1.106c.107-2.43 1.632-4.332 4.35-4.212 3.676.162 3.771 3.449 3.771 3.449l-2.238-.098s-.009-1.602-1.607-1.673c-1.423-.063-1.972 1.13-2.038 2.633-.067 1.502.375 2.739 1.798 2.802 1.598.07 1.749-1.525 1.749-1.525l2.237.099s-.384 3.266-4.06 3.104c-2.718-.12-4.07-2.149-3.962-4.579zm13.306 4.744l.197-4.636c.061-1.438-.199-2.09-1.079-2.127-.959-.041-1.501.657-1.572 2.335l-.184 4.316-2.238-.095.354-8.313 2.158.092-.058 1.359.08.003s.627-1.574 2.306-1.503c1.343.057 2.035.727 2.313 1.716l.017-.015.08.003s.787-1.568 2.466-1.497c2.078.089 2.573 1.631 2.491 3.55l-.218 5.115-2.238-.095.198-4.636c.061-1.439-.2-2.09-1.079-2.128-.959-.041-1.501.657-1.573 2.335l-.183 4.317-2.238-.096zm8.127.218l.341-8.313 3.997.164c2.158.089 3.248.854 3.185 2.373-.055 1.359-1.348 1.626-1.348 1.626l-.003.08s1.506.382 1.44 1.981c-.065 1.598-1.137 2.355-3.376 2.263l-4.236-.174zm4.141-3.353l-1.758-.072-.079 1.918 1.918.079c.72.03 1.132-.274 1.159-.913.026-.639-.441-.979-1.24-1.012zm-1.699-1.511l1.598.066c.8.033 1.212-.271 1.235-.83.023-.56-.283-.892-1.003-.922l-1.758-.072-.072 1.758zm13.634-2.813l-3.295 8.437c-.731 1.876-1.633 2.817-3.312 2.751a4.523 4.523 0 01-1.429-.297l.073-1.838s.473.179 1.032.201c.8.031 1.137-.388 1.487-1.142l-3.029-8.447 2.398.095 1.814 5.564 1.863-5.418 2.398.094zm-.385 4.225c.091-2.43 1.588-4.343 4.322-4.24 2.734.103 3.923 2.117 3.832 4.547-.007.192-.034.479-.034.479l-5.884-.221c.048 1.282.555 2.262 1.898 2.313 1.359.051 1.647-1.219 1.647-1.219l2.239.084s-.592 2.94-4.029 2.81c-2.798-.105-4.083-2.123-3.991-4.553zm4.259-2.561c-1.103-.042-1.674.673-1.905 1.689l3.534.133c-.106-1.029-.526-1.781-1.629-1.822zm15.401-.881l-.296 8.314-2.079-.074.208-5.836-.08-.003-2.046 5.771-2.079-.074-1.631-5.901-.08-.003-.208 5.836-2.079-.074.296-8.315 3.358.12 1.474 5.816 1.884-5.697 3.358.12zm5.06 8.497l.271-8.315 3.998.13c2.159.07 3.255.827 3.205 2.346-.044 1.359-1.334 1.637-1.334 1.637l-.002.08s1.509.37 1.456 1.969c-.052 1.599-1.117 2.364-3.356 2.291l-4.238-.138zm4.113-3.388l-1.759-.057-.063 1.919 1.919.063c.72.023 1.13-.284 1.151-.923.021-.64-.449-.975-1.248-1.002zm-1.712-1.496l1.599.052c.799.026 1.21-.281 1.228-.84.018-.56-.291-.89-1.011-.914l-1.759-.057-.057 1.759zm11.472 5.298l.247-8.317 2.239.067-.1 3.358 3.059-3.27 2.639.078-3.232 3.154 3.144 5.167-2.735-.081-2.007-3.533-.94.916-.075 2.527-2.239-.066zm8.163.244l3.222-8.234 2.527.07 2.76 8.4-2.399-.067-1.756-5.955-2.083 5.849-2.271-.063zm17.257-7.861l-3.178 8.481c-.704 1.887-1.593 2.84-3.273 2.797-.799-.02-1.433-.276-1.433-.276l.047-1.84s.476.172 1.036.187c.799.02 1.13-.404 1.47-1.163l-3.146-8.403 2.399.061 1.891 5.538 1.788-5.444 2.399.062zm2.969 4.497c-.031 1.344.519 2.493 1.943 2.526 1.423.033 2.025-1.09 2.056-2.433.031-1.344-.518-2.493-1.942-2.526-1.424-.033-2.026 1.09-2.057 2.433zm1.904 4.205c-2.24-.051-4.29-1.379-4.197-5.378.124-5.359 2.685-6.1 5.005-6.046l3.055.071-.043 1.839-3.247-.075c-1.807-.042-2.497.743-2.81 2.496l.08.002s.749-1.263 2.669-1.219c2.479.057 3.876 1.93 3.823 4.249-.052 2.24-1.536 4.126-4.335 4.061zm10.849.017l.068-3.279-3.12-.064-.067 3.279-2.239-.046.17-8.318 2.239.046-.067 3.279 3.12.064.067-3.279 2.239.046-.17 8.318-2.24-.046zm3.651.093l.145-8.318 2.24.039-.053 3.039.96.017c2.319.04 3.581 1.102 3.553 2.702-.028 1.6-1.326 2.618-3.645 2.577l-3.2-.056zm2.944-3.629l-.64-.011-.036 2.08.639.011c1.2.021 1.686-.291 1.698-1.011.013-.72-.461-1.048-1.661-1.069zm6.88-4.521l-.145 8.319-2.24-.039.145-8.319 2.24.039zm3.958.045l1.485 2.422 1.554-2.378 2.64.038-2.938 3.958 3.057 4.365-2.64-.038-1.72-2.746-1.799 2.694-2.64-.038 3.182-4.274-2.821-4.042 2.64.039zm24.283.236l-.087 8.32-2.16-.023.015-1.36h-.08s-.737 1.592-2.577 1.573c-2.32-.025-2.944-1.551-2.924-3.471l.054-5.12 2.24.024-.049 4.639c-.015 1.44.378 2.084 1.418 2.095 1.2.013 1.848-.7 1.865-2.38l.045-4.32 2.24.023zm9.879 11.246l.064-11.199 2.16.012-.006 1.12h.08s.728-1.355 2.568-1.345c2.4.014 3.588 2.101 3.574 4.421-.013 2.32-1.225 4.393-3.625 4.379-1.76-.01-2.473-1.134-2.473-1.134l-.08-.001-.022 3.76-2.24-.013zm2.2-7.027c-.008 1.504.625 2.724 1.985 2.731 1.36.008 2.007-1.204 2.015-2.708.009-1.504-.624-2.724-1.984-2.731-1.36-.008-2.007 1.204-2.016 2.708zm7.25.052c.004-2.432 1.432-4.397 4.168-4.392 2.736.005 3.996 1.975 3.992 4.407-.001.192-.017.48-.017.48l-5.888-.011c.093 1.28.636 2.241 1.98 2.244 1.36.003 1.602-1.277 1.602-1.277l2.24.004s-.486 2.959-3.926 2.953c-2.8-.005-4.156-1.976-4.151-4.408zm4.165-2.712c-1.104-.002-1.65.733-1.843 1.756l3.536.007c-.143-1.024-.589-1.761-1.693-1.763zm9.977 4.16l2.16-.003c.001.96-.636 2.961-3.916 2.966-2.4.003-3.762-1.035-3.764-2.635-.004-3.12 5.277-2.327 5.275-3.687-.001-.512-.481-.96-1.361-.959-1.52.003-1.519 1.123-1.519 1.123l-2.16.003c-.001-.8.557-2.641 3.677-2.646 2.24-.003 3.601 1.035 3.603 2.475.004 3.12-5.277 1.992-5.275 3.768.001.48.322 1.039 1.522 1.038 1.76-.003 1.758-1.443 1.758-1.443zm10.309-5.634l.037 8.32-2.16.01-.006-1.36h-.08s-.713 1.603-2.553 1.611c-2.32.01-2.967-1.507-2.975-3.427l-.023-5.12 2.24-.01.021 4.64c.006 1.44.409 2.079 1.449 2.074 1.2-.005 1.837-.728 1.829-2.408l-.019-4.32 2.24-.01zm3.13 4.123c.014 1.504.601 2.715 2.024 2.702 1.424-.012 1.99-1.233 1.976-2.737-.013-1.504-.6-2.715-2.024-2.702-1.424.012-1.989 1.233-1.976 2.737zm-2.239.02c-.022-2.432 1.465-4.413 4.201-4.437 2.735-.025 4.257 1.93 4.278 4.362.022 2.432-1.465 4.413-4.201 4.437-2.736.025-4.257-1.93-4.278-4.362zm14.543 3.999l-.043-3.28-3.119.041.043 3.279-2.24.03-.109-8.319 2.24-.03.043 3.28 3.119-.041-.043-3.28 2.24-.029.109 8.319-2.24.03zm6.098-5.87l-2.239.04c.089-2.13 1.788-2.833 3.708-2.867 2-.037 3.613.654 3.652 2.814l.103 5.679-2.24.041-.029-1.6-.08.001s-.478 1.849-2.606 1.888c-1.52.027-2.652-.656-2.68-2.192-.028-1.552 1.239-2.279 2.608-2.656 1.385-.377 2.695-.513 2.678-1.44-.012-.656-.498-1.032-1.378-1.016-.96.018-1.481.411-1.497 1.308zm2.908 1.515c-.362.343-1.11.532-1.747.704-.717.189-1.318.568-1.305 1.304.012.64.467 1.032 1.187 1.019 1.519-.028 1.887-1.795 1.865-3.027zm3.273 4.094l2.795-8.388 2.528-.06 3.186 8.248-2.399.056-2.058-5.857-1.781 5.947-2.271.054zm9.801-.209l-.233-8.317 2.239-.062.085 3.038 1.36-.038c2.319-.065 3.627.939 3.672 2.538.045 1.6-1.205 2.675-3.525 2.74l-3.598.101zm3.176-3.77l-1.04.029.058 2.079 1.04-.029c1.199-.034 1.67-.367 1.65-1.087-.02-.72-.509-1.026-1.708-.992zm9.836 3.315l-.109-3.278-3.119.104.11 3.278-2.239.075-.278-8.315 2.239-.075.11 3.278 3.118-.104-.11-3.278 2.239-.075.278 8.315-2.239.075zm2.817-.091l-.332-8.313 2.239-.089.121 3.037.959-.038c2.318-.092 3.638.896 3.702 2.495.064 1.599-1.174 2.689-3.492 2.781l-3.197.127zm2.731-3.791l-.64.025.083 2.078.64-.025c1.199-.048 1.666-.387 1.637-1.106-.029-.719-.521-1.02-1.72-.972zm6.61-4.907l.331 8.313-2.238.089-.331-8.313 2.238-.089zm2.987-.134l1.631 2.327 1.406-2.468 2.637-.124-2.69 4.13 3.318 4.17-2.637.123-1.885-2.635-1.631 2.799-2.637.124 2.915-4.461-3.064-3.862 2.637-.123zm13.422 3.558c-.139-2.428 1.187-4.475 3.902-4.63 3.674-.21 4.101 3.05 4.101 3.05l-2.236.128s-.172-1.592-1.769-1.501c-1.422.081-1.847 1.323-1.762 2.825.086 1.502.651 2.687 2.073 2.606 1.597-.091 1.585-1.693 1.585-1.693l2.237-.128s-.053 3.288-3.727 3.498c-2.715.156-4.265-1.727-4.404-4.155zm14.424 3.556l-.294-4.63c-.092-1.437-.42-2.058-1.298-2.002-.958.061-1.424.812-1.317 2.489l.275 4.311-2.236.143-.528-8.304 2.155-.137.087 1.357.079-.005s.458-1.632 2.134-1.739c1.342-.085 2.101.508 2.482 1.461l.015-.017.08-.005s.617-1.642 2.293-1.749c2.076-.132 2.732 1.349 2.854 3.265l.325 5.11-2.235.142-.295-4.63c-.092-1.437-.42-2.058-1.298-2.002-.958.061-1.423.812-1.317 2.489l.275 4.311-2.236.142zm9.886-6.435l-2.234.164c-.028-2.132 1.631-2.927 3.545-3.068 1.995-.146 3.643.455 3.801 2.609l.416 5.665-2.234.164-.117-1.596-.08.006s-.376 1.873-2.498 2.028c-1.516.111-2.685-.509-2.797-2.041-.114-1.548 1.111-2.343 2.458-2.795 1.363-.453 2.663-.66 2.595-1.586-.048-.654-.555-1.002-1.432-.938-.958.07-1.456.492-1.423 1.388zm2.987 1.353c-.342.362-1.079.593-1.706.799-.705.228-1.285.64-1.231 1.374.047.638.523 1.004 1.241.952 1.516-.112 1.786-1.896 1.696-3.125zm4.311 6.696l-.948-11.16 2.153-.183.094 1.116.08-.007s.603-1.416 2.436-1.571c2.391-.203 3.763 1.768 3.959 4.08.196 2.311-.823 4.485-3.215 4.688-1.754.149-2.566-.906-2.566-.906l-.079.007.318 3.746-2.232.19zm1.557-7.198c.127 1.499.867 2.656 2.222 2.541 1.355-.115 1.89-1.38 1.763-2.879s-.868-2.656-2.223-2.541c-1.355.115-1.89 1.381-1.762 2.879zm12.483 3.255l-.441-4.619c-.137-1.433-.484-2.043-1.36-1.959-.956.091-1.397.856-1.237 2.529l.41 4.3-2.23.213-.79-8.283 2.15-.205.129 1.354.08-.007s.405-1.646 2.078-1.806c1.338-.128 2.115.441 2.526 1.382l.015-.017.079-.008s.565-1.661 2.238-1.821c2.07-.197 2.772 1.263 2.954 3.174l.487 5.097-2.23.213-.441-4.619c-.137-1.434-.484-2.044-1.36-1.96-.956.091-1.397.857-1.237 2.529l.41 4.301-2.23.212zm9.774-6.769l-2.227.244c-.104-2.129 1.525-2.984 3.433-3.192 1.989-.218 3.657.324 3.892 2.471l.618 5.646-2.227.244-.174-1.591-.079.009s-.309 1.885-2.425 2.116c-1.511.166-2.7-.412-2.867-1.939-.169-1.543 1.027-2.382 2.356-2.882 1.346-.501 2.638-.755 2.537-1.678-.072-.652-.591-.981-1.465-.885-.955.104-1.438.543-1.372 1.437zm3.033 1.246c-.329.374-1.057.631-1.676.859-.697.253-1.261.685-1.181 1.417.07.636.558.985 1.274.907 1.511-.165 1.717-1.959 1.583-3.183zm5.911-4.844l1.806 2.193 1.211-2.57 2.619-.328-2.361 4.327 3.632 3.899-2.62.328-2.084-2.481-1.409 2.918-2.619.327 2.56-4.674-3.354-3.611 2.619-.328zm132.925-3.156l-.26-3.269-3.11.251.26 3.269-2.23.181-.67-8.293 2.23-.181.27 3.27 3.11-.252-.27-3.269 2.24-.181.67 8.293-2.24.181zm5.81-6.45l-2.23.207c-.07-2.131 1.57-2.958 3.48-3.135 1.99-.184 3.65.386 3.85 2.537l.52 5.656-2.23.206-.14-1.593-.08.007s-.34 1.879-2.46 2.075c-1.52.14-2.7-.458-2.84-1.987-.14-1.546 1.07-2.365 2.41-2.842 1.35-.478 2.65-.711 2.56-1.635-.06-.653-.57-.991-1.45-.91-.95.088-1.44.519-1.39 1.414zm3.01 1.297c-.34.368-1.07.613-1.69.831-.7.241-1.28.664-1.21 1.397.06.637.54.994 1.26.928 1.51-.14 1.75-1.93 1.64-3.156zm11.09-5.354l-2.07 8.819c-.46 1.961-1.22 3.021-2.89 3.193-.79.082-1.45-.091-1.45-.091l-.19-1.83s.49.11 1.05.052c.79-.082 1.07-.544 1.31-1.341l-4.2-7.931 2.39-.247 2.58 5.251 1.08-5.628 2.39-.247zm7.53-1.072l.94 8.267-2.22.254-.37-3.18-2.14.245c-2.31.262-3.01-.222-3.21-2.05l-.31-2.703 2.22-.253.28 2.464c.12 1.033.44.997 1.39.888l1.59-.181-.39-3.497 2.22-.254zm8.79-1.208l1.03 8.256-2.14.267-.17-1.349-.08.009s-.52 1.677-2.34 1.905c-2.3.287-3.13-1.142-3.36-3.047l-.64-5.081 2.23-.277.57 4.604c.18 1.429.65 2.015 1.69 1.886 1.19-.148 1.73-.942 1.52-2.609l-.53-4.287 2.22-.277zm11.35-1.546l1.13 8.242-2.06.284-.79-5.786-.08.011-1.03 6.036-2.06.284-2.62-5.535-.08.011.8 5.786-2.06.283-1.14-8.242 3.33-.458 2.45 5.477.88-5.935 3.33-.458zm9.48 7.451l-1.28-8.221 2.14-.332.2 1.344.08-.013s.47-1.691 2.29-1.974c2.29-.356 3.16 1.047 3.45 2.945l.79 5.059-2.22.344-.71-4.585c-.22-1.423-.71-1.994-1.74-1.834-1.19.184-1.71.994-1.45 2.654l.66 4.269-2.21.344zm9.05-1.412l1.57-8.701 2.49-.42 4.33 7.707-2.37.399-2.87-5.503-.91 6.141-2.24.377zm9.8-7.876l-2.21.402c-.25-2.116 1.31-3.084 3.2-3.429 1.97-.359 3.67.061 4.06 2.186l1.02 5.588-2.2.402-.29-1.574-.08.015s-.17 1.902-2.27 2.284c-1.49.273-2.72-.219-3-1.73-.28-1.526.86-2.449 2.15-3.042 1.3-.596 2.57-.942 2.41-1.855-.12-.645-.66-.937-1.53-.779-.94.172-1.39.645-1.26 1.532zm3.11 1.025c-.3.397-1.01.705-1.61.978-.67.302-1.21.773-1.07 1.497.11.63.62.943 1.33.814 1.5-.273 1.57-2.077 1.35-3.289zm4.81 3.377l-1.61-8.163 3.93-.772c2.12-.417 3.35.073 3.65 1.565.26 1.334-.93 1.895-.93 1.895l.01.078s1.55.021 1.86 1.591c.31 1.57-.55 2.556-2.75 2.988l-4.16.818zm3.24-4.225l-1.72.339.37 1.884 1.88-.37c.71-.139 1.04-.531.91-1.159-.12-.628-.65-.849-1.44-.694zm-2-1.074l1.57-.309c.78-.154 1.11-.545 1.01-1.095-.11-.549-.49-.801-1.19-.662l-1.73.339.34 1.727zm8.52-2.944l-2.19.467c-.32-2.108 1.21-3.122 3.09-3.522 1.96-.417 3.67-.046 4.12 2.066l1.18 5.556-2.19.466-.33-1.564-.08.016s-.12 1.906-2.2 2.35c-1.48.317-2.73-.139-3.05-1.641-.32-1.518.79-2.473 2.06-3.104 1.29-.634 2.55-1.017 2.35-1.925-.13-.642-.68-.917-1.54-.734-.94.2-1.38.686-1.22 1.569zm3.14.933c-.29.406-.99.735-1.58 1.024-.67.323-1.19.809-1.03 1.529.13.626.65.924 1.36.774 1.48-.317 1.51-2.122 1.25-3.327zm8.7 2.593l-1.04-4.524c-.32-1.404-.74-1.964-1.6-1.768-.94.214-1.27 1.03-.9 2.668l.96 4.211-2.18.499-1.86-8.111 2.11-.481.3 1.326.08-.018s.19-1.684 1.83-2.058c1.31-.3 2.15.164 2.68 1.044l.02-.019.07-.018s.35-1.72 1.99-2.094c2.02-.463 2.91.894 3.34 2.765l1.14 4.992-2.19.499-1.03-4.524c-.32-1.404-.74-1.963-1.6-1.767-.94.213-1.28 1.029-.9 2.667l.96 4.212-2.18.499zm8.38-2.236l-1.96-8.085 2.18-.529.71 2.954 1.33-.321c2.25-.547 3.74.161 4.12 1.716.38 1.555-.62 2.868-2.88 3.415l-3.5.85zm2.32-4.35l-1.01.245.49 2.021 1.01-.245c1.17-.283 1.56-.708 1.39-1.407-.17-.7-.71-.898-1.88-.614zm17.53.425l-2.15-8.039 2.17-.577.86 3.246 2-4.009 2.55-.681-2.19 3.947 4.49 4.05-2.65.706-2.93-2.81-.64 1.147.65 2.442-2.16.578zm9.65.405l-3.1-10.763 2.08-.597.31 1.076.07-.022s.32-1.506 2.09-2.015c2.31-.664 4.03 1.003 4.68 3.232.64 2.23.06 4.561-2.25 5.225-1.69.486-2.69-.391-2.69-.391l-.08.022 1.04 3.614-2.15.619zm.13-7.362c.41 1.445 1.37 2.436 2.67 2.06 1.31-.376 1.59-1.722 1.17-3.167-.41-1.445-1.36-2.437-2.67-2.061-1.31.377-1.59 1.722-1.17 3.168zm8.97-3.235c.45 1.435 1.36 2.423 2.72 1.997 1.36-.425 1.54-1.758 1.09-3.193-.45-1.435-1.36-2.423-2.72-1.998-1.36.426-1.54 1.759-1.09 3.194zm-2.14.67c-.73-2.321.12-4.649 2.73-5.467 2.61-.818 4.63.61 5.36 2.931.73 2.321-.12 4.649-2.73 5.467-2.61.818-4.63-.611-5.36-2.931zm10.28 1.133l.16-8.84 2.39-.812 5.51 6.919-2.28.77-3.71-4.974.08 6.207-2.15.73zm7.1-7.16c-.85-2.281-.19-4.621 2.37-5.569 2.57-.948 4.44.46 5.28 2.741.07.181.15.456.15.456l-5.52 2.041c.53 1.167 1.37 1.879 2.64 1.413 1.27-.471 1.05-1.755 1.05-1.755l2.1-.776s.58 2.943-2.65 4.135c-2.62.97-4.58-.405-5.42-2.686zm2.96-3.993c-1.04.383-1.3 1.262-1.12 2.289l3.32-1.226c-.49-.91-1.17-1.446-2.2-1.063zm13.42-6.905l3.19 7.686-1.93.796-2.23-5.395-.08.031.54 6.099-1.92.797-3.94-4.69-.07.031 2.24 5.394-1.93.797-3.18-7.686 3.1-1.287 3.76 4.678-.65-5.964 3.1-1.287zm118.89-62.147c-1.8-1.634-2.29-4.023-.46-6.037 2.47-2.725 5.07-.699 5.07-.699l-1.51 1.659s-1.24-1.016-2.31.169c-.96 1.054-.39 2.239.72 3.249 1.11 1.011 2.35 1.461 3.3.407 1.08-1.185-.05-2.32-.05-2.32l1.5-1.659s2.27 2.382-.2 5.108c-1.83 2.014-4.25 1.758-6.06.123zm7.44-16.201l5.66 4.708c1.84 1.535 2.31 3.593.47 5.807-2.45 2.952-4.72 1.171-4.72 1.171l1.43-1.722s.98.706 2-.524c.91-1.094.61-1.987-.49-2.908l-.31-.256-.05.061s.4 1.27-.73 2.623c-1.53 1.845-3.9 1.437-5.56.055-1.66-1.381-2.49-3.634-.96-5.479 1.18-1.414 2.69-1.098 2.69-1.098l.05-.061-.86-.717 1.38-1.66zm1.69 4.219c-1.03-.86-2.38-1.146-3.25-.1-.87 1.045-.34 2.315.69 3.174 1.04.86 2.38 1.146 3.25.101.87-1.046.34-2.316-.69-3.175zm2.02-5.102l-1.36 1.778c-1.61-1.395-1.1-3.163.06-4.687 1.22-1.588 2.76-2.421 4.48-1.108l4.51 3.452-1.36 1.779-1.27-.973-.05.064s1.15 1.525-.14 3.215c-.93 1.207-2.17 1.668-3.39.735-1.23-.944-1.01-2.388-.45-3.695.56-1.319 1.27-2.429.53-2.993-.52-.399-1.11-.251-1.65.448-.58.762-.6 1.415.09 1.985zm3-1.334c.04.496-.27 1.201-.54 1.806-.29.679-.37 1.385.21 1.833.51.389 1.1.276 1.54-.296.92-1.207-.23-2.594-1.21-3.343zm2.36-2.453c-1.99-1.392-2.79-3.686-1.22-5.929 1.56-2.244 3.9-2.153 5.9-.761.15.11.38.288.38.288l-3.37 4.827c1.1.655 2.2.758 2.97-.344.78-1.115-.13-2.045-.13-2.045l1.28-1.836s2.15 2.088.18 4.908c-1.6 2.296-3.99 2.285-5.99.892zm.16-4.968c-.64.906-.34 1.773.39 2.517l2.02-2.9c-.92-.468-1.78-.522-2.41.383zm7.11-13.538l7.04 4.441-1.11 1.759-4.94-3.117-.05.068 3.96 4.673-1.11 1.759-5.92-1.561-.04.067 4.94 3.117-1.11 1.759-7.04-4.44 1.79-2.842 5.77 1.654-3.97-4.495 1.79-2.842zm3.64-18.405l1.76.962-2.31 4.208 8.26 4.534-1.16 2.118-10.02-5.496 3.47-6.326zm13.19-.907l-1.07 2.165-8.43-4.175-1.38 2.782-1.8-.894 3.82-7.729 1.81.895-1.38 2.781 8.43 4.175zm1.19-15.685c.82.347 1.52.765 2.1 1.256a4.966 4.966 0 011.31 1.64c.31.607.46 1.284.44 2.03-.01.737-.2 1.532-.56 2.386-.37.854-.81 1.545-1.34 2.075-.53.515-1.12.878-1.77 1.089-.65.198-1.35.257-2.11.179-.75-.088-1.53-.305-2.35-.652-1.08-.465-1.96-1.045-2.61-1.741a4.454 4.454 0 01-1.17-2.445c-.13-.938.05-1.981.54-3.129.48-1.139 1.11-1.98 1.87-2.523a4.35 4.35 0 012.58-.831c.96-.02 1.98.201 3.07.666zm-3.26 7.668c.73.314 1.41.49 2.01.53.61.039 1.14-.077 1.6-.348.45-.271.81-.716 1.07-1.334.27-.638.35-1.209.22-1.713-.11-.514-.4-.972-.85-1.374-.45-.413-1.05-.775-1.78-1.089-1.11-.473-2.07-.636-2.87-.492-.81.145-1.41.688-1.81 1.63-.27.628-.34 1.199-.22 1.713.11.514.4.977.85 1.389.45.412 1.04.775 1.78 1.088zm56.21-133.842c1.47.336 2.78.046 3.1-1.342.32-1.388-.74-2.221-2.21-2.557-1.46-.336-2.78-.046-3.09 1.342-.32 1.389.74 2.221 2.2 2.557zm-.5 2.184c-2.37-.543-3.95-2.449-3.34-5.116.61-2.667 2.86-3.693 5.23-3.15 2.37.542 3.96 2.448 3.35 5.115-.61 2.667-2.87 3.693-5.24 3.151zm7.2-12.881l-4.53-1.015c-1.4-.315-2.09-.174-2.28.684-.21.937.38 1.594 2.02 1.962l4.21.945-.49 2.185-8.12-1.82.47-2.107 1.33.297.02-.078s-1.44-.896-1.07-2.536c.29-1.311 1.07-1.874 2.1-1.972l-.02-.02.02-.078s-1.4-1.052-1.03-2.691c.45-2.03 2.06-2.244 3.93-1.824l5 1.12-.49 2.186-4.53-1.015c-1.41-.315-2.09-.174-2.29.684-.21.937.38 1.594 2.02 1.962l4.22.945-.49 2.186zm-1.07-11.757c1.32.289 2.55-.029 2.85-1.42.31-1.391-.67-2.198-1.99-2.487-1.31-.289-2.54.029-2.85 1.42-.31 1.391.68 2.198 1.99 2.487zm4.5-1.059c-.49 2.188-2.18 3.944-6.09 3.083-5.23-1.152-5.47-3.809-4.97-6.075l.66-2.984 1.79.396-.69 3.172c-.39 1.765.24 2.594 1.9 3.238l.02-.078s-1.09-.979-.68-2.854c.53-2.422 2.64-3.432 4.9-2.933 2.19.482 3.76 2.301 3.16 5.035zm-6.27-15.027l8.13 1.76-.46 2.111-1.33-.287-.02.078s1.42 1.042 1.03 2.84c-.49 2.268-2.12 2.572-3.99 2.165l-5.01-1.083.48-2.189 4.53.982c1.41.304 2.12.049 2.34-.968.25-1.172-.31-1.95-1.96-2.306l-4.22-.914.48-2.189zm11.17 1.309l-10.95-2.337.45-2.113 1.09.234.02-.078s-1.18-.988-.8-2.788c.51-2.347 2.79-3.086 5.06-2.602 2.27.484 4.05 2.092 3.55 4.439-.37 1.721-1.61 2.191-1.61 2.191l-.02.079 3.68.784-.47 2.191zm-6.43-3.582c1.47.314 2.79-.058 3.07-1.388.29-1.33-.77-2.21-2.24-2.524-1.47-.313-2.79.059-3.08 1.389-.28 1.33.78 2.21 2.25 2.523zm.94-10.126l-.46 2.192c-2.06-.564-2.37-2.377-1.97-4.256.41-1.957 1.45-3.375 3.56-2.93l5.56 1.171-.46 2.192-1.57-.33-.02.078s1.7.88 1.26 2.963c-.31 1.487-1.23 2.438-2.73 2.122-1.52-.32-1.95-1.718-2.01-3.137-.06-1.434.1-2.741-.8-2.933-.65-.135-1.12.256-1.3 1.117-.2.939.07 1.535.94 1.751zm2.12-2.495c.26.429.27 1.201.3 1.861.02.74.26 1.411.98 1.563.62.132 1.11-.224 1.26-.929.31-1.487-1.33-2.241-2.54-2.495zm.26-2.853c-2.38-.496-4.01-2.292-3.45-4.97.55-2.679 2.74-3.515 5.12-3.019.19.039.47.114.47.114l-1.21 5.764c1.28.167 2.33-.17 2.6-1.486.28-1.331-.92-1.827-.92-1.827l.45-2.193s2.8 1.074 2.1 4.441c-.57 2.742-2.77 3.672-5.16 3.176zm-1.81-4.628c-.22 1.081.38 1.764 1.35 2.161l.72-3.462c-1.03-.068-1.84.22-2.07 1.301zm1.54-14.533l8.15 1.685-.42 2.037-5.72-1.183-.02.079 5.35 2.984-.42 2.037-6.09.619-.02.079 5.72 1.182-.42 2.037-8.15-1.685.68-3.29 5.98-.479-5.3-2.812.68-3.29zm9.22-3.516l-8.15-1.675.81-3.918c.43-2.116 1.36-3.068 2.85-2.762 1.33.274 1.39 1.592 1.39 1.592l.08.016s.62-1.424 2.18-1.102c1.57.322 2.15 1.502 1.7 3.696l-.86 4.153zm-2.64-4.626l-.36 1.724 1.89.386.38-1.881c.15-.705-.09-1.161-.71-1.29-.63-.129-1.04.277-1.2 1.061zm-1.77 1.434l.33-1.568c.16-.783-.08-1.24-.62-1.352-.55-.113-.93.136-1.08.841l-.35 1.724 1.72.355zm2.92-12.235c-2.38-.489-4.02-2.296-3.47-4.96.74-3.605 4-3.181 4-3.181l-.45 2.195s-1.58-.244-1.91 1.324c-.28 1.394.81 2.125 2.28 2.427 1.48.303 2.77.061 3.05-1.334.33-1.567-1.23-1.967-1.23-1.967l.45-2.194s3.17.894 2.43 4.499c-.55 2.665-2.77 3.68-5.15 3.191zm2.51-11.001c1.31.27 2.54-.065 2.83-1.46.28-1.395-.71-2.188-2.03-2.458-1.31-.271-2.54.064-2.83 1.459-.29 1.395.71 2.188 2.03 2.459zm4.47-1.122c-.45 2.195-2.12 3.974-6.04 3.169-5.25-1.08-5.52-3.733-5.05-6.005l.61-2.994 1.81.371-.66 3.181c-.36 1.771.29 2.591 1.95 3.211l.02-.078s-1.11-.963-.72-2.844c.5-2.429 2.59-3.469 4.86-3.001 2.2.451 3.79 2.248 3.22 4.99zm-2.71-8.64c1.47.304 2.78-.014 3.07-1.408.29-1.395-.79-2.205-2.26-2.509-1.47-.304-2.78.014-3.07 1.409-.29 1.394.79 2.204 2.26 2.508zm-.45 2.194c-2.39-.492-4.01-2.363-3.46-5.042.56-2.68 2.79-3.755 5.17-3.263s4.01 2.363 3.45 5.042c-.55 2.68-2.78 3.755-5.16 3.263zm8.97-8.622l-10.97-2.281.44-2.115 1.1.228.01-.078s-1.18-.982-.81-2.783c.49-2.35 2.77-3.101 5.04-2.629 2.28.473 4.07 2.071 3.58 4.421-.36 1.723-1.6 2.2-1.6 2.2l-.02.078 3.68.766-.45 2.193zm-6.46-3.549c1.48.307 2.8-.072 3.07-1.404.28-1.331-.78-2.206-2.25-2.512-1.47-.306-2.8.073-3.07 1.404-.28 1.332.78 2.206 2.25 2.512zm7.17-11.964l-3.21-.675-.64 3.054 3.21.674-.46 2.193-8.14-1.712.46-2.192 3.21.675.64-3.054-3.21-.674.46-2.193 8.14 1.712-.46 2.192zm-5.66-13.412l7.76 4.678c1.73 1.038 2.5 2.086 2.15 3.729-.17.783-.53 1.359-.53 1.359l-1.8-.383s.25-.437.37-.984c.17-.783-.19-1.186-.87-1.659l-8.84 1.554.5-2.347 5.79-.845-5.03-2.754.5-2.348zm.54-2.5l3.21.694.23-1.079c-1.89-.705-3.1-2.324-2.59-4.67.58-2.674 2.79-3.571 5.16-3.057 2.38.515 4.02 2.245 3.44 4.919-.51 2.345-2.26 3.325-4.29 3.18l-.23 1.079 3.2.694-.47 2.189-8.13-1.76.47-2.189zm4.76-2.326c1.47.319 2.75.169 3.05-1.223.3-1.391-.8-2.055-2.27-2.373-1.47-.318-2.75-.169-3.05 1.223-.3 1.391.8 2.055 2.27 2.373zm7.53-12.428l-8.12-1.813.49-2.186 3.28.732-2.63-3.621.57-2.576 2.49 3.768 5.67-2.112-.6 2.67-3.85 1.305.72 1.096 2.47.55-.49 2.187zm-1.61-11.826c1.47.335 2.78.044 3.1-1.344.32-1.389-.74-2.221-2.21-2.556-1.46-.334-2.78-.043-3.09 1.345-.32 1.388.74 2.22 2.2 2.555zm-.49 2.184c-2.38-.541-3.96-2.446-3.35-5.113.61-2.667 2.86-3.696 5.23-3.154 2.37.541 3.96 2.445 3.35 5.112-.61 2.668-2.86 3.696-5.23 3.155zm.43-20.324l8.1 1.904-.47 2.024-5.69-1.336-.02.078 5.27 3.128-.48 2.024-6.1.455-.02.078 5.68 1.336-.47 2.025-8.1-1.904.77-3.271 5.99-.317-5.23-2.954.77-3.27zm3.6-3.954l-.53 2.177c-2.04-.628-2.29-2.451-1.83-4.316.47-1.943 1.55-3.327 3.65-2.816l5.52 1.344-.54 2.177-1.55-.379-.02.078s1.67.932 1.16 3c-.36 1.477-1.3 2.398-2.8 2.035-1.5-.367-1.89-1.778-1.9-3.198-.01-1.436.19-2.737-.71-2.957-.64-.155-1.13.221-1.34 1.076-.22.932.02 1.536.89 1.779zm2.2-2.427c.24.437.23 1.21.24 1.869 0 .742.21 1.419.93 1.594.62.151 1.11-.19 1.28-.889.36-1.477-1.25-2.282-2.45-2.574zm5.85-8.134l-3.18-.806-.76 3.024 3.18.806-.55 2.171-8.07-2.044.55-2.172 3.18.806.77-3.024-3.18-.806.55-2.171 8.06 2.044-.55 2.172zm-5.01-13.73l7.12 1.88c2.32.613 3.62 2.279 2.88 5.064-.98 3.712-3.78 3.054-3.78 3.054l.57-2.166s1.18.23 1.59-1.317c.36-1.377-.28-2.061-1.68-2.429l-.38-.102-.02.077s.89.983.45 2.684c-.62 2.321-2.94 2.95-5.02 2.398-2.09-.552-3.8-2.243-3.18-4.564.47-1.779 1.97-2.127 1.97-2.127l.02-.078-1.09-.286.55-2.088zm3.32 3.11c-1.3-.343-2.64-.035-2.99 1.28-.34 1.314.67 2.244 1.97 2.587 1.3.343 2.64.035 2.98-1.28.35-1.315-.66-2.244-1.96-2.587zm-.91-11.878l7.47 5.128c1.66 1.138 2.37 2.23 1.93 3.85a4.691 4.691 0 01-.62 1.324l-1.77-.489s.28-.42.43-.96c.21-.771-.12-1.194-.78-1.707l-8.91 1.029.64-2.313 5.83-.502-4.85-3.046.63-2.314zm9.4-2.63l-7.98-2.357.64-2.148 3.22.952-2.38-3.791.75-2.532 2.22 3.928 5.8-1.724-.78 2.624-3.92 1.042.64 1.142 2.43.716-.64 2.148zm2.49-8.409l-7.05-5.334.75-2.413 8.83-.378-.71 2.291-6.21.074 5.07 3.591-.68 2.169zm-2.63-19.027l7.2 5.5c1.6 1.221 2.26 2.348 1.73 3.943a4.511 4.511 0 01-.68 1.291l-1.75-.578s.3-.405.48-.937c.25-.759-.06-1.199-.69-1.744l-8.95.575.75-2.278 5.85-.205-4.69-3.289.75-2.278zm5.35-1.971c1.27.45 2.53.288 3.01-1.053.48-1.342-.4-2.265-1.67-2.716-1.26-.45-2.53-.289-3 1.053-.48 1.342.4 2.265 1.66 2.716zm4.59-.49c-.75 2.11-2.65 3.641-6.42 2.3-5.05-1.797-4.95-4.462-4.17-6.648l1.02-2.879 1.74.617-1.09 3.06c-.61 1.703-.08 2.605 1.49 3.451l.02-.075s-.96-1.108-.32-2.917c.83-2.336 3.05-3.076 5.23-2.298 2.12.751 3.44 2.751 2.5 5.389zm-2.55-10.422l-.81 2.088c-1.94-.89-1.94-2.73-1.25-4.519.73-1.864 1.98-3.095 3.99-2.312l5.3 2.057-.82 2.088-1.49-.579-.03.074s1.53 1.144.76 3.127c-.55 1.417-1.61 2.206-3.04 1.65-1.45-.563-1.64-2.011-1.47-3.421.18-1.425.55-2.688-.32-3.024-.61-.238-1.14.07-1.46.89-.35.895-.18 1.527.64 1.881zm2.51-2.116c.18.464.07 1.229-.01 1.884-.1.734.02 1.434.71 1.701.59.232 1.13-.041 1.39-.712.55-1.417-.94-2.427-2.09-2.873zm64.24-126.799l-2.67-1.904-1.81 2.54 2.67 1.904-1.3 1.824-6.78-4.83 1.3-1.824 2.67 1.905 1.81-2.541-2.67-1.904 1.3-1.824 6.78 4.83-1.3 1.824zm-1.49-8.476l-1.34 1.793c-1.63-1.378-1.14-3.151.01-4.688 1.2-1.601 2.74-2.449 4.47-1.155l4.54 3.406-1.34 1.792-1.28-.959-.05.064s1.17 1.513-.11 3.216c-.91 1.217-2.15 1.691-3.37.77-1.25-.93-1.04-2.377-.5-3.689.55-1.325 1.25-2.442.51-2.999-.53-.393-1.12-.239-1.65.465-.58.769-.59 1.422.11 1.984zm2.98-1.365c.05.496-.26 1.204-.51 1.812-.29.682-.36 1.389.22 1.83.52.384 1.11.265 1.54-.311.91-1.217-.26-2.592-1.25-3.331zm3.65-11.768l4.92 7.606c1.09 1.69 1.33 2.972.3 4.295-.5.63-1.08.986-1.08.986l-1.45-1.134s.42-.279.77-.72c.49-.63.35-1.149-.06-1.874l-8.62-2.481 1.48-1.89 5.57 1.782-3.31-4.68 1.48-1.89zm5.14-6.334l6.46 5.248-1.42 1.739-2.48-2.019-1.36 1.676c-1.46 1.8-2.3 1.943-3.73.783l-2.11-1.716 1.41-1.738 1.93 1.564c.8.656 1 .408 1.61-.337l1.01-1.241-2.73-2.221 1.41-1.738zm5.88-7.157l6.34 5.382-1.39 1.647-1.04-.879-.05.061s.75 1.584-.44 2.987c-1.5 1.769-3.07 1.274-4.54.032l-3.9-3.313 1.45-1.708 3.54 3.002c1.1.932 1.84 1.041 2.52.248.77-.916.64-1.869-.64-2.956l-3.3-2.795 1.45-1.708zm7.52-8.499l6.22 5.528-1.38 1.555-4.37-3.88-.05.059 3.14 5.256-1.38 1.554-5.59-2.504-.05.059 4.36 3.88-1.38 1.555-6.22-5.528 2.24-2.511 5.42 2.571-3.19-5.082 2.23-2.512zm11.1.332l-6.04-5.724 1.49-1.567.98.935.06-.058s-.67-1.623.6-2.958c1.59-1.684 3.14-1.103 4.53.218l3.72 3.523-1.54 1.625-3.37-3.192c-1.05-.991-1.79-1.141-2.5-.386-.83.871-.75 1.831.47 2.987l3.14 2.972-1.54 1.625z" fill="#fff"/><path d="M1580.02 177.477l-3.81-7.975 1.77-1.799 8.02 3.718-1.68 1.707-5.55-2.782 2.85 5.514-1.6 1.617zm3.89-12.023l-1.61 1.554c-1.38-1.621-.62-3.293.77-4.625 1.44-1.388 3.09-1.98 4.59-.424l3.94 4.09-1.61 1.554-1.11-1.152-.06.055s.91 1.681-.63 3.157c-1.09 1.055-2.39 1.325-3.45.219-1.08-1.117-.65-2.512.1-3.721.76-1.219 1.63-2.21.98-2.878-.45-.473-1.07-.416-1.7.195-.69.666-.8 1.309-.21 1.976zm3.17-.869c-.04.497-.45 1.145-.8 1.705-.4.626-.58 1.313-.07 1.843.44.461 1.04.438 1.56-.062 1.09-1.054.16-2.599-.69-3.486zm5.7.34l-5.64-6.118 2.94-2.711c1.59-1.464 2.9-1.693 3.93-.576.92 1 .2 2.103.2 2.103l.05.059s1.34-.795 2.42.382c1.09 1.176.86 2.469-.78 3.987l-3.12 2.874zm.56-5.299l-1.3 1.192 1.3 1.412 1.41-1.301c.53-.488.61-.994.18-1.465-.44-.471-1.01-.381-1.59.162zm-2.27.134l1.17-1.085c.59-.542.67-1.048.29-1.46-.38-.412-.83-.43-1.36.058l-1.3 1.192 1.2 1.295zm6.14-6.56l-1.68 1.478c-1.31-1.684-.47-3.318.97-4.585 1.51-1.32 3.18-1.834 4.61-.211l3.75 4.268-1.69 1.478-1.05-1.202-.06.053s.83 1.72-.77 3.124c-1.14 1.003-2.45 1.213-3.46.059-1.03-1.167-.53-2.54.27-3.713.82-1.182 1.73-2.132 1.12-2.83-.44-.493-1.05-.464-1.71.116-.72.633-.87 1.27-.3 1.965zm3.2-.722c-.06.495-.51 1.124-.88 1.666-.43.608-.64 1.285-.15 1.838.42.481 1.02.486 1.56.011 1.14-1.003.28-2.589-.53-3.515zm8.64-2.038l-2.99-3.552c-.92-1.103-1.56-1.407-2.23-.841-.73.617-.66 1.498.42 2.784l2.78 3.308-1.72 1.441-5.35-6.37 1.65-1.39.88 1.041.06-.051s-.6-1.585.69-2.666c1.02-.865 1.99-.838 2.86-.296v-.023l.06-.051s-.47-1.689.81-2.769c1.59-1.338 3-.535 4.24.935l3.29 3.92-1.72 1.441-2.98-3.552c-.93-1.103-1.56-1.408-2.23-.841-.74.617-.67 1.498.41 2.784l2.78 3.307-1.71 1.441zm5.88-5.082l-5.21-6.484 1.74-1.404 1.91 2.369 1.06-.852c1.81-1.454 3.46-1.446 4.46-.199 1 1.247.66 2.859-1.15 4.313l-2.81 2.257zm.25-4.924l-.81.652 1.3 1.621.82-.652c.93-.752 1.1-1.302.65-1.863-.45-.561-1.02-.51-1.96.242zm17.92-13.607c.74 1.12 1.85 1.749 3.04.962 1.19-.787 1.04-2.052.3-3.172-.75-1.121-1.85-1.749-3.04-.962-1.19.786-1.04 2.051-.3 3.172zm3.97 2.362c-1.87 1.238-4.31 1.32-6.52-2.014-2.96-4.468-1.28-6.54.65-7.822l2.55-1.688 1.01 1.533-2.7 1.795c-1.51.999-1.63 2.037-.88 3.654l.06-.044s-.1-1.465 1.5-2.526c2.06-1.37 4.28-.632 5.56 1.302 1.24 1.867 1.1 4.263-1.23 5.81zm3.41-9.105l-1.9 1.187c-1.02-1.873.08-3.35 1.71-4.367 1.69-1.06 3.43-1.298 4.57.534l3.02 4.817-1.9 1.187-.85-1.357-.07.042s.54 1.832-1.26 2.96c-1.29.805-2.62.802-3.43-.501-.82-1.316-.11-2.591.87-3.619.99-1.036 2.05-1.826 1.56-2.613-.35-.557-.96-.628-1.71-.161-.81.508-1.06 1.114-.61 1.891zm3.27-.197c-.13.48-.67 1.028-1.13 1.503-.52.53-.84 1.165-.45 1.789.34.543.93.644 1.54.263 1.29-.806.7-2.51.04-3.555zm9.41-1.102l-2.37-3.994c-.73-1.239-1.3-1.643-2.06-1.195-.83.489-.9 1.369-.05 2.815l2.2 3.718-1.92 1.141-4.24-7.161 1.86-1.1.69 1.171.07-.041s-.33-1.662 1.11-2.518c1.16-.684 2.1-.5 2.88.177v-.022l.07-.041s-.19-1.743 1.25-2.599c1.79-1.059 3.05-.036 4.03 1.616l2.6 4.407-1.92 1.14-2.37-3.993c-.73-1.239-1.3-1.643-2.06-1.195-.83.489-.9 1.369-.05 2.815l2.2 3.718-1.92 1.141zm10.5-6.098l-2.28-4.044c-.7-1.255-1.27-1.671-2.04-1.24-.83.471-.93 1.35-.1 2.814l2.12 3.765-1.96 1.098-4.08-7.251 1.89-1.059.66 1.185.07-.039s-.29-1.669 1.17-2.493c1.17-.659 2.11-.454 2.87.239l.01-.021.07-.04s-.16-1.747 1.3-2.571c1.82-1.02 3.05.03 3.99 1.703l2.51 4.463-1.95 1.098-2.28-4.044c-.7-1.255-1.27-1.671-2.03-1.24-.84.471-.93 1.35-.11 2.814l2.12 3.765-1.95 1.098zm4.91-7.242c-1.14-2.147-.81-4.553 1.61-5.84 2.41-1.285 4.45-.142 5.6 2.005.09.169.21.431.21.431l-5.2 2.767c.69 1.085 1.62 1.677 2.8 1.045 1.2-.639.81-1.882.81-1.882l1.98-1.052s.97 2.838-2.07 4.455c-2.47 1.315-4.59.217-5.74-1.929zm2.4-4.356c-.98.519-1.11 1.424-.8 2.418l3.12-1.662c-.61-.836-1.35-1.275-2.32-.756zm9 6.273l-4.99-10.032 1.94-.96.5 1.003.07-.036s.04-1.538 1.69-2.356c2.15-1.067 4.15.262 5.18 2.34 1.03 2.078.88 4.475-1.27 5.542-1.58.783-2.72.1-2.72.1l-.07.035 1.67 3.368-2 .996zm-1.2-7.266c.67 1.347 1.78 2.152 3 1.547 1.22-.605 1.25-1.979.58-3.326s-1.78-2.151-3-1.547c-1.22.605-1.25 1.979-.58 3.326zm13.76-1.473l1.16 2.546-2.03.933-1.17-2.546c-2.49 1.14-4.66.2-5.69-2.055-1.04-2.255-.33-4.515 2.16-5.654l-1.17-2.546 2.04-.933 1.16 2.546c2.49-1.14 4.67-.2 5.7 2.055 1.03 2.255.32 4.515-2.16 5.654zm-2.71-.521l-2.2-4.8c-1.29.592-1.42 1.884-.79 3.266.64 1.382 1.7 2.127 2.99 1.534zm2.83-4.2c-.63-1.382-1.69-2.127-2.99-1.534l2.2 4.8c1.3-.592 1.42-1.884.79-3.266zm4.15 2.688l-.49-8.828 2.33-.987 6 6.49-2.21.938-4.07-4.686.53 6.185-2.09.887zm12.9-14.26l3.03 7.746-2.08.817-1.11-2.83-1.49.584-.13 3.315-2.34.917.33-3.822c-1.06-.066-1.81-.615-2.18-1.554-.58-1.49.23-2.925 2.39-3.772l3.58-1.401zm-1.94 4.71l1.2-.467-.76-1.936-1.2.467c-1.11.438-1.44.911-1.18 1.582.26.67.83.793 1.94.355zm4.62-1.28c-.83-2.288-.15-4.622 2.42-5.548 2.58-.926 4.43.498 5.25 2.786.07.18.15.457.15.457l-5.54 1.993c.53 1.173 1.36 1.892 2.63 1.437 1.28-.46 1.07-1.747 1.07-1.747l2.11-.758s.55 2.948-2.69 4.112c-2.63.948-4.58-.443-5.4-2.731zm2.99-3.967c-1.04.374-1.3 1.25-1.14 2.279l3.33-1.197c-.48-.915-1.15-1.456-2.19-1.082zm14.54-6.359l2.53 7.926-1.98.632-1.77-5.564-.08.025.02 6.123-1.98.632-3.53-5.004-.07.024 1.77 5.564-1.98.632-2.53-7.927 3.2-1.02 3.35 4.976-.15-5.998 3.2-1.021z" fill="#fff"/></svg>