<svg width="58" height="58" fill="none" xmlns="http://www.w3.org/2000/svg"><path fill-rule="evenodd" clip-rule="evenodd" d="M38.208 46.883a10.26 10.26 0 00-1.716-.966c-3.698-1.45-3.335-.363-1.498-1.789 5.872-4.495 5.099-15.563-2.683-17.085a.822.822 0 00-.967.628c-.314 1.45 1.91.507 4.036 3.214 3.335 4.302.822 14.742-10.005 12.228-8.337-1.691-7.25-16.36 4.133-15.611a.724.724 0 10.145-1.426 10.246 10.246 0 00-6.84 19.043c-5.292 2.151-9.666 6.453-8.869 12.084a.725.725 0 001.45 0 8.724 8.724 0 011.958-4.399 31.031 31.031 0 015.365-5.365c2.271-1.377 2.15-1.28 2.296-1.474.797.158 1.605.263 2.416.314a19.67 19.67 0 00-.193 9.522.314.314 0 000 .145.7.7 0 00.918.532.653.653 0 00.653-.484.702.702 0 000-.217c.456-2.389.659-4.82.604-7.25-.41-2.417-.363-1.934-.338-2.175.9-.033 1.794-.179 2.658-.435a45.924 45.924 0 014.833 3.093 21.749 21.749 0 015.003 8.12.822.822 0 101.595-.338 14.066 14.066 0 00-4.954-9.909z" fill="#113975"/><path fill-rule="evenodd" clip-rule="evenodd" d="M27.042 33.689a10.391 10.391 0 01-5.751 1.546.724.724 0 00-.121 1.426c4.833.919 6.694 0 10.657-2.586 1.499 1.499 2.852 3.408 3.722 2.417a.821.821 0 000-1.16c-2.054-2.15-2.247-4.52-4.374-3.915-1.42.678-2.8 1.437-4.133 2.272zm-2.706-20.542c-1.184 2.247-4.108 6.549-1.571 7.25 2.15.628 4.398-1.837 5.848-3.505 0 0 .508-.338.87-.652a25.82 25.82 0 001.861 1.764 13.339 13.339 0 004.205 2.417c2.586.242 1.547-4.302 1.088-6.888l-.387-.531c1.837-.895 5.1-2.417 4.954-4.52-.169-2.416-3.649-2.174-6.331-2.416h-.701l-2.465-4.543c-1.74-2.175-3.746-1.789-4.834.386l-1.619 3.577c0 .145-.362.459-.435.677a14.983 14.983 0 00-5.486.7c-1.184.677-1.135 2.151-.145 3.239a21.292 21.292 0 005.148 3.045zm0-4.834c.459 0 .99.339 1.716 0 .725-.338.942-1.329 3.117-5.558.175.12.337.258.483.41.363.484 2.03 4.23 2.755 5.028.27.271.616.456.991.531 1.625.035 3.243.22 4.834.556a25.571 25.571 0 01-4.109 1.813 1.643 1.643 0 00-.652 1.715 24.84 24.84 0 01.967 4.568 18.436 18.436 0 01-4.23-3.408c-1.957-2.005-4.084 4.326-6.645 4.834a2.909 2.909 0 010-.46c.265-1.304 1.957-4.06 2.416-5.389 0 .339.266-1.087-.677-1.087l-2.223-1.088c-.387-.29-2.416-1.425-2.755-2.03.29-.072 3.843-.483 4.06-.507l-.048.072zM58 15.467c-.242-2.417-3.577-2.006-6.187-2.272-.29-.03-.58-.03-.87 0l-2.417-4.06c-1.619-1.885-3.31-1.523-4.229.338l-1.546 3.36a.822.822 0 001.474.724c2.199-4.422 1.957-4.205 2.73-3.165.315.41 2.006 4.035 2.659 4.833.652.797 1.595.435 1.982.507 1.135.17 3.117 0 3.89.266 0 0-4.035 1.789-4.325 1.934a1.57 1.57 0 00-.677 1.74c.41 1.308.7 2.65.87 4.011-4.834-2.537-3.963-5.606-7.25-1.426-.387.46-2.224 2.997-3.263 3.166a12.08 12.08 0 010-4.495.727.727 0 00-1.353-.531 14.741 14.741 0 00-.508 4.833c.17 2.102 1.692 2.417 3.432 1.402a16.02 16.02 0 003.263-3.142l.773-.556a17.252 17.252 0 003.915 3.093c1.233.653 2.417 1.354 3.287.411.87-.942 0-4.833-.17-6.79 1.692-.822 4.689-2.32 4.52-4.181zM4.52 19.768a35.064 35.064 0 00-.605 4.689 2.659 2.659 0 00.435 2.126c.943.943 2.054.242 3.287-.41a17.253 17.253 0 003.915-3.118l.773.556a16.727 16.727 0 003.263 2.972c1.715.967 3.262.725 3.431-1.401.1-1.628-.07-3.262-.507-4.834a.727.727 0 10-1.354.532 12.09 12.09 0 010 4.495c-1.063-.17-2.924-2.755-3.262-3.166-3.311-4.18-2.417-1.112-7.25 1.426.172-1.36.463-2.703.87-4.012a1.57 1.57 0 00-.677-1.74c-.29-.169-4.301-1.981-4.326-1.933.774-.193 2.755 0 3.891-.266.387 0 1.402 0 1.982-.507.58-.508 2.876-5.51 3.31-5.39.436.121.46.387 2.152 3.77a.822.822 0 001.474-.725l-1.547-3.359c-.918-1.86-2.61-2.223-4.108-.338l-2.417 4.06c-.29-.03-.58-.03-.87 0-2.78.387-6.138.024-6.38 2.392-.17 1.861 2.828 3.335 4.52 4.181z" fill="#113975"/></svg>