<svg width="51" height="49" fill="none" xmlns="http://www.w3.org/2000/svg"><path d="M5.1 48.4c2.7-1.4 6.1-5.6 9.8-5.6 3.6 0 7.1 4.2 9.8 5.6 1.8.8 3.1.2 3.7-1.2.2-.6.4-1.1.5-1.6 1.6-1.1 3.1-2.3 4.9-2.9 1.9-.7 3.8-.6 6.4 1.1 1 .6 1.9 1.4 2.8 2.2.9.8 1.8 1.6 2.9 2.3.3.2.6.3 1 .4.4.1.9.1 1.4-.1.5-.2.8-.6 1-.9.2-.3.4-.7.5-1 .4-1.3.5-2.5.6-3.7.3-4.9 0-9.7-.8-14.5-.4-2.4-1-4.8-1.8-7.1s-1.8-4.5-3.1-6.6c0-.7.1-1.3 0-2-.1-2.8-.7-5.6-2.1-8.1C41.2 2.2 38.9 0 36.1.2c2.7.3 4.6 2.4 5.7 5 1.1 2.4 1.4 5.1 1.4 7.7 0 .6-.1 1.2-.2 1.8-.1.1-.1.2-.2.4-.3 3-1.4 6.2-3.7 8.1-1.9 1.6-4.2 1.6-6.1 0-2.7-2.4-3.8-6.7-4-10.4 0-2.6.3-5.3 1.4-7.7.5-1.2 1.2-2.3 2.1-3.3C33.4.9 34.6.2 36 .1c-1.4-.1-2.8.4-3.9 1.3s-2 2-2.7 3.2c-1.4 2.5-2 5.3-2.1 8.1 0 1 0 2.1.2 3.1-.9 1.6-1.5 3.4-2 5.1-.7-1.7-1.4-3.3-2.4-4.8.2-1.1.2-2.3.2-3.4-.1-2.8-.7-5.6-2.1-8.1C20 2.2 17.7 0 14.9.2c2.7.3 4.6 2.4 5.7 5 1.1 2.4 1.4 5.1 1.4 7.7-.1 2.6-.6 5.2-1.8 7.5-1.1 2.1-2.8 4.1-5.2 4.2-2.4 0-4.1-2-5.2-4.2-1.4-2.4-1.8-5-2-7.6 0-2.6.3-5.3 1.4-7.7 1.1-2.5 2.9-4.7 5.6-5-1.4-.1-2.8.4-3.9 1.3s-2 2-2.7 3.2C7 7.2 6.4 10 6.3 12.8c0 1.1 0 2.3.2 3.4-1.9 3-3.1 6.4-4 9.8-1 3.9-1.5 7.9-1.7 11.9-.1 2-.1 4 0 6.1.3 3.3 1.1 5.9 4.3 4.4zm22.7-31.7c.5 2.9 1.7 5.9 4 7.9 2.7 2.4 6.1 2.3 8.7 0 2-1.8 3.1-4.2 3.7-6.8 1.6 3.4 2.7 7.1 3.4 10.9.4 2.3.7 4.6.9 7 .2 2.3.2 4.7.1 7-.1 1.2-.2 2.3-.5 3.3-.1.4-.3.7-.5.9.1-1.3 0-2.5-.3-3.8-.3-1.4-.7-2.8-1.2-4.2-.6-1.3-1.2-2.6-2.1-3.8-.8-1.2-1.8-2.3-2.9-3.3l1.9 3.8c.6 1.3 1.2 2.5 1.7 3.8l1.5 3.9 1.2 3.6c-.2 0-.5 0-.9-.3-.9-.5-1.9-1.3-2.8-2-1-.7-1.9-1.5-3-2.1-2.4-1.4-4.6-1.9-7.2-.7-1.8.8-3.2 2-4.6 3.3.1-.5.1-.9.2-1.4.4-4.3-.1-11.7-1.7-17.9-.5-1.7-1-3.4-1.6-5 .5-1.2 1.1-2.7 2-4.1zM3.4 26.3c.6-3.4 1.6-6.7 3.1-9.8.3 1.6.7 3.1 1.4 4.6 1.4 2.9 3.8 5.3 6.9 5.3 2.5 0 5.2-1.6 6.9-5.3.7-1.5 1.1-3.1 1.4-4.6 1.5 3.1 2.5 6.5 3.1 9.8 1.2 5.8 1.4 13 .9 17.5-.1.9-.3 1.9-.6 2.6-.1.2-.2.3-.2.4 0-1.2-.1-2.4-.3-3.6-.5-2.7-1.7-5.7-3.3-8-.7-1.2-1.7-2.3-2.8-3.3l1.9 3.8c1.5 3.1 2.1 4.8 3.2 7.8l1.1 3.4c-.1 0-.4-.1-.7-.2-2.5-1.3-6-5.8-10.6-5.9-4.6.1-8.1 4.6-10.6 5.9-.3.2-.5.2-.7.2l1.1-3.4c.5-1.3.9-2.6 1.5-3.9.5-1.3 1.1-2.6 1.7-3.8L9.7 32c-1.1.9-2.1 2.1-2.9 3.3-.8 1.2-1.5 2.5-2.1 3.8-.5 1.4-1 2.8-1.2 4.2-.2 1.2-.3 2.4-.3 3.6-.1-.1-.2-.2-.2-.4-.3-.7-.5-1.7-.6-2.6-.2-1.9-.2-3.9-.2-5.8.1-4 .4-8 1.2-11.8z" fill="#113975"/><path d="M10.1 10.5c.1 1.3.5 2.7 1.3 3.7s2.1 1.8 3.4 1.6c-1.2-.2-2.1-1.1-2.6-2.1s-.7-2.1-.6-3.2c.1-1.1.4-2.1 1-2.9.6-.8 1.4-1.4 2.2-1.3.8 0 1.6.5 2.2 1.3.6.8.9 1.9 1 2.9.1 1.1-.1 2.2-.6 3.2s-1.4 1.9-2.6 2.1c1.3.2 2.6-.5 3.4-1.5.8-1.1 1.3-2.4 1.3-3.7.1-1.4-.2-2.7-1-4-.7-1.2-2.1-2.3-3.8-2.3-1.7 0-3.1 1.1-3.8 2.3-.6 1.1-.9 2.5-.8 3.9zm22.6 3.7c.8 1 2.1 1.8 3.4 1.6-1.2-.2-2.1-1.1-2.6-2.1-1-1.9-.8-4.6.4-6.1 1.2-1.8 3.2-1.8 4.4 0 1.1 1.5 1.4 4.2.4 6.1-.5 1-1.4 1.9-2.6 2.1 1.3.2 2.6-.5 3.4-1.5 1.5-2 1.9-5.2.4-7.7-1.9-3.1-5.8-3-7.6 0-1.5 2.4-1.2 5.6.4 7.6z" fill="#113975"/></svg>