<svg width="51" height="51" fill="none" xmlns="http://www.w3.org/2000/svg"><path d="M47.1 1.9C46 1.1 44.7.6 43.3.6s-2.7.5-3.7 1.5c-.5.4-.9 1-1.2 1.6l-.3-.9c0-.1-.1-.2-.2-.2-1.7.1-3.5.1-5.2.2 1.7.1 3.4.2 5 .2.1.5.2 1 .3 1.6-.1.4-.1.7-.1 1.1 0 .5.2 1.1.4 1.6.3 3.9-.1 7.8-1.4 11.5-.9 2.5-2.1 4.9-3.6 7.1-1.4 2.1-3.3 3.8-5.1 5.7h-5.4c-1.9-1.9-3.6-3.6-5.1-5.7-1.5-2.2-2.7-4.6-3.5-7.1-1.6-4.9-1.8-10.2-.5-15.3 3.1-.1 6.1-.1 9.2-.3 3.3-.1 6.5-.2 9.8-.4-3.3-.2-6.5-.3-9.8-.4-3.3-.1-6.5-.2-9.8-.3-.3 0-.6.2-.7.5 0 .2-.1.3-.1.5-.2-.4-.5-.7-.8-1-1-.9-2.4-1.5-3.7-1.5-1.4 0-2.8.5-3.9 1.3C2.9 2.6 2 3.8 1.5 5 1 6.2.7 7.5.7 8.8c0 5.2 3.7 10 8.6 11.3 1.2.4 2.4.4 3.3.8.2.1.3.2.4.3.2.6.5 1.2.8 1.8v.2c-.1 1-.6 2-1.5 2.8-.8.8-1.9 1.3-2.9 1.9 1.1-.4 2.2-.8 3.2-1.5.7-.5 1.4-1.2 1.8-2.1.5.9 1 1.8 1.6 2.7.4.6.8 1.2 1.3 1.7.4.6.9 1.1 1.4 1.6.5.5.9 1 1.4 1.4-.3.1-.6.2-.9.4-.8.5-1.3 1.5-1.2 2.4 0 .9.6 1.8 1.3 2.2.4.2.8.3 1.2.3.4 0 .7 0 1-.1.3 0 .6-.1.9-.1-.5 2.4-.7 4.7-.8 7-2.4.7-3.9 2.8-3.9 4.9-1.6.1-3.3.3-4.9.7 4 .8 8.7 1 12.7 1s8.7-.2 12.7-1c-1.6-.3-3.3-.5-4.9-.7 0-2.2-1.6-4.3-4.1-5-.1-2.3-.3-4.6-.8-7 .3 0 .7.1 1 .1.3 0 .6.1 1 .1s.8-.1 1.2-.3c.8-.4 1.3-1.3 1.3-2.2.1-.9-.4-1.9-1.2-2.4-.3-.2-.6-.3-1-.4 2.5-2.5 4.1-4.5 5.7-7.6.4 1 1.1 1.7 1.9 2.3 1 .7 2.1 1.1 3.2 1.5-1-.6-2.1-1.1-2.9-1.9-2.3-2.1-1.5-4.6-.3-5.1.9-.4 2-.4 3.3-.8 4.9-1.3 8.6-6.1 8.6-11.3 0-1.3-.3-2.6-.8-3.8-.4-1.1-1.3-2.3-2.3-3zM9.8 18.6C5.7 17.1 2.6 13 2.7 8.8c0-2.1.8-4.2 2.4-5.4.8-.6 1.7-1 2.7-1 .9 0 1.9.3 2.7.9.7.6 1.2 1.4 1.3 2.4l-.3 1.5c-.2.4-.5.8-.9 1.1-.7.6-2 .8-2.8.2-.9-.5-1-2.1.2-2.7C6.7 6.1 6.3 8 7.4 9c1 .9 2.6.9 3.7.2l.1-.1c0 .6-.1 1.3-.1 1.9 0 2.8.4 5.7 1.2 8.4-.8-.5-1.8-.5-2.5-.8zM33 48.7c-.4 0-.7-.1-1.1-.1-2.1-.2-4.2-.2-6.4-.2-3.8 0-5.4.1-7.5.3 1.1-2.2 3.1-3.3 4.9-3.2 2.3.1 3.1.1 5.1 0 1.8-.1 3.9 1 5 3.2zm-1.6-14.2c0 .4-.1.8-.5 1.1l-.6.3c-.2 0-.6.1-.9.1-1.3.1-2.6.3-3.9.5.9.2 1.8.3 2.8.4-.3 1.2-.4 2.5-.6 3.7-.1 1-.2 2.1-.2 3.1h-4c-.1-1-.1-2.1-.2-3.1-.1-1.2-.3-2.5-.6-3.7 1-.1 1.9-.2 2.9-.4-1.3-.2-2.6-.4-3.9-.5-.3 0-.7 0-.9-.1-.2 0-.4-.1-.6-.3-.3-.3-.5-.7-.5-1.1 0-.4.3-.7.6-.9.2-.1.3-.1.5-.1h9.6c.2 0 .3 0 .5.1s.4.5.5.9zm9.8-15.9c-.8.3-1.8.4-2.9.8 0-.1 0-.1.1-.2 1-3.4 1.3-7 1-10.5.2.1.3.3.5.4 1.1.7 2.7.8 3.7-.2 1.1-.9.7-2.8-.6-3.1 1.1.5 1 2.2.2 2.7-.8.6-2.1.4-2.8-.2-.8-.6-1.2-1.7-1.2-2.6 0-1 .5-1.9 1.3-2.5.8-.6 1.8-.9 2.7-.9 1 0 1.9.4 2.7 1 1.6 1.2 2.4 3.3 2.4 5.4.1 4.3-3 8.4-7.1 9.9z" fill="#113975"/></svg>