<svg width="59" height="54" fill="none" xmlns="http://www.w3.org/2000/svg"><path fill-rule="evenodd" clip-rule="evenodd" d="M17.948 32.583c.65.084 1.308.084 1.958 0a9.98 9.98 0 001.86-.46 20.754 20.754 0 003.867-1.957.797.797 0 00.363-1.04.821.821 0 00-1.04-.362c-1.283.45-2.6.798-3.938 1.04a23.21 23.21 0 01-2.417.362h-1.208a12.083 12.083 0 002.44-6.38c.484-4.833-1.909-9.667-7.515-10.15A11.383 11.383 0 003.062 18.3a8.555 8.555 0 00-.701 10.15 7.443 7.443 0 002.417 2.272l.918.483A17.69 17.69 0 001.588 37.9 22.477 22.477 0 00.5 43.917a44.273 44.273 0 00.58 8.917.797.797 0 00.894.75.774.774 0 00.677-.822c-.15-2.886-.06-5.78.266-8.652.21-1.84.574-3.658 1.087-5.437a19.6 19.6 0 013.408-6.84c.652.17 1.305.339 1.957.46a.677.677 0 10.266-1.33c-4.833-1.111-5.703-3.359-5.727-3.431a6.573 6.573 0 011.039-7.782 9.014 9.014 0 017.25-3.6c4.132.24 5.776 3.842 5.558 7.418a8.458 8.458 0 01-6.21 8.265.798.798 0 00-.653.87.773.773 0 00.87.629 7.83 7.83 0 003.6-1.499c.82.38 1.691.633 2.586.75z" fill="#113975"/><path fill-rule="evenodd" clip-rule="evenodd" d="M26.044 33.525a16.919 16.919 0 01-3.262 2.417 19.762 19.762 0 01-3.674 1.57 30.22 30.22 0 00-2.9.87 3.19 3.19 0 00-1.619 1.33 9.402 9.402 0 00-.677 4.205c0 3.02.991 6.742 1.136 8.651a.749.749 0 00.798.725.748.748 0 00.725-.773c0-1.643-.266-4.664-.266-7.443 0-6.26 1.474-4.495 3.698-5.365a24.74 24.74 0 003.794-2.224 17.862 17.862 0 003.286-3.02.651.651 0 000-.967.675.675 0 00-1.039.024zM50.38 29.73a16.363 16.363 0 01-3.456 0c-3.432-.483-8.096-3.48-6.452-8.385a9.667 9.667 0 016.597-5.873 7.54 7.54 0 018.53 3.142 6.283 6.283 0 01-2.077 8.7.774.774 0 00-.194 1.063.725.725 0 001.064.194 8.024 8.024 0 003.02-11.02 9.86 9.86 0 00-10.995-4.616 11.915 11.915 0 00-8.241 7.612 7.419 7.419 0 001.522 7.25 8.393 8.393 0 01-1.16-.507 9.28 9.28 0 01-3.02-3.31 12.082 12.082 0 00-2.224-2.877 5.92 5.92 0 00-5.51-1.595 5.244 5.244 0 00-3.117 3.891 3.285 3.285 0 000 1.668c.255.667.545 1.32.87 1.957.324.626.688 1.231 1.087 1.813a23.34 23.34 0 003.48 4.18 20.512 20.512 0 004.447 3.19 39.881 39.881 0 003.963 1.426c.402.144.784.34 1.136.58.25.893.412 1.807.483 2.731a29.15 29.15 0 01.218 4.35 60.132 60.132 0 01-.532 6.646.686.686 0 001.353.217c.363-2.223.725-4.495.87-6.766a32.74 32.74 0 000-4.616 21.737 21.737 0 00-.29-2.973 2.416 2.416 0 00-.628-1.135 7.25 7.25 0 00-1.764-1.112c-1.208-.556-2.634-.918-3.673-1.498a19.477 19.477 0 01-3.867-2.9 24.169 24.169 0 01-3.118-3.722 21.709 21.709 0 01-.942-1.62c-1.015-1.836-.773-1.74-.628-2.247a2.416 2.416 0 011.329-1.788c.821-.314 1.909 0 3.456 1.087 1.546 1.088 2.658 4.399 5.679 5.994a9.402 9.402 0 004.616 1.015c.233.15.475.288.725.41 1.19.54 2.466.859 3.77.943 1.25.064 2.505.007 3.745-.17a.652.652 0 00.58-.748.629.629 0 00-.652-.58z" fill="#113975"/><path fill-rule="evenodd" clip-rule="evenodd" d="M52.555 28.74a.677.677 0 10-.894.991 14.863 14.863 0 013.625 8.12 41.03 41.03 0 01.58 5.462c.09 2.837.017 5.677-.218 8.506a.75.75 0 00.653.846.773.773 0 00.87-.628c.62-2.872 1-5.79 1.136-8.724.08-2.013-.1-4.027-.532-5.994a15.25 15.25 0 00-5.22-8.579zm-34.8-19.503c.117.408.27.804.46 1.185.168.374.362.738.58 1.087a21.962 21.962 0 001.836 2.417.7.7 0 00.918.266.677.677 0 00.266-.919c-.314-.942-.483-1.86-.798-2.779a9.436 9.436 0 00-.483-1.136 9.052 9.052 0 00-.58-1.063 35.06 35.06 0 00-1.619-2.417.774.774 0 00-1.402.653c.29.87.484 1.788.822 2.706zm10.948.581a.677.677 0 00.652.676.653.653 0 00.7-.652c.218-1.015.484-1.958.605-2.997.025-.427.025-.854 0-1.28.023-.427.023-.855 0-1.282 0-.99-.29-1.957-.435-2.972A.773.773 0 0029.5.537a.75.75 0 00-.773.75c-.17 1.015-.363 1.981-.46 2.996a11.9 11.9 0 000 1.281 11.9 11.9 0 000 1.281c.049 1.015.29 1.958.436 2.973zm8.797 3.335a16.913 16.913 0 002.005-1.692c.244-.27.463-.56.653-.87.193-.29.362-.604.531-.918.363-.774.653-1.523.991-2.272a.797.797 0 00-.097-1.087.773.773 0 00-1.063.193c-.628.604-1.208 1.16-1.788 1.812a10.55 10.55 0 00-.629.822 6.895 6.895 0 00-.628.943c-.362.749-.604 1.498-.99 2.223a.676.676 0 101.014.894v-.048z" fill="#113975"/></svg>