<svg width="50" height="48" fill="none" xmlns="http://www.w3.org/2000/svg"><path fill-rule="evenodd" clip-rule="evenodd" d="M47.747 1.147a8.481 8.481 0 00-5.82-1.002 61.95 61.95 0 00-10.024 2.082 120.552 120.552 0 00-13.106 4.895 73.01 73.01 0 00-12.26 6.94A21.318 21.318 0 00.91 19.959a4.935 4.935 0 00-.54 4.395 5.32 5.32 0 002.12 2.467 11.564 11.564 0 003.855 1.503l9.676 2.236v.463c0 1.62-.231 4.395-.231 6.785a25.13 25.13 0 00.308 4.895 6.745 6.745 0 005.243 5.282 12.876 12.876 0 009.83-3.855 46.261 46.261 0 007.71-10.293 142.022 142.022 0 008.172-17.116 29.142 29.142 0 002.467-10.1 7.247 7.247 0 00-1.773-5.474zM45.28 7.701a27.56 27.56 0 01-2.005 7.247 151.912 151.912 0 01-7.517 16.846 42.981 42.981 0 01-6.9 9.714 10.832 10.832 0 01-5.782 3.238 3.855 3.855 0 01-4.28-2.968 27.488 27.488 0 01-.308-3.855V31.37a1.31 1.31 0 00-.578-1.195 1.195 1.195 0 00-.848-1.426L6.885 26.012a9.907 9.907 0 01-2.506-.964 2.93 2.93 0 01-1.388-1.504c-.308-.77.309-1.619 1.003-2.467a17.964 17.964 0 014.356-3.855 70.741 70.741 0 0111.912-6.129A122.277 122.277 0 0133.06 6.737a62.985 62.985 0 016.553-1.465c4.048-1.002 6.014-2.467 5.551 2.429h.116z" fill="#113975"/></svg>