<svg width="56" height="55" fill="none" xmlns="http://www.w3.org/2000/svg"><path d="M13.953 13.75a.802.802 0 001.58 0c0-1.1.39-2.291.505-3.3a18.2 18.2 0 00-.458-3.78.81.81 0 00-1.605-.207 12.65 12.65 0 00-.022 7.287zm2.979 5.66c1.443-1.58-.734-3.437-2.292-3.62a3.094 3.094 0 00-1.788.802c-.48.39-1.008.642-1.054 1.627-.069 2.406 3.781 2.681 5.134 1.192zm38.568.138a5.271 5.271 0 00-1.856-3.391 36.303 36.303 0 00-6.164-3.575 60.882 60.882 0 00-9.603-3.873 6.073 6.073 0 00-3.002-.298 8.116 8.116 0 00-1.42.848 34.52 34.52 0 00-1.834 1.375.71.71 0 10.871 1.1c.665-.527 1.26-.94 1.765-1.284.365-.254.757-.47 1.168-.641.55-.02 1.098.082 1.605.298.435 0 .893.275 1.397.458 0 0-.687 1.238-.916 1.742-.18.391-.296.81-.344 1.237a2.52 2.52 0 00.733 1.925 9.99 9.99 0 002.727 1.902l3.025 1.307c.5.27 1.043.456 1.605.55a2.7 2.7 0 001.375-.16l1.993-1.215.894-.413h.138a.985.985 0 00.366-.367.825.825 0 000-.618c.665.435 2.109 1.306 2.59 1.65.481.343-.596 1.673-1.054 2.291a116.183 116.183 0 01-7.38 9.396 426.024 426.024 0 01-12.008 13.521c-1.581 1.673-2.59 2.842-2.796 2.956a4.922 4.922 0 01-2.933-.435 38.288 38.288 0 01-7.883-3.667 32.243 32.243 0 01-7.86-6.027c-.505-.619-.895-1.1-.757-1.512.186-.419.425-.812.71-1.17a42.8 42.8 0 011.513-1.878.789.789 0 00-1.192-1.032 39.614 39.614 0 00-1.879 2.292 15.378 15.378 0 00-1.719 3.827 18.905 18.905 0 00-.412 4.056 5.202 5.202 0 001.49 2.82 38.958 38.958 0 008.639 6.645 41.52 41.52 0 008.617 4.033 9.853 9.853 0 004.583.482 8.456 8.456 0 003.163-1.994 89.37 89.37 0 008.456-9.052c6.44-7.792 12.993-17.348 13.223-19.159.34-1.626.464-3.29.366-4.95zm-6.53-3.506l-.872.252-2.085.848a.938.938 0 01-.367 0 3.74 3.74 0 01-.848-.504l-2.933-1.49a13.383 13.383 0 01-2.086-1.03c-.206-.138-.527-.207-.527-.46a2.292 2.292 0 010-.824 6.87 6.87 0 01.344-1.031l.138-.573a50.788 50.788 0 014.904 2.291c1.696.917 3.208 1.696 4.583 2.521h-.252zm-6.578 23.1a135.83 135.83 0 01-10.13 11.138 8.684 8.684 0 01-2.474 1.879c-2.292.527-7.173-1.467-11.596-3.919a36.67 36.67 0 01-8.365-5.958c-.641-.665-1.1-1.215-1.123-1.673-.027-1.065.027-2.13.16-3.186l.138-.756c.138.206.16.39.321.596a34.721 34.721 0 008.159 6.715 36.665 36.665 0 009.602 4.583c1.06.32 2.193.32 3.254 0a35.98 35.98 0 004.194-3.965c3.804-3.987 9.648-10.473 14.07-16.041a69.618 69.618 0 005.363-7.471 22.92 22.92 0 01-.458 3.208c-.298 1.49-5.592 8.273-11.115 14.85z" fill="#113975"/><path d="M23.944 24.063a58.202 58.202 0 006.37 1.49 2.796 2.796 0 002.522-.642c.214-.333.303-.73.252-1.123a7.72 7.72 0 00-.848-2.292 36.773 36.773 0 00-3.369-5.202 14.369 14.369 0 00-1.696-9.9A11.962 11.962 0 0018.398.413 17.6 17.6 0 004.42 3.965C1.417 6.692-.371 11.16.913 17.99a11.733 11.733 0 0010.014 9.831 16.042 16.042 0 0013.017-3.758zM3.525 17.486c-1.1-5.638.206-9.35 2.636-11.665a15.377 15.377 0 0111.962-3.323 10.13 10.13 0 017.585 4.744 12.856 12.856 0 011.72 9.167.894.894 0 00.137.687s1.444 2.108 2.291 3.62a16.18 16.18 0 011.284 2.66v.389h-.115a12.445 12.445 0 01-2.291-.39c-1.948-.481-4.148-1.26-5.088-1.444a.939.939 0 00-.894.275 13.958 13.958 0 01-11.458 3.209 9.328 9.328 0 01-7.769-7.93z" fill="#113975"/></svg>