<svg width="24" height="20" fill="none" xmlns="http://www.w3.org/2000/svg"><path fill-rule="evenodd" clip-rule="evenodd" d="M2.479 16.9a5.21 5.21 0 005.36 1.16 4.28 4.28 0 002.52-4.94 4.27 4.27 0 00-4.12-3.5 7.56 7.56 0 00-1.89.17 4.421 4.421 0 00-1.24.47 2.86 2.86 0 00-1.11 1.1.67.67 0 00.52.91c.76.3.28-.82 1-1.22a3.83 3.83 0 011.26-.37c.459-.04.92-.04 1.38 0a3.14 3.14 0 012.88 2.7 2.91 2.91 0 01-1.82 3.29 3.72 3.72 0 01-3.76-.94 5.27 5.27 0 01-2-3.63A10.92 10.92 0 013.349 6a13.74 13.74 0 014.65-4.5.46.46 0 00.19-.63.45.45 0 00-.62-.19 14.87 14.87 0 00-5.26 4.67 12.4 12.4 0 00-2.31 6.74 6.73 6.73 0 002.48 4.81zm12.991 1.47a6.9 6.9 0 005.24.87 3.82 3.82 0 003-2.75 5.999 5.999 0 00-1-5.57 3.65 3.65 0 00-1.58-1 8.17 8.17 0 00-2.56-.31 3.71 3.71 0 00-1.73.39 4 4 0 00-1.32 1.15.41.41 0 10.63.51 3.25 3.25 0 011.08-.86 2.77 2.77 0 011.32-.21 7.13 7.13 0 012.2.37 2.54 2.54 0 011.06.76 4.507 4.507 0 01.73 3.6 2.68 2.68 0 01-2.06 2.39 5.62 5.62 0 01-4.11-.61 5 5 0 01-1.84-3.67A11.57 11.57 0 0115.25 8a20.612 20.612 0 012.67-5 .464.464 0 10-.74-.56 21.182 21.182 0 00-3.44 6.33 12.091 12.091 0 00-.62 4.9 6.482 6.482 0 002.35 4.7z" fill="#113975"/></svg>