<svg width="24" height="20" fill="none" xmlns="http://www.w3.org/2000/svg"><path fill-rule="evenodd" clip-rule="evenodd" d="M21.521 3.1a5.21 5.21 0 00-5.36-1.16 4.28 4.28 0 00-2.52 4.94 4.27 4.27 0 004.12 3.5 7.559 7.559 0 001.89-.17 4.42 4.42 0 001.24-.47 2.86 2.86 0 001.11-1.1.669.669 0 00-.52-.91c-.76-.3-.28.82-1 1.22a3.83 3.83 0 01-1.26.37 8 8 0 01-1.38 0 3.14 3.14 0 01-2.88-2.7 2.91 2.91 0 011.82-3.29 3.72 3.72 0 013.76.94 5.27 5.27 0 012 3.63 10.92 10.92 0 01-1.89 6.1 13.74 13.74 0 01-4.65 4.5.46.46 0 00-.19.63.449.449 0 00.62.19 14.87 14.87 0 005.26-4.67 12.4 12.4 0 002.31-6.74 6.73 6.73 0 00-2.48-4.81zM8.53 1.63A6.9 6.9 0 003.29.76a3.82 3.82 0 00-3 2.75 6 6 0 001 5.57c.431.466.976.81 1.58 1a8.168 8.168 0 002.56.31c.6.012 1.194-.121 1.73-.39a4 4 0 001.32-1.15.41.41 0 10-.63-.51 3.25 3.25 0 01-1.08.86 2.77 2.77 0 01-1.32.21 7.15 7.15 0 01-2.2-.37 2.54 2.54 0 01-1.06-.76 4.51 4.51 0 01-.73-3.6 2.68 2.68 0 012.06-2.39 5.62 5.62 0 014.11.61 5 5 0 011.84 3.67A11.57 11.57 0 018.75 12a20.609 20.609 0 01-2.67 5 .464.464 0 00.74.56 21.179 21.179 0 003.44-6.33 12.09 12.09 0 00.62-4.9 6.481 6.481 0 00-2.35-4.7z" fill="#113975"/></svg>