<svg width="64" height="64" fill="none" xmlns="http://www.w3.org/2000/svg"><g clip-path="url(#clip0_257_9250)"><path d="M25.561 41.23V22.863l16.38 9.185-16.38 9.184z" fill="#fff"/><path d="M62.032 17.315a7.603 7.603 0 00-2.036-3.421 7.932 7.932 0 00-3.521-1.978c-4.905-1.29-24.614-1.29-24.614-1.29s-19.709 0-24.613 1.29a7.932 7.932 0 00-3.522 1.978 7.603 7.603 0 00-2.036 3.42A76.78 76.78 0 00.363 32.048a76.78 76.78 0 001.327 14.73A7.603 7.603 0 003.726 50.2a7.932 7.932 0 003.522 1.978c4.904 1.29 24.613 1.29 24.613 1.29s19.71 0 24.614-1.29a7.932 7.932 0 003.521-1.978 7.603 7.603 0 002.036-3.42 76.783 76.783 0 001.328-14.733 76.783 76.783 0 00-1.328-14.731zm-36.47 23.912v-18.36l16.356 9.18-16.356 9.18z" fill="#E94156"/><rect x=".861" y="13.046" width="62" height="40" rx="7.5" stroke="#113975"/></g><defs><clipPath id="clip0_257_9250"><path fill="#fff" transform="translate(.361 .546)" d="M0 0h63v63H0z"/></clipPath></defs></svg>